solid SpoolHolder final
facet normal -2.46978298266723e-016 0.962024655774432 0.272962564616628
outer loop
vertex -89.0535118943728 530.760126236474 50.0
vertex -86.5961656300012 544.947006114147 5.63993296509579e-015
vertex -89.5961656300012 544.947006114147 5.63993296509579e-015
endloop
endfacet
facet normal -2.46978298266723e-016 0.962024655774432 0.272962564616628
outer loop
vertex -86.5961656300012 544.947006114147 5.63993296509579e-015
vertex -89.0535118943728 530.760126236474 50.0
vertex -86.0535118943728 530.760126236474 50.0
endloop
endfacet
facet normal 0.0 0.0 -1.0
outer loop
vertex -86.5961656300012 544.947006114147 5.63993296509579e-015
vertex -89.5961656300012 541.947006114147 5.63993296509579e-015
vertex -89.5961656300012 544.947006114147 5.63993296509579e-015
endloop
endfacet
facet normal 0.0 0.0 -1.0
outer loop
vertex -89.5961656300012 541.947006114147 5.63993296509579e-015
vertex -86.5961656300012 544.947006114147 5.63993296509579e-015
vertex -86.5961656300012 541.947006114147 5.63993296509579e-015
endloop
endfacet
facet normal 0.0 0.0 1.0
outer loop
vertex -86.0535118943728 527.760126236475 50.0
vertex -89.0535118943728 530.760126236474 50.0
vertex -89.0535118943728 527.760126236475 50.0
endloop
endfacet
facet normal 0.0 0.0 1.0
outer loop
vertex -89.0535118943728 530.760126236474 50.0
vertex -86.0535118943728 527.760126236475 50.0
vertex -86.0535118943728 530.760126236474 50.0
endloop
endfacet
facet normal -0.999941110586995 -1.38769705530366e-017 -0.010852435581369
outer loop
vertex -86.4388193656296 508.53388599182 50.0
vertex -85.8961656300012 497.347006114147 5.63993296509579e-015
vertex -85.8961656300012 494.347006114147 5.63993296509579e-015
endloop
endfacet
facet normal -0.999941110586995 -1.38769705530366e-017 -0.010852435581369
outer loop
vertex -85.8961656300012 497.347006114147 5.63993296509579e-015
vertex -86.4388193656296 508.53388599182 50.0
vertex -86.4388193656296 511.53388599182 50.0
endloop
endfacet
facet normal 1.23489149133362e-016 -0.962024655774432 -0.272962564616628
outer loop
vertex -86.0535118943728 527.760126236475 50.0
vertex -89.5961656300012 541.947006114147 5.63993296509579e-015
vertex -86.5961656300012 541.947006114147 5.63993296509579e-015
endloop
endfacet
facet normal 1.23489149133362e-016 -0.962024655774432 -0.272962564616628
outer loop
vertex -89.5961656300012 541.947006114147 5.63993296509579e-015
vertex -86.0535118943728 527.760126236475 50.0
vertex -89.0535118943728 527.760126236475 50.0
endloop
endfacet
facet normal -0.999941110586995 0.0 0.010852435581369
outer loop
vertex -89.0535118943728 530.760126236474 50.0
vertex -89.5961656300012 541.947006114147 5.63993296509579e-015
vertex -89.0535118943728 527.760126236475 50.0
endloop
endfacet
facet normal -0.999941110586995 0.0 0.010852435581369
outer loop
vertex -89.5961656300012 541.947006114147 5.63993296509579e-015
vertex -89.0535118943728 530.760126236474 50.0
vertex -89.5961656300012 544.947006114147 5.63993296509579e-015
endloop
endfacet
facet normal 0.999941110586995 1.38769705530366e-017 0.010852435581369
outer loop
vertex -82.8961656300012 497.347006114147 5.63993296509579e-015
vertex -83.4388193656296 508.53388599182 50.0
vertex -82.8961656300012 494.347006114147 5.63993296509579e-015
endloop
endfacet
facet normal 0.999941110586995 1.38769705530366e-017 0.010852435581369
outer loop
vertex -83.4388193656296 508.53388599182 50.0
vertex -82.8961656300012 497.347006114147 5.63993296509579e-015
vertex -83.4388193656296 511.53388599182 50.0
endloop
endfacet
facet normal 0.0 0.0 -1.0
outer loop
vertex -82.8961656300012 497.347006114147 5.63993296509579e-015
vertex -85.8961656300012 494.347006114147 5.63993296509579e-015
vertex -85.8961656300012 497.347006114147 5.63993296509579e-015
endloop
endfacet
facet normal 0.0 0.0 -1.0
outer loop
vertex -85.8961656300012 494.347006114147 5.63993296509579e-015
vertex -82.8961656300012 497.347006114147 5.63993296509579e-015
vertex -82.8961656300012 494.347006114147 5.63993296509579e-015
endloop
endfacet
facet normal 0.999941110586995 0.0 -0.010852435581369
outer loop
vertex -86.5961656300012 541.947006114147 5.63993296509579e-015
vertex -86.0535118943728 530.760126236474 50.0
vertex -86.0535118943728 527.760126236475 50.0
endloop
endfacet
facet normal 0.999941110586995 0.0 -0.010852435581369
outer loop
vertex -86.0535118943728 530.760126236474 50.0
vertex -86.5961656300012 541.947006114147 5.63993296509579e-015
vertex -86.5961656300012 544.947006114147 5.63993296509579e-015
endloop
endfacet
facet normal 0.0 0.0 1.0
outer loop
vertex -83.4388193656296 508.53388599182 50.0
vertex -86.4388193656296 511.53388599182 50.0
vertex -86.4388193656296 508.53388599182 50.0
endloop
endfacet
facet normal 0.0 0.0 1.0
outer loop
vertex -86.4388193656296 511.53388599182 50.0
vertex -83.4388193656296 508.53388599182 50.0
vertex -83.4388193656296 511.53388599182 50.0
endloop
endfacet
facet normal -1.36839923172085e-016 0.962024655774432 -0.272962564616628
outer loop
vertex -86.4388193656296 511.53388599182 50.0
vertex -82.8961656300012 497.347006114147 5.63993296509579e-015
vertex -85.8961656300012 497.347006114147 5.63993296509579e-015
endloop
endfacet
facet normal -1.36839923172085e-016 0.962024655774432 -0.272962564616628
outer loop
vertex -82.8961656300012 497.347006114147 5.63993296509579e-015
vertex -86.4388193656296 511.53388599182 50.0
vertex -83.4388193656296 511.53388599182 50.0
endloop
endfacet
facet normal 2.60329072305447e-016 -0.962024655774432 0.272962564616628
outer loop
vertex -83.4388193656296 508.53388599182 50.0
vertex -85.8961656300012 494.347006114147 5.63993296509579e-015
vertex -82.8961656300012 494.347006114147 5.63993296509579e-015
endloop
endfacet
facet normal 2.60329072305447e-016 -0.962024655774432 0.272962564616628
outer loop
vertex -85.8961656300012 494.347006114147 5.63993296509579e-015
vertex -83.4388193656296 508.53388599182 50.0
vertex -86.4388193656296 508.53388599182 50.0
endloop
endfacet
facet normal 6.93889390390723e-017 0.0 -1.0
outer loop
vertex -95.0931994190807 522.053090728889 0.0
vertex -95.0355675564261 517.394704403633 0.0
vertex -95.3710275849769 519.720103876931 0.0
endloop
endfacet
facet normal 6.93889390390723e-017 0.0 -1.0
outer loop
vertex -95.0355675564261 517.394704403633 0.0
vertex -95.0931994190807 522.053090728889 0.0
vertex -94.2210165891108 524.234675760987 0.0
endloop
endfacet
facet normal 6.93889390390723e-017 0.0 -1.0
outer loop
vertex -95.0355675564261 517.394704403633 0.0
vertex -94.2210165891108 524.234675760987 0.0
vertex -94.1096803800004 515.235364440195 0.0
endloop
endfacet
facet normal 6.93889390390723e-017 0.0 -1.0
outer loop
vertex -94.1096803800004 515.235364440195 0.0
vertex -94.2210165891108 524.234675760987 0.0
vertex -92.8139169135793 526.116187558529 0.0
endloop
endfacet
facet normal 6.93889390390723e-017 0.0 -1.0
outer loop
vertex -94.1096803800004 515.235364440195 0.0
vertex -92.8139169135793 526.116187558529 0.0
vertex -92.6564637366721 513.389239436647 0.0
endloop
endfacet
facet normal 6.93889390390723e-017 0.0 -1.0
outer loop
vertex -92.6564637366721 513.389239436647 0.0
vertex -92.8139169135793 526.116187558529 0.0
vertex -90.9677919100314 527.569404201858 0.0
endloop
endfacet
facet normal 6.93889390390723e-017 0.0 -1.0
outer loop
vertex -92.6564637366721 513.389239436647 0.0
vertex -90.9677919100314 527.569404201858 0.0
vertex -90.77495193913 511.982139761116 0.0
endloop
endfacet
facet normal 6.93889390390723e-017 0.0 -1.0
outer loop
vertex -90.77495193913 511.982139761116 0.0
vertex -90.9677919100314 527.569404201858 0.0
vertex -88.8084519465932 528.495291378283 0.0
endloop
endfacet
facet normal 6.93889390390723e-017 0.0 -1.0
outer loop
vertex -90.77495193913 511.982139761116 0.0
vertex -88.8084519465932 528.495291378283 0.0
vertex -88.5933669070314 511.109956931146 0.0
endloop
endfacet
facet normal 6.93889390390723e-017 0.0 -1.0
outer loop
vertex -88.5933669070314 511.109956931146 0.0
vertex -88.8084519465932 528.495291378283 0.0
vertex -86.483052473295 528.830751406834 0.0
endloop
endfacet
facet normal 6.93889390390723e-017 0.0 -1.0
outer loop
vertex -88.5933669070314 511.109956931146 0.0
vertex -86.483052473295 528.830751406834 0.0
vertex -86.2603800550741 510.83212876525 0.0
endloop
endfacet
facet normal 6.93889390390723e-017 0.0 -1.0
outer loop
vertex -86.2603800550741 510.83212876525 0.0
vertex -86.483052473295 528.830751406834 0.0
vertex -84.1500656213377 528.552923240938 0.0
endloop
endfacet
facet normal 6.93889390390723e-017 0.0 -1.0
outer loop
vertex -86.2603800550741 510.83212876525 0.0
vertex -84.1500656213377 528.552923240938 0.0
vertex -83.9349805817759 511.1675887938 0.0
endloop
endfacet
facet normal 6.93889390390723e-017 0.0 -1.0
outer loop
vertex -83.9349805817759 511.1675887938 0.0
vertex -84.1500656213377 528.552923240938 0.0
vertex -81.9684805892391 527.680740410968 0.0
endloop
endfacet
facet normal 6.93889390390723e-017 0.0 -1.0
outer loop
vertex -83.9349805817759 511.1675887938 0.0
vertex -81.9684805892391 527.680740410968 0.0
vertex -81.7756406183377 512.093475970226 0.0
endloop
endfacet
facet normal 6.93889390390723e-017 0.0 -1.0
outer loop
vertex -81.7756406183377 512.093475970226 0.0
vertex -81.9684805892391 527.680740410968 0.0
vertex -80.086968791697 526.273640735437 0.0
endloop
endfacet
facet normal 6.93889390390723e-017 0.0 -1.0
outer loop
vertex -81.7756406183377 512.093475970226 0.0
vertex -80.086968791697 526.273640735437 0.0
vertex -79.9295156147898 513.546692613554 0.0
endloop
endfacet
facet normal 6.93889390390723e-017 0.0 -1.0
outer loop
vertex -79.9295156147898 513.546692613554 0.0
vertex -80.086968791697 526.273640735437 0.0
vertex -78.6337521483687 524.427515731889 0.0
endloop
endfacet
facet normal 6.93889390390723e-017 0.0 -1.0
outer loop
vertex -79.9295156147898 513.546692613554 0.0
vertex -78.6337521483687 524.427515731889 0.0
vertex -78.5224159392583 515.428204411096 0.0
endloop
endfacet
facet normal 6.93889390390723e-017 0.0 -1.0
outer loop
vertex -78.5224159392583 515.428204411096 0.0
vertex -78.6337521483687 524.427515731889 0.0
vertex -77.7078649719429 522.268175768451 0.0
endloop
endfacet
facet normal 6.93889390390723e-017 0.0 -1.0
outer loop
vertex -78.5224159392583 515.428204411096 0.0
vertex -77.7078649719429 522.268175768451 0.0
vertex -77.6502331092884 517.609789443195 0.0
endloop
endfacet
facet normal 6.93889390390723e-017 0.0 -1.0
outer loop
vertex -77.6502331092884 517.609789443195 0.0
vertex -77.7078649719429 522.268175768451 0.0
vertex -77.3724049433922 519.942776295152 0.0
endloop
endfacet
facet normal 0.0 0.0 1.0
outer loop
vertex -93.5915923410525 517.800827017368 95.0
vertex -93.6396188932647 521.682815621748 95.0
vertex -93.8711423648448 519.738659911783 95.0
endloop
endfacet
facet normal 0.0 0.0 1.0
outer loop
vertex -93.6396188932647 521.682815621748 95.0
vertex -93.5915923410525 517.800827017368 95.0
vertex -92.9127998682898 523.500803148496 95.0
endloop
endfacet
facet normal 0.0 0.0 1.0
outer loop
vertex -92.9127998682898 523.500803148496 95.0
vertex -93.5915923410525 517.800827017368 95.0
vertex -92.820019694031 516.001377047836 95.0
endloop
endfacet
facet normal 0.0 0.0 1.0
outer loop
vertex -92.9127998682898 523.500803148496 95.0
vertex -92.820019694031 516.001377047836 95.0
vertex -91.7402168053468 525.068729646448 95.0
endloop
endfacet
facet normal 0.0 0.0 1.0
outer loop
vertex -91.7402168053468 525.068729646448 95.0
vertex -92.820019694031 516.001377047836 95.0
vertex -91.6090058245908 514.46293954488 95.0
endloop
endfacet
facet normal 0.0 0.0 1.0
outer loop
vertex -91.7402168053468 525.068729646448 95.0
vertex -91.6090058245908 514.46293954488 95.0
vertex -90.2017793023903 526.279743515888 95.0
endloop
endfacet
facet normal 0.0 0.0 1.0
outer loop
vertex -90.2017793023903 526.279743515888 95.0
vertex -91.6090058245908 514.46293954488 95.0
vertex -90.0410793266391 513.290356481937 95.0
endloop
endfacet
facet normal 0.0 0.0 1.0
outer loop
vertex -90.2017793023903 526.279743515888 95.0
vertex -90.0410793266391 513.290356481937 95.0
vertex -88.4023293328584 527.05131616291 95.0
endloop
endfacet
facet normal 0.0 0.0 1.0
outer loop
vertex -88.4023293328584 527.05131616291 95.0
vertex -90.0410793266391 513.290356481937 95.0
vertex -88.2230917998903 512.563537456962 95.0
endloop
endfacet
facet normal 0.0 0.0 1.0
outer loop
vertex -88.4023293328584 527.05131616291 95.0
vertex -88.2230917998903 512.563537456962 95.0
vertex -86.4644964384432 527.330866186702 95.0
endloop
endfacet
facet normal 0.0 0.0 1.0
outer loop
vertex -86.4644964384432 527.330866186702 95.0
vertex -88.2230917998903 512.563537456962 95.0
vertex -86.2789360899258 512.332013985382 95.0
endloop
endfacet
facet normal 0.0 0.0 1.0
outer loop
vertex -86.4644964384432 527.330866186702 95.0
vertex -86.2789360899258 512.332013985382 95.0
vertex -84.5203407284788 527.099342715122 95.0
endloop
endfacet
facet normal 0.0 0.0 1.0
outer loop
vertex -84.5203407284788 527.099342715122 95.0
vertex -86.2789360899258 512.332013985382 95.0
vertex -84.3411031955107 512.611564009174 95.0
endloop
endfacet
facet normal 0.0 0.0 1.0
outer loop
vertex -84.5203407284788 527.099342715122 95.0
vertex -84.3411031955107 512.611564009174 95.0
vertex -82.70235320173 526.372523690147 95.0
endloop
endfacet
facet normal 0.0 0.0 1.0
outer loop
vertex -82.70235320173 526.372523690147 95.0
vertex -84.3411031955107 512.611564009174 95.0
vertex -82.5416532259788 513.383136656195 95.0
endloop
endfacet
facet normal 0.0 0.0 1.0
outer loop
vertex -82.70235320173 526.372523690147 95.0
vertex -82.5416532259788 513.383136656195 95.0
vertex -81.1344267037783 525.199940627204 95.0
endloop
endfacet
facet normal 0.0 0.0 1.0
outer loop
vertex -81.1344267037783 525.199940627204 95.0
vertex -82.5416532259788 513.383136656195 95.0
vertex -81.0032157230223 514.594150525636 95.0
endloop
endfacet
facet normal 0.0 0.0 1.0
outer loop
vertex -81.1344267037783 525.199940627204 95.0
vertex -81.0032157230223 514.594150525636 95.0
vertex -79.923412834338 523.661503124247 95.0
endloop
endfacet
facet normal 0.0 0.0 1.0
outer loop
vertex -79.923412834338 523.661503124247 95.0
vertex -81.0032157230223 514.594150525636 95.0
vertex -79.8306326600793 516.162077023587 95.0
endloop
endfacet
facet normal 0.0 0.0 1.0
outer loop
vertex -79.923412834338 523.661503124247 95.0
vertex -79.8306326600793 516.162077023587 95.0
vertex -79.1518401873165 521.862053154716 95.0
endloop
endfacet
facet normal 0.0 0.0 1.0
outer loop
vertex -79.1518401873165 521.862053154716 95.0
vertex -79.8306326600793 516.162077023587 95.0
vertex -79.1038136351044 517.980064550336 95.0
endloop
endfacet
facet normal 0.0 0.0 1.0
outer loop
vertex -79.1518401873165 521.862053154716 95.0
vertex -79.1038136351044 517.980064550336 95.0
vertex -78.8722901635243 519.9242202603 95.0
endloop
endfacet
facet normal 0.823513936025161 0.489138006939654 -0.287347885566347
outer loop
vertex -79.923412834338 523.661503124247 4.99999999999999
vertex -77.7078649719429 522.268175768451 9.99999999999998
vertex -79.1518401873165 521.862053154716 4.99999999999999
endloop
endfacet
facet normal 0.922051610995137 0.259329942971925 -0.287347885566347
outer loop
vertex -77.7078649719429 522.268175768451 9.99999999999998
vertex -79.923412834338 523.661503124247 4.99999999999999
vertex -78.6337521483687 524.427515731889 9.99999999999998
endloop
endfacet
facet normal 0.489138006939653 -0.823513936025162 -0.287347885566346
outer loop
vertex -81.7756406183377 512.093475970226 9.99999999999998
vertex -84.3411031955107 512.611564009174 4.99999999999999
vertex -82.5416532259788 513.383136656195 4.99999999999999
endloop
endfacet
facet normal 0.259329942971923 -0.922051610995138 -0.287347885566347
outer loop
vertex -84.3411031955107 512.611564009174 4.99999999999999
vertex -81.7756406183377 512.093475970226 9.99999999999998
vertex -83.9349805817759 511.1675887938 9.99999999999998
endloop
endfacet
facet normal -0.259329942971925 0.922051610995137 -0.287347885566346
outer loop
vertex -88.8084519465932 528.495291378283 9.99999999999998
vertex -86.4644964384432 527.330866186702 4.99999999999999
vertex -88.4023293328584 527.05131616291 4.99999999999999
endloop
endfacet
facet normal -0.0118489719536502 0.95775299243813 -0.287347885566346
outer loop
vertex -86.4644964384432 527.330866186702 4.99999999999999
vertex -88.8084519465932 528.495291378283 9.99999999999998
vertex -86.483052473295 528.830751406834 9.99999999999998
endloop
endfacet
facet normal 0.928185090208117 -0.236439486921915 -0.287347885566348
outer loop
vertex -79.1038136351044 517.980064550336 4.99999999999999
vertex -77.3724049433922 519.942776295152 9.99999999999998
vertex -77.6502331092884 517.609789443195 9.99999999999998
endloop
endfacet
facet normal 0.957752992438129 0.0118489719536482 -0.287347885566348
outer loop
vertex -77.3724049433922 519.942776295152 9.99999999999998
vertex -79.1038136351044 517.980064550336 4.99999999999999
vertex -78.8722901635243 519.9242202603 4.99999999999999
endloop
endfacet
facet normal -0.835362907978812 0.46861498549847 -0.287347885566348
outer loop
vertex -94.2210165891108 524.234675760987 9.99999999999998
vertex -91.7402168053468 525.068729646448 4.99999999999999
vertex -92.9127998682898 523.500803148496 4.99999999999999
endloop
endfacet
facet normal -0.685612124073225 0.668855147236194 -0.287347885566347
outer loop
vertex -91.7402168053468 525.068729646448 4.99999999999999
vertex -94.2210165891108 524.234675760987 9.99999999999998
vertex -92.8139169135793 526.116187558529 9.99999999999998
endloop
endfacet
facet normal -6.93889390390723e-017 0.0 1.0
outer loop
vertex -95.0355675564261 517.394704403633 100.0
vertex -95.0931994190807 522.053090728889 100.0
vertex -95.3710275849769 519.720103876931 100.0
endloop
endfacet
facet normal -6.93889390390723e-017 0.0 1.0
outer loop
vertex -95.0931994190807 522.053090728889 100.0
vertex -95.0355675564261 517.394704403633 100.0
vertex -94.2210165891108 524.234675760987 100.0
endloop
endfacet
facet normal -6.93889390390723e-017 0.0 1.0
outer loop
vertex -94.2210165891108 524.234675760987 100.0
vertex -95.0355675564261 517.394704403633 100.0
vertex -94.1096803800004 515.235364440195 100.0
endloop
endfacet
facet normal -6.93889390390723e-017 0.0 1.0
outer loop
vertex -94.2210165891108 524.234675760987 100.0
vertex -94.1096803800004 515.235364440195 100.0
vertex -92.8139169135792 526.116187558529 100.0
endloop
endfacet
facet normal -6.93889390390723e-017 0.0 1.0
outer loop
vertex -92.8139169135792 526.116187558529 100.0
vertex -94.1096803800004 515.235364440195 100.0
vertex -92.6564637366721 513.389239436647 100.0
endloop
endfacet
facet normal -6.93889390390723e-017 0.0 1.0
outer loop
vertex -92.8139169135792 526.116187558529 100.0
vertex -92.6564637366721 513.389239436647 100.0
vertex -90.9677919100314 527.569404201858 100.0
endloop
endfacet
facet normal -6.93889390390723e-017 0.0 1.0
outer loop
vertex -90.9677919100314 527.569404201858 100.0
vertex -92.6564637366721 513.389239436647 100.0
vertex -90.77495193913 511.982139761116 100.0
endloop
endfacet
facet normal -6.93889390390723e-017 0.0 1.0
outer loop
vertex -90.9677919100314 527.569404201858 100.0
vertex -90.77495193913 511.982139761116 100.0
vertex -88.8084519465932 528.495291378283 100.0
endloop
endfacet
facet normal -6.93889390390723e-017 0.0 1.0
outer loop
vertex -88.8084519465932 528.495291378283 100.0
vertex -90.77495193913 511.982139761116 100.0
vertex -88.5933669070314 511.109956931146 100.0
endloop
endfacet
facet normal -6.93889390390723e-017 0.0 1.0
outer loop
vertex -88.8084519465932 528.495291378283 100.0
vertex -88.5933669070314 511.109956931146 100.0
vertex -86.4830524732949 528.830751406834 100.0
endloop
endfacet
facet normal -6.93889390390723e-017 0.0 1.0
outer loop
vertex -86.4830524732949 528.830751406834 100.0
vertex -88.5933669070314 511.109956931146 100.0
vertex -86.2603800550741 510.83212876525 100.0
endloop
endfacet
facet normal -6.93889390390723e-017 0.0 1.0
outer loop
vertex -86.4830524732949 528.830751406834 100.0
vertex -86.2603800550741 510.83212876525 100.0
vertex -84.1500656213376 528.552923240938 100.0
endloop
endfacet
facet normal -6.93889390390723e-017 0.0 1.0
outer loop
vertex -84.1500656213376 528.552923240938 100.0
vertex -86.2603800550741 510.83212876525 100.0
vertex -83.9349805817759 511.1675887938 100.0
endloop
endfacet
facet normal -6.93889390390723e-017 0.0 1.0
outer loop
vertex -84.1500656213376 528.552923240938 100.0
vertex -83.9349805817759 511.1675887938 100.0
vertex -81.9684805892391 527.680740410968 100.0
endloop
endfacet
facet normal -6.93889390390723e-017 0.0 1.0
outer loop
vertex -81.9684805892391 527.680740410968 100.0
vertex -83.9349805817759 511.1675887938 100.0
vertex -81.7756406183377 512.093475970226 100.0
endloop
endfacet
facet normal -6.93889390390723e-017 0.0 1.0
outer loop
vertex -81.9684805892391 527.680740410968 100.0
vertex -81.7756406183377 512.093475970226 100.0
vertex -80.086968791697 526.273640735437 100.0
endloop
endfacet
facet normal -6.93889390390723e-017 0.0 1.0
outer loop
vertex -80.086968791697 526.273640735437 100.0
vertex -81.7756406183377 512.093475970226 100.0
vertex -79.9295156147898 513.546692613554 100.0
endloop
endfacet
facet normal -6.93889390390723e-017 0.0 1.0
outer loop
vertex -80.086968791697 526.273640735437 100.0
vertex -79.9295156147898 513.546692613554 100.0
vertex -78.6337521483687 524.427515731889 100.0
endloop
endfacet
facet normal -6.93889390390723e-017 0.0 1.0
outer loop
vertex -78.6337521483687 524.427515731889 100.0
vertex -79.9295156147898 513.546692613554 100.0
vertex -78.5224159392583 515.428204411096 100.0
endloop
endfacet
facet normal -6.93889390390723e-017 0.0 1.0
outer loop
vertex -78.6337521483687 524.427515731889 100.0
vertex -78.5224159392583 515.428204411096 100.0
vertex -77.707864971943 522.268175768451 100.0
endloop
endfacet
facet normal -6.93889390390723e-017 0.0 1.0
outer loop
vertex -77.707864971943 522.268175768451 100.0
vertex -78.5224159392583 515.428204411096 100.0
vertex -77.6502331092884 517.609789443195 100.0
endloop
endfacet
facet normal -6.93889390390723e-017 0.0 1.0
outer loop
vertex -77.707864971943 522.268175768451 100.0
vertex -77.6502331092884 517.609789443195 100.0
vertex -77.3724049433922 519.942776295152 100.0
endloop
endfacet
facet normal -0.0118489719536503 0.95775299243813 -0.287347885566346
outer loop
vertex -86.483052473295 528.830751406834 9.99999999999998
vertex -84.5203407284788 527.099342715122 4.99999999999999
vertex -86.4644964384432 527.330866186702 4.99999999999999
endloop
endfacet
facet normal 0.236439486921914 0.928185090208118 -0.287347885566346
outer loop
vertex -84.5203407284788 527.099342715122 4.99999999999999
vertex -86.483052473295 528.830751406834 9.99999999999998
vertex -84.1500656213376 528.552923240938 9.99999999999998
endloop
endfacet
facet normal -0.928185090208118 0.236439486921913 -0.287347885566349
outer loop
vertex -95.0931994190807 522.053090728889 9.99999999999998
vertex -93.8711423648448 519.738659911783 4.99999999999999
vertex -95.3710275849769 519.720103876931 9.99999999999998
endloop
endfacet
facet normal -0.957752992438129 -0.011848971953648 -0.287347885566348
outer loop
vertex -93.8711423648448 519.738659911783 4.99999999999999
vertex -95.0931994190807 522.053090728889 9.99999999999998
vertex -93.6396188932647 521.682815621748 4.99999999999999
endloop
endfacet
facet normal 0.835362907978811 -0.468614985498472 -0.287347885566347
outer loop
vertex -79.8306326600793 516.162077023587 4.99999999999999
vertex -77.6502331092884 517.609789443195 9.99999999999998
vertex -78.5224159392583 515.428204411096 9.99999999999998
endloop
endfacet
facet normal 0.928185090208118 -0.236439486921913 -0.287347885566348
outer loop
vertex -77.6502331092884 517.609789443195 9.99999999999998
vertex -79.8306326600793 516.162077023587 4.99999999999999
vertex -79.1038136351044 517.980064550336 4.99999999999999
endloop
endfacet
facet normal -0.95775299243813 -0.0118489719536471 0.287347885566346
outer loop
vertex -93.8711423648448 519.738659911783 4.99999999999999
vertex -95.0931994190807 522.053090728889 0.0
vertex -95.3710275849769 519.720103876931 0.0
endloop
endfacet
facet normal -0.928185090208118 0.236439486921912 0.287347885566347
outer loop
vertex -95.0931994190807 522.053090728889 0.0
vertex -93.8711423648448 519.738659911783 4.99999999999999
vertex -93.6396188932647 521.682815621748 4.99999999999999
endloop
endfacet
facet normal 0.685612124073224 -0.668855147236195 -0.287347885566346
outer loop
vertex -81.0032157230223 514.594150525636 4.99999999999999
vertex -78.5224159392583 515.428204411096 9.99999999999998
vertex -79.9295156147898 513.546692613554 9.99999999999998
endloop
endfacet
facet normal 0.835362907978812 -0.468614985498472 -0.287347885566347
outer loop
vertex -78.5224159392583 515.428204411096 9.99999999999998
vertex -81.0032157230223 514.594150525636 4.99999999999999
vertex -79.8306326600793 516.162077023587 4.99999999999999
endloop
endfacet
facet normal 0.259329942971923 -0.922051610995138 -0.287347885566347
outer loop
vertex -83.9349805817759 511.1675887938 9.99999999999998
vertex -86.2789360899258 512.332013985382 4.99999999999999
vertex -84.3411031955107 512.611564009174 4.99999999999999
endloop
endfacet
facet normal 0.0118489719536512 -0.957752992438129 -0.287347885566347
outer loop
vertex -86.2789360899258 512.332013985382 4.99999999999999
vertex -83.9349805817759 511.1675887938 9.99999999999998
vertex -86.2603800550741 510.83212876525 9.99999999999998
endloop
endfacet
facet normal 0.0 2.35621065561291e-032 1.0
outer loop
vertex -93.5915923410525 517.800827017368 4.99999999999999
vertex -93.6396188932647 521.682815621748 4.99999999999999
vertex -93.8711423648448 519.738659911783 4.99999999999999
endloop
endfacet
facet normal 0.0 2.35621065561291e-032 1.0
outer loop
vertex -93.6396188932647 521.682815621748 4.99999999999999
vertex -93.5915923410525 517.800827017368 4.99999999999999
vertex -92.9127998682898 523.500803148496 4.99999999999999
endloop
endfacet
facet normal 0.0 2.35621065561291e-032 1.0
outer loop
vertex -92.9127998682898 523.500803148496 4.99999999999999
vertex -93.5915923410525 517.800827017368 4.99999999999999
vertex -92.8200196940311 516.001377047836 4.99999999999999
endloop
endfacet
facet normal 0.0 2.35621065561291e-032 1.0
outer loop
vertex -92.9127998682898 523.500803148496 4.99999999999999
vertex -92.8200196940311 516.001377047836 4.99999999999999
vertex -91.7402168053468 525.068729646448 4.99999999999999
endloop
endfacet
facet normal 0.0 2.35621065561291e-032 1.0
outer loop
vertex -91.7402168053468 525.068729646448 4.99999999999999
vertex -92.8200196940311 516.001377047836 4.99999999999999
vertex -91.6090058245908 514.46293954488 4.99999999999999
endloop
endfacet
facet normal 0.0 2.35621065561291e-032 1.0
outer loop
vertex -91.7402168053468 525.068729646448 4.99999999999999
vertex -91.6090058245908 514.46293954488 4.99999999999999
vertex -90.2017793023903 526.279743515888 4.99999999999999
endloop
endfacet
facet normal 0.0 2.35621065561291e-032 1.0
outer loop
vertex -90.2017793023903 526.279743515888 4.99999999999999
vertex -91.6090058245908 514.46293954488 4.99999999999999
vertex -90.0410793266391 513.290356481937 4.99999999999999
endloop
endfacet
facet normal 0.0 2.35621065561291e-032 1.0
outer loop
vertex -90.2017793023903 526.279743515888 4.99999999999999
vertex -90.0410793266391 513.290356481937 4.99999999999999
vertex -88.4023293328584 527.05131616291 4.99999999999999
endloop
endfacet
facet normal 0.0 2.35621065561291e-032 1.0
outer loop
vertex -88.4023293328584 527.05131616291 4.99999999999999
vertex -90.0410793266391 513.290356481937 4.99999999999999
vertex -88.2230917998903 512.563537456962 4.99999999999999
endloop
endfacet
facet normal 0.0 2.35621065561291e-032 1.0
outer loop
vertex -88.4023293328584 527.05131616291 4.99999999999999
vertex -88.2230917998903 512.563537456962 4.99999999999999
vertex -86.4644964384432 527.330866186702 4.99999999999999
endloop
endfacet
facet normal 0.0 2.35621065561291e-032 1.0
outer loop
vertex -86.4644964384432 527.330866186702 4.99999999999999
vertex -88.2230917998903 512.563537456962 4.99999999999999
vertex -86.2789360899258 512.332013985382 4.99999999999999
endloop
endfacet
facet normal 0.0 2.35621065561291e-032 1.0
outer loop
vertex -86.4644964384432 527.330866186702 4.99999999999999
vertex -86.2789360899258 512.332013985382 4.99999999999999
vertex -84.5203407284788 527.099342715122 4.99999999999999
endloop
endfacet
facet normal 0.0 2.35621065561291e-032 1.0
outer loop
vertex -84.5203407284788 527.099342715122 4.99999999999999
vertex -86.2789360899258 512.332013985382 4.99999999999999
vertex -84.3411031955107 512.611564009174 4.99999999999999
endloop
endfacet
facet normal 0.0 2.35621065561291e-032 1.0
outer loop
vertex -84.5203407284788 527.099342715122 4.99999999999999
vertex -84.3411031955107 512.611564009174 4.99999999999999
vertex -82.70235320173 526.372523690147 4.99999999999999
endloop
endfacet
facet normal 0.0 2.35621065561291e-032 1.0
outer loop
vertex -82.70235320173 526.372523690147 4.99999999999999
vertex -84.3411031955107 512.611564009174 4.99999999999999
vertex -82.5416532259788 513.383136656195 4.99999999999999
endloop
endfacet
facet normal 0.0 2.35621065561291e-032 1.0
outer loop
vertex -82.70235320173 526.372523690147 4.99999999999999
vertex -82.5416532259788 513.383136656195 4.99999999999999
vertex -81.1344267037783 525.199940627204 4.99999999999999
endloop
endfacet
facet normal 0.0 2.35621065561291e-032 1.0
outer loop
vertex -81.1344267037783 525.199940627204 4.99999999999999
vertex -82.5416532259788 513.383136656195 4.99999999999999
vertex -81.0032157230223 514.594150525636 4.99999999999999
endloop
endfacet
facet normal 0.0 2.35621065561291e-032 1.0
outer loop
vertex -81.1344267037783 525.199940627204 4.99999999999999
vertex -81.0032157230223 514.594150525636 4.99999999999999
vertex -79.923412834338 523.661503124247 4.99999999999999
endloop
endfacet
facet normal 0.0 2.35621065561291e-032 1.0
outer loop
vertex -79.923412834338 523.661503124247 4.99999999999999
vertex -81.0032157230223 514.594150525636 4.99999999999999
vertex -79.8306326600793 516.162077023587 4.99999999999999
endloop
endfacet
facet normal 0.0 2.35621065561291e-032 1.0
outer loop
vertex -79.923412834338 523.661503124247 4.99999999999999
vertex -79.8306326600793 516.162077023587 4.99999999999999
vertex -79.1518401873165 521.862053154716 4.99999999999999
endloop
endfacet
facet normal 0.0 2.35621065561291e-032 1.0
outer loop
vertex -79.1518401873165 521.862053154716 4.99999999999999
vertex -79.8306326600793 516.162077023587 4.99999999999999
vertex -79.1038136351044 517.980064550336 4.99999999999999
endloop
endfacet
facet normal 0.0 2.35621065561291e-032 1.0
outer loop
vertex -79.1518401873165 521.862053154716 4.99999999999999
vertex -79.1038136351044 517.980064550336 4.99999999999999
vertex -78.8722901635243 519.9242202603 4.99999999999999
endloop
endfacet
facet normal 0.236439486921914 0.928185090208118 -0.287347885566346
outer loop
vertex -84.1500656213376 528.552923240938 9.99999999999998
vertex -82.70235320173 526.372523690147 4.99999999999999
vertex -84.5203407284788 527.099342715122 4.99999999999999
endloop
endfacet
facet normal 0.468614985498476 0.83536290797881 -0.287347885566346
outer loop
vertex -82.70235320173 526.372523690147 4.99999999999999
vertex -84.1500656213376 528.552923240938 9.99999999999998
vertex -81.9684805892391 527.680740410968 9.99999999999998
endloop
endfacet
facet normal -0.685612124073225 0.668855147236194 -0.287347885566347
outer loop
vertex -92.8139169135793 526.116187558529 9.99999999999998
vertex -90.2017793023903 526.279743515888 4.99999999999999
vertex -91.7402168053468 525.068729646448 4.99999999999999
endloop
endfacet
facet normal -0.489138006939655 0.823513936025161 -0.287347885566346
outer loop
vertex -90.2017793023903 526.279743515888 4.99999999999999
vertex -92.8139169135793 526.116187558529 9.99999999999998
vertex -90.9677919100314 527.569404201858 9.99999999999998
endloop
endfacet
facet normal -0.0118489719536497 0.95775299243813 0.287347885566346
outer loop
vertex -86.4644964384432 527.330866186702 4.99999999999999
vertex -84.1500656213377 528.552923240938 0.0
vertex -86.483052473295 528.830751406834 0.0
endloop
endfacet
facet normal 0.236439486921912 0.928185090208119 0.287347885566346
outer loop
vertex -84.1500656213377 528.552923240938 0.0
vertex -86.4644964384432 527.330866186702 4.99999999999999
vertex -84.5203407284788 527.099342715122 4.99999999999999
endloop
endfacet
facet normal -0.928185090208118 0.236439486921913 -0.287347885566349
outer loop
vertex -95.0931994190807 522.053090728889 9.99999999999998
vertex -92.9127998682898 523.500803148496 4.99999999999999
vertex -93.6396188932647 521.682815621748 4.99999999999999
endloop
endfacet
facet normal -0.835362907978812 0.468614985498471 -0.287347885566348
outer loop
vertex -92.9127998682898 523.500803148496 4.99999999999999
vertex -95.0931994190807 522.053090728889 9.99999999999998
vertex -94.2210165891108 524.234675760987 9.99999999999998
endloop
endfacet
facet normal 0.668855147236195 0.685612124073224 -0.287347885566347
outer loop
vertex -81.1344267037783 525.199940627204 4.99999999999999
vertex -78.6337521483687 524.427515731889 9.99999999999998
vertex -79.923412834338 523.661503124247 4.99999999999999
endloop
endfacet
facet normal 0.82351393602516 0.489138006939654 -0.287347885566347
outer loop
vertex -78.6337521483687 524.427515731889 9.99999999999998
vertex -81.1344267037783 525.199940627204 4.99999999999999
vertex -80.086968791697 526.273640735437 9.99999999999998
endloop
endfacet
facet normal -0.957752992438129 -0.0118489719536484 -0.287347885566348
outer loop
vertex -95.3710275849769 519.720103876931 9.99999999999998
vertex -93.5915923410525 517.800827017368 4.99999999999999
vertex -95.0355675564261 517.394704403633 9.99999999999998
endloop
endfacet
facet normal -0.922051610995137 -0.259329942971924 -0.287347885566347
outer loop
vertex -93.5915923410525 517.800827017368 4.99999999999999
vertex -95.3710275849769 519.720103876931 9.99999999999998
vertex -93.8711423648448 519.738659911783 4.99999999999999
endloop
endfacet
facet normal -0.489138006939655 0.823513936025161 -0.287347885566346
outer loop
vertex -90.9677919100314 527.569404201858 9.99999999999998
vertex -88.4023293328584 527.05131616291 4.99999999999999
vertex -90.2017793023903 526.279743515888 4.99999999999999
endloop
endfacet
facet normal -0.259329942971925 0.922051610995137 -0.287347885566346
outer loop
vertex -88.4023293328584 527.05131616291 4.99999999999999
vertex -90.9677919100314 527.569404201858 9.99999999999998
vertex -88.8084519465932 528.495291378283 9.99999999999998
endloop
endfacet
facet normal -0.922051610995138 -0.259329942971924 -0.287347885566347
outer loop
vertex -95.0355675564261 517.394704403633 9.99999999999998
vertex -92.8200196940311 516.001377047836 4.99999999999999
vertex -94.1096803800004 515.235364440195 9.99999999999998
endloop
endfacet
facet normal -0.823513936025161 -0.489138006939653 -0.287347885566347
outer loop
vertex -92.8200196940311 516.001377047836 4.99999999999999
vertex -95.0355675564261 517.394704403633 9.99999999999998
vertex -93.5915923410525 517.800827017368 4.99999999999999
endloop
endfacet
facet normal 0.468614985498474 0.835362907978811 -0.287347885566346
outer loop
vertex -81.9684805892391 527.680740410968 9.99999999999998
vertex -81.1344267037783 525.199940627204 4.99999999999999
vertex -82.70235320173 526.372523690147 4.99999999999999
endloop
endfacet
facet normal 0.668855147236195 0.685612124073224 -0.287347885566347
outer loop
vertex -81.1344267037783 525.199940627204 4.99999999999999
vertex -81.9684805892391 527.680740410968 9.99999999999998
vertex -80.086968791697 526.273640735437 9.99999999999998
endloop
endfacet
facet normal 0.0118489719536494 -0.957752992438129 -0.287347885566347
outer loop
vertex -86.2603800550741 510.83212876525 9.99999999999998
vertex -88.2230917998903 512.563537456962 4.99999999999999
vertex -86.2789360899258 512.332013985382 4.99999999999999
endloop
endfacet
facet normal -0.236439486921915 -0.928185090208117 -0.287347885566347
outer loop
vertex -88.2230917998903 512.563537456962 4.99999999999999
vertex -86.2603800550741 510.83212876525 9.99999999999998
vertex -88.5933669070315 511.109956931146 9.99999999999998
endloop
endfacet
facet normal -0.236439486921916 -0.928185090208117 -0.287347885566347
outer loop
vertex -88.5933669070315 511.109956931146 9.99999999999998
vertex -90.0410793266391 513.290356481937 4.99999999999999
vertex -88.2230917998903 512.563537456962 4.99999999999999
endloop
endfacet
facet normal -0.468614985498473 -0.835362907978811 -0.287347885566347
outer loop
vertex -90.0410793266391 513.290356481937 4.99999999999999
vertex -88.5933669070315 511.109956931146 9.99999999999998
vertex -90.77495193913 511.982139761116 9.99999999999998
endloop
endfacet
facet normal -0.489138006939655 0.82351393602516 0.287347885566347
outer loop
vertex -90.2017793023903 526.279743515888 4.99999999999999
vertex -88.8084519465932 528.495291378283 0.0
vertex -90.9677919100314 527.569404201858 0.0
endloop
endfacet
facet normal -0.259329942971924 0.922051610995138 0.287347885566346
outer loop
vertex -88.8084519465932 528.495291378283 0.0
vertex -90.2017793023903 526.279743515888 4.99999999999999
vertex -88.4023293328584 527.05131616291 4.99999999999999
endloop
endfacet
facet normal -0.922051610995138 -0.259329942971925 0.287347885566346
outer loop
vertex -93.5915923410525 517.800827017368 4.99999999999999
vertex -95.3710275849769 519.720103876931 0.0
vertex -95.0355675564261 517.394704403633 0.0
endloop
endfacet
facet normal -0.95775299243813 -0.0118489719536501 0.287347885566346
outer loop
vertex -95.3710275849769 519.720103876931 0.0
vertex -93.5915923410525 517.800827017368 4.99999999999999
vertex -93.8711423648448 519.738659911783 4.99999999999999
endloop
endfacet
facet normal -0.823513936025161 -0.489138006939654 -0.287347885566347
outer loop
vertex -94.1096803800004 515.235364440195 9.99999999999998
vertex -91.6090058245908 514.46293954488 4.99999999999999
vertex -92.6564637366721 513.389239436647 9.99999999999998
endloop
endfacet
facet normal -0.668855147236191 -0.685612124073228 -0.287347885566347
outer loop
vertex -91.6090058245908 514.46293954488 4.99999999999999
vertex -94.1096803800004 515.235364440195 9.99999999999998
vertex -92.8200196940311 516.001377047836 4.99999999999999
endloop
endfacet
facet normal 0.685612124073225 -0.668855147236194 -0.287347885566346
outer loop
vertex -79.9295156147898 513.546692613554 9.99999999999998
vertex -82.5416532259788 513.383136656195 4.99999999999999
vertex -81.0032157230223 514.594150525636 4.99999999999999
endloop
endfacet
facet normal 0.489138006939654 -0.823513936025161 -0.287347885566346
outer loop
vertex -82.5416532259788 513.383136656195 4.99999999999999
vertex -79.9295156147898 513.546692613554 9.99999999999998
vertex -81.7756406183377 512.093475970226 9.99999999999998
endloop
endfacet
facet normal 0.922051610995138 0.259329942971923 -0.287347885566347
outer loop
vertex -79.1518401873165 521.862053154716 4.99999999999999
vertex -77.3724049433922 519.942776295152 9.99999999999998
vertex -78.8722901635243 519.9242202603 4.99999999999999
endloop
endfacet
facet normal 0.957752992438129 0.0118489719536482 -0.287347885566348
outer loop
vertex -77.3724049433922 519.942776295152 9.99999999999998
vertex -79.1518401873165 521.862053154716 4.99999999999999
vertex -77.7078649719429 522.268175768451 9.99999999999998
endloop
endfacet
facet normal -0.468614985498474 -0.835362907978811 -0.287347885566347
outer loop
vertex -90.77495193913 511.982139761116 9.99999999999998
vertex -91.6090058245908 514.46293954488 4.99999999999999
vertex -90.0410793266391 513.290356481937 4.99999999999999
endloop
endfacet
facet normal -0.668855147236191 -0.685612124073228 -0.287347885566347
outer loop
vertex -91.6090058245908 514.46293954488 4.99999999999999
vertex -90.77495193913 511.982139761116 9.99999999999998
vertex -92.6564637366721 513.389239436647 9.99999999999998
endloop
endfacet
facet normal 0.922051610995137 0.259329942971926 0.287347885566347
outer loop
vertex -77.7078649719429 522.268175768451 0.0
vertex -79.923412834338 523.661503124247 4.99999999999999
vertex -79.1518401873165 521.862053154716 4.99999999999999
endloop
endfacet
facet normal 0.823513936025161 0.489138006939653 0.287347885566346
outer loop
vertex -79.923412834338 523.661503124247 4.99999999999999
vertex -77.7078649719429 522.268175768451 0.0
vertex -78.6337521483687 524.427515731889 0.0
endloop
endfacet
facet normal -0.468614985498473 -0.835362907978811 0.287347885566347
outer loop
vertex -90.0410793266391 513.290356481937 4.99999999999999
vertex -92.6564637366721 513.389239436647 0.0
vertex -90.77495193913 511.982139761116 0.0
endloop
endfacet
facet normal -0.668855147236194 -0.685612124073225 0.287347885566346
outer loop
vertex -92.6564637366721 513.389239436647 0.0
vertex -90.0410793266391 513.290356481937 4.99999999999999
vertex -91.6090058245908 514.46293954488 4.99999999999999
endloop
endfacet
facet normal 0.957752992438129 0.0118489719536481 0.287347885566348
outer loop
vertex -77.3724049433922 519.942776295152 0.0
vertex -79.1518401873165 521.862053154716 4.99999999999999
vertex -78.8722901635243 519.9242202603 4.99999999999999
endloop
endfacet
facet normal 0.922051610995138 0.259329942971924 0.287347885566347
outer loop
vertex -79.1518401873165 521.862053154716 4.99999999999999
vertex -77.3724049433922 519.942776295152 0.0
vertex -77.7078649719429 522.268175768451 0.0
endloop
endfacet
facet normal 0.835362907978812 -0.468614985498472 0.287347885566347
outer loop
vertex -78.5224159392583 515.428204411096 0.0
vertex -81.0032157230223 514.594150525636 4.99999999999999
vertex -79.9295156147898 513.546692613554 0.0
endloop
endfacet
facet normal 0.685612124073226 -0.668855147236193 0.287347885566347
outer loop
vertex -81.0032157230223 514.594150525636 4.99999999999999
vertex -78.5224159392583 515.428204411096 0.0
vertex -79.8306326600793 516.162077023587 4.99999999999999
endloop
endfacet
facet normal -0.259329942971924 0.922051610995138 0.287347885566346
outer loop
vertex -88.4023293328584 527.05131616291 4.99999999999999
vertex -86.483052473295 528.830751406834 0.0
vertex -88.8084519465932 528.495291378283 0.0
endloop
endfacet
facet normal -0.011848971953649 0.95775299243813 0.287347885566346
outer loop
vertex -86.483052473295 528.830751406834 0.0
vertex -88.4023293328584 527.05131616291 4.99999999999999
vertex -86.4644964384432 527.330866186702 4.99999999999999
endloop
endfacet
facet normal -0.236439486921913 -0.928185090208118 0.287347885566347
outer loop
vertex -88.2230917998903 512.563537456962 4.99999999999999
vertex -90.77495193913 511.982139761116 0.0
vertex -88.5933669070314 511.109956931146 0.0
endloop
endfacet
facet normal -0.468614985498473 -0.835362907978811 0.287347885566347
outer loop
vertex -90.77495193913 511.982139761116 0.0
vertex -88.2230917998903 512.563537456962 4.99999999999999
vertex -90.0410793266391 513.290356481937 4.99999999999999
endloop
endfacet
facet normal 0.957752992438129 0.0118489719536481 0.287347885566348
outer loop
vertex -77.3724049433922 519.942776295152 0.0
vertex -79.1038136351044 517.980064550336 4.99999999999999
vertex -77.6502331092884 517.609789443195 0.0
endloop
endfacet
facet normal 0.928185090208117 -0.236439486921916 0.287347885566348
outer loop
vertex -79.1038136351044 517.980064550336 4.99999999999999
vertex -77.3724049433922 519.942776295152 0.0
vertex -78.8722901635243 519.9242202603 4.99999999999999
endloop
endfacet
facet normal 0.236439486921917 0.928185090208118 -0.287347885566345
outer loop
vertex -84.1500656213376 528.552923240938 100.0
vertex -82.70235320173 526.372523690147 95.0
vertex -84.5203407284788 527.099342715122 95.0
endloop
endfacet
facet normal 0.468614985498473 0.835362907978811 -0.287347885566346
outer loop
vertex -82.70235320173 526.372523690147 95.0
vertex -84.1500656213376 528.552923240938 100.0
vertex -81.9684805892391 527.680740410968 100.0
endloop
endfacet
facet normal 0.685612124073228 -0.668855147236191 -0.287347885566346
outer loop
vertex -79.9295156147898 513.546692613554 100.0
vertex -82.5416532259788 513.383136656195 95.0
vertex -81.0032157230223 514.594150525636 95.0
endloop
endfacet
facet normal 0.489138006939656 -0.82351393602516 -0.287347885566347
outer loop
vertex -82.5416532259788 513.383136656195 95.0
vertex -79.9295156147898 513.546692613554 100.0
vertex -81.7756406183377 512.093475970226 100.0
endloop
endfacet
facet normal -0.685612124073227 0.668855147236192 -0.287347885566345
outer loop
vertex -92.8139169135792 526.116187558529 100.0
vertex -90.2017793023903 526.279743515888 95.0
vertex -91.7402168053468 525.068729646448 95.0
endloop
endfacet
facet normal -0.489138006939657 0.823513936025159 -0.287347885566347
outer loop
vertex -90.2017793023903 526.279743515888 95.0
vertex -92.8139169135792 526.116187558529 100.0
vertex -90.9677919100314 527.569404201858 100.0
endloop
endfacet
facet normal 0.489138006939656 -0.82351393602516 -0.287347885566347
outer loop
vertex -82.5416532259788 513.383136656195 95.0
vertex -83.9349805817759 511.1675887938 100.0
vertex -84.3411031955107 512.611564009174 95.0
endloop
endfacet
facet normal 0.259329942971923 -0.922051610995138 -0.287347885566348
outer loop
vertex -83.9349805817759 511.1675887938 100.0
vertex -82.5416532259788 513.383136656195 95.0
vertex -81.7756406183377 512.093475970226 100.0
endloop
endfacet
facet normal 0.823513936025163 0.489138006939651 -0.287347885566347
outer loop
vertex -79.923412834338 523.661503124247 95.0
vertex -77.707864971943 522.268175768451 100.0
vertex -79.1518401873165 521.862053154716 95.0
endloop
endfacet
facet normal 0.922051610995138 0.259329942971924 -0.287347885566345
outer loop
vertex -77.707864971943 522.268175768451 100.0
vertex -79.923412834338 523.661503124247 95.0
vertex -78.6337521483687 524.427515731889 100.0
endloop
endfacet
facet normal -0.835362907978812 0.468614985498472 0.287347885566347
outer loop
vertex -92.9127998682898 523.500803148496 4.99999999999999
vertex -95.0931994190807 522.053090728889 0.0
vertex -93.6396188932647 521.682815621748 4.99999999999999
endloop
endfacet
facet normal -0.928185090208118 0.236439486921912 0.287347885566347
outer loop
vertex -95.0931994190807 522.053090728889 0.0
vertex -92.9127998682898 523.500803148496 4.99999999999999
vertex -94.2210165891108 524.234675760987 0.0
endloop
endfacet
facet normal 0.236439486921912 0.928185090208118 0.287347885566346
outer loop
vertex -84.5203407284788 527.099342715122 4.99999999999999
vertex -81.9684805892391 527.680740410968 0.0
vertex -84.1500656213377 528.552923240938 0.0
endloop
endfacet
facet normal 0.468614985498473 0.835362907978811 0.287347885566347
outer loop
vertex -81.9684805892391 527.680740410968 0.0
vertex -84.5203407284788 527.099342715122 4.99999999999999
vertex -82.70235320173 526.372523690147 4.99999999999999
endloop
endfacet
facet normal -0.823513936025161 -0.489138006939655 0.287347885566345
outer loop
vertex -92.8200196940311 516.001377047836 4.99999999999999
vertex -95.0355675564261 517.394704403633 0.0
vertex -94.1096803800004 515.235364440195 0.0
endloop
endfacet
facet normal -0.922051610995138 -0.259329942971924 0.287347885566346
outer loop
vertex -95.0355675564261 517.394704403633 0.0
vertex -92.8200196940311 516.001377047836 4.99999999999999
vertex -93.5915923410525 517.800827017368 4.99999999999999
endloop
endfacet
facet normal -0.668855147236194 -0.685612124073225 0.287347885566346
outer loop
vertex -91.6090058245908 514.46293954488 4.99999999999999
vertex -94.1096803800004 515.235364440195 0.0
vertex -92.6564637366721 513.389239436647 0.0
endloop
endfacet
facet normal -0.82351393602516 -0.489138006939657 0.287347885566345
outer loop
vertex -94.1096803800004 515.235364440195 0.0
vertex -91.6090058245908 514.46293954488 4.99999999999999
vertex -92.8200196940311 516.001377047836 4.99999999999999
endloop
endfacet
facet normal 0.823513936025161 0.489138006939654 0.287347885566346
outer loop
vertex -78.6337521483687 524.427515731889 0.0
vertex -81.1344267037783 525.199940627204 4.99999999999999
vertex -79.923412834338 523.661503124247 4.99999999999999
endloop
endfacet
facet normal 0.668855147236197 0.685612124073222 0.287347885566347
outer loop
vertex -81.1344267037783 525.199940627204 4.99999999999999
vertex -78.6337521483687 524.427515731889 0.0
vertex -80.086968791697 526.273640735437 0.0
endloop
endfacet
facet normal -0.835362907978812 0.468614985498473 -0.287347885566346
outer loop
vertex -94.2210165891108 524.234675760987 100.0
vertex -91.7402168053468 525.068729646448 95.0
vertex -92.9127998682898 523.500803148496 95.0
endloop
endfacet
facet normal -0.685612124073228 0.668855147236192 -0.287347885566345
outer loop
vertex -91.7402168053468 525.068729646448 95.0
vertex -94.2210165891108 524.234675760987 100.0
vertex -92.8139169135792 526.116187558529 100.0
endloop
endfacet
facet normal -0.259329942971923 0.922051610995138 -0.287347885566346
outer loop
vertex -88.8084519465932 528.495291378283 100.0
vertex -86.4644964384432 527.330866186702 95.0
vertex -88.4023293328584 527.05131616291 95.0
endloop
endfacet
facet normal -0.0118489719536482 0.95775299243813 -0.287347885566345
outer loop
vertex -86.4644964384432 527.330866186702 95.0
vertex -88.8084519465932 528.495291378283 100.0
vertex -86.4830524732949 528.830751406834 100.0
endloop
endfacet
facet normal 0.468614985498475 0.83536290797881 0.287347885566347
outer loop
vertex -82.70235320173 526.372523690147 4.99999999999999
vertex -80.086968791697 526.273640735437 0.0
vertex -81.9684805892391 527.680740410968 0.0
endloop
endfacet
facet normal 0.668855147236197 0.685612124073222 0.287347885566347
outer loop
vertex -80.086968791697 526.273640735437 0.0
vertex -82.70235320173 526.372523690147 4.99999999999999
vertex -81.1344267037783 525.199940627204 4.99999999999999
endloop
endfacet
facet normal 0.259329942971923 -0.922051610995138 -0.287347885566348
outer loop
vertex -83.9349805817759 511.1675887938 100.0
vertex -86.2789360899258 512.332013985382 95.0
vertex -84.3411031955107 512.611564009174 95.0
endloop
endfacet
facet normal 0.0118489719536512 -0.957752992438129 -0.287347885566347
outer loop
vertex -86.2789360899258 512.332013985382 95.0
vertex -83.9349805817759 511.1675887938 100.0
vertex -86.2603800550741 510.83212876525 100.0
endloop
endfacet
facet normal 0.489138006939654 -0.82351393602516 0.287347885566348
outer loop
vertex -82.5416532259788 513.383136656195 4.99999999999999
vertex -83.9349805817759 511.1675887938 0.0
vertex -81.7756406183377 512.093475970226 0.0
endloop
endfacet
facet normal 0.259329942971924 -0.922051610995137 0.287347885566347
outer loop
vertex -83.9349805817759 511.1675887938 0.0
vertex -82.5416532259788 513.383136656195 4.99999999999999
vertex -84.3411031955107 512.611564009174 4.99999999999999
endloop
endfacet
facet normal 0.0118489719536525 -0.957752992438129 0.287347885566347
outer loop
vertex -86.2789360899258 512.332013985382 4.99999999999999
vertex -88.5933669070314 511.109956931146 0.0
vertex -86.2603800550741 510.83212876525 0.0
endloop
endfacet
facet normal -0.236439486921913 -0.928185090208118 0.287347885566347
outer loop
vertex -88.5933669070314 511.109956931146 0.0
vertex -86.2789360899258 512.332013985382 4.99999999999999
vertex -88.2230917998903 512.563537456962 4.99999999999999
endloop
endfacet
facet normal 0.928185090208118 -0.236439486921913 0.287347885566348
outer loop
vertex -77.6502331092884 517.609789443195 0.0
vertex -79.8306326600793 516.162077023587 4.99999999999999
vertex -78.5224159392583 515.428204411096 0.0
endloop
endfacet
facet normal 0.835362907978811 -0.468614985498473 0.287347885566347
outer loop
vertex -79.8306326600793 516.162077023587 4.99999999999999
vertex -77.6502331092884 517.609789443195 0.0
vertex -79.1038136351044 517.980064550336 4.99999999999999
endloop
endfacet
facet normal -0.685612124073227 0.668855147236192 0.287347885566347
outer loop
vertex -91.7402168053468 525.068729646448 4.99999999999999
vertex -94.2210165891108 524.234675760987 0.0
vertex -92.9127998682898 523.500803148496 4.99999999999999
endloop
endfacet
facet normal -0.835362907978812 0.468614985498472 0.287347885566347
outer loop
vertex -94.2210165891108 524.234675760987 0.0
vertex -91.7402168053468 525.068729646448 4.99999999999999
vertex -92.8139169135793 526.116187558529 0.0
endloop
endfacet
facet normal -0.236439486921914 -0.928185090208118 -0.287347885566347
outer loop
vertex -88.5933669070314 511.109956931146 100.0
vertex -90.0410793266391 513.290356481937 95.0
vertex -88.2230917998903 512.563537456962 95.0
endloop
endfacet
facet normal -0.468614985498472 -0.835362907978812 -0.287347885566347
outer loop
vertex -90.0410793266391 513.290356481937 95.0
vertex -88.5933669070314 511.109956931146 100.0
vertex -90.77495193913 511.982139761116 100.0
endloop
endfacet
facet normal 0.928185090208118 -0.236439486921914 -0.287347885566346
outer loop
vertex -79.1038136351044 517.980064550336 95.0
vertex -77.3724049433922 519.942776295152 100.0
vertex -77.6502331092884 517.609789443195 100.0
endloop
endfacet
facet normal 0.95775299243813 0.011848971953651 -0.287347885566345
outer loop
vertex -77.3724049433922 519.942776295152 100.0
vertex -79.1038136351044 517.980064550336 95.0
vertex -78.8722901635243 519.9242202603 95.0
endloop
endfacet
facet normal 0.685612124073226 -0.668855147236193 0.287347885566347
outer loop
vertex -81.0032157230223 514.594150525636 4.99999999999999
vertex -81.7756406183377 512.093475970226 0.0
vertex -79.9295156147898 513.546692613554 0.0
endloop
endfacet
facet normal 0.489138006939654 -0.823513936025161 0.287347885566348
outer loop
vertex -81.7756406183377 512.093475970226 0.0
vertex -81.0032157230223 514.594150525636 4.99999999999999
vertex -82.5416532259788 513.383136656195 4.99999999999999
endloop
endfacet
facet normal 0.259329942971924 -0.922051610995138 0.287347885566347
outer loop
vertex -84.3411031955107 512.611564009174 4.99999999999999
vertex -86.2603800550741 510.83212876525 0.0
vertex -83.9349805817759 511.1675887938 0.0
endloop
endfacet
facet normal 0.0118489719536521 -0.957752992438129 0.287347885566347
outer loop
vertex -86.2603800550741 510.83212876525 0.0
vertex -84.3411031955107 512.611564009174 4.99999999999999
vertex -86.2789360899258 512.332013985382 4.99999999999999
endloop
endfacet
facet normal -0.823513936025161 -0.489138006939654 -0.287347885566346
outer loop
vertex -94.1096803800004 515.235364440195 100.0
vertex -91.6090058245908 514.46293954488 95.0
vertex -92.6564637366721 513.389239436647 100.0
endloop
endfacet
facet normal -0.668855147236194 -0.685612124073224 -0.287347885566348
outer loop
vertex -91.6090058245908 514.46293954488 95.0
vertex -94.1096803800004 515.235364440195 100.0
vertex -92.820019694031 516.001377047836 95.0
endloop
endfacet
facet normal -0.685612124073227 0.668855147236192 0.287347885566347
outer loop
vertex -91.7402168053468 525.068729646448 4.99999999999999
vertex -90.9677919100314 527.569404201858 0.0
vertex -92.8139169135793 526.116187558529 0.0
endloop
endfacet
facet normal -0.489138006939656 0.82351393602516 0.287347885566347
outer loop
vertex -90.9677919100314 527.569404201858 0.0
vertex -91.7402168053468 525.068729646448 4.99999999999999
vertex -90.2017793023903 526.279743515888 4.99999999999999
endloop
endfacet
facet normal -0.922051610995138 -0.259329942971926 -0.287347885566345
outer loop
vertex -95.0355675564261 517.394704403633 100.0
vertex -92.820019694031 516.001377047836 95.0
vertex -94.1096803800004 515.235364440195 100.0
endloop
endfacet
facet normal -0.823513936025162 -0.489138006939653 -0.287347885566346
outer loop
vertex -92.820019694031 516.001377047836 95.0
vertex -95.0355675564261 517.394704403633 100.0
vertex -93.5915923410525 517.800827017368 95.0
endloop
endfacet
facet normal 0.823513936025162 0.489138006939655 0.287347885566343
outer loop
vertex -78.6337521483687 524.427515731889 90.0
vertex -81.1344267037783 525.199940627204 95.0
vertex -79.923412834338 523.661503124247 95.0
endloop
endfacet
facet normal 0.668855147236196 0.685612124073224 0.287347885566345
outer loop
vertex -81.1344267037783 525.199940627204 95.0
vertex -78.6337521483687 524.427515731889 90.0
vertex -80.086968791697 526.273640735437 90.0
endloop
endfacet
facet normal -0.928185090208118 0.236439486921912 -0.287347885566347
outer loop
vertex -95.0931994190807 522.053090728889 100.0
vertex -92.9127998682898 523.500803148496 95.0
vertex -93.6396188932647 521.682815621748 95.0
endloop
endfacet
facet normal -0.835362907978811 0.468614985498474 -0.287347885566346
outer loop
vertex -92.9127998682898 523.500803148496 95.0
vertex -95.0931994190807 522.053090728889 100.0
vertex -94.2210165891108 524.234675760987 100.0
endloop
endfacet
facet normal -0.489138006939657 0.823513936025159 -0.287347885566347
outer loop
vertex -90.9677919100314 527.569404201858 100.0
vertex -88.4023293328584 527.05131616291 95.0
vertex -90.2017793023903 526.279743515888 95.0
endloop
endfacet
facet normal -0.259329942971924 0.922051610995138 -0.287347885566346
outer loop
vertex -88.4023293328584 527.05131616291 95.0
vertex -90.9677919100314 527.569404201858 100.0
vertex -88.8084519465932 528.495291378283 100.0
endloop
endfacet
facet normal -0.95775299243813 -0.0118489719536525 -0.287347885566345
outer loop
vertex -95.3710275849769 519.720103876931 100.0
vertex -93.5915923410525 517.800827017368 95.0
vertex -95.0355675564261 517.394704403633 100.0
endloop
endfacet
facet normal -0.922051610995137 -0.259329942971927 -0.287347885566345
outer loop
vertex -93.5915923410525 517.800827017368 95.0
vertex -95.3710275849769 519.720103876931 100.0
vertex -93.8711423648448 519.738659911783 95.0
endloop
endfacet
facet normal -0.468614985498472 -0.835362907978811 -0.287347885566347
outer loop
vertex -90.77495193913 511.982139761116 100.0
vertex -91.6090058245908 514.46293954488 95.0
vertex -90.0410793266391 513.290356481937 95.0
endloop
endfacet
facet normal -0.668855147236194 -0.685612124073224 -0.287347885566348
outer loop
vertex -91.6090058245908 514.46293954488 95.0
vertex -90.77495193913 511.982139761116 100.0
vertex -92.6564637366721 513.389239436647 100.0
endloop
endfacet
facet normal 0.668855147236193 0.685612124073225 -0.287347885566348
outer loop
vertex -81.1344267037783 525.199940627204 95.0
vertex -78.6337521483687 524.427515731889 100.0
vertex -79.923412834338 523.661503124247 95.0
endloop
endfacet
facet normal 0.823513936025162 0.489138006939652 -0.287347885566347
outer loop
vertex -78.6337521483687 524.427515731889 100.0
vertex -81.1344267037783 525.199940627204 95.0
vertex -80.086968791697 526.273640735437 100.0
endloop
endfacet
facet normal 0.0118489719536501 -0.957752992438129 -0.287347885566347
outer loop
vertex -86.2603800550741 510.83212876525 100.0
vertex -88.2230917998903 512.563537456962 95.0
vertex -86.2789360899258 512.332013985382 95.0
endloop
endfacet
facet normal -0.236439486921913 -0.928185090208118 -0.287347885566347
outer loop
vertex -88.2230917998903 512.563537456962 95.0
vertex -86.2603800550741 510.83212876525 100.0
vertex -88.5933669070314 511.109956931146 100.0
endloop
endfacet
facet normal 0.510675071760762 -0.859773790646203 6.78178266525314e-017
outer loop
vertex -81.7756406183377 512.093475970226 90.0
vertex -83.9349805817759 511.1675887938 9.99999999999998
vertex -81.7756406183377 512.093475970226 9.99999999999998
endloop
endfacet
facet normal 0.270748409156517 -0.9626501435824 1.3276827818524e-017
outer loop
vertex -83.9349805817759 511.1675887938 9.99999999999998
vertex -81.7756406183377 512.093475970226 90.0
vertex -83.9349805817759 511.1675887938 90.0
endloop
endfacet
facet normal -0.0118489719536473 0.95775299243813 -0.287347885566345
outer loop
vertex -86.4830524732949 528.830751406834 100.0
vertex -84.5203407284788 527.099342715122 95.0
vertex -86.4644964384432 527.330866186702 95.0
endloop
endfacet
facet normal 0.236439486921916 0.928185090208118 -0.287347885566345
outer loop
vertex -84.5203407284788 527.099342715122 95.0
vertex -86.4830524732949 528.830751406834 100.0
vertex -84.1500656213376 528.552923240938 100.0
endloop
endfacet
facet normal 0.922051610995139 0.259329942971921 -0.287347885566345
outer loop
vertex -79.1518401873165 521.862053154716 95.0
vertex -77.3724049433922 519.942776295152 100.0
vertex -78.8722901635243 519.9242202603 95.0
endloop
endfacet
facet normal 0.95775299243813 0.011848971953651 -0.287347885566345
outer loop
vertex -77.3724049433922 519.942776295152 100.0
vertex -79.1518401873165 521.862053154716 95.0
vertex -77.707864971943 522.268175768451 100.0
endloop
endfacet
facet normal 0.859773790646204 0.51067507176076 2.65805022018901e-016
outer loop
vertex -78.6337521483687 524.427515731889 9.99999999999998
vertex -77.707864971943 522.268175768451 90.0
vertex -77.7078649719429 522.268175768451 9.99999999999998
endloop
endfacet
facet normal 0.9626501435824 0.270748409156519 3.23880207054674e-016
outer loop
vertex -77.707864971943 522.268175768451 90.0
vertex -78.6337521483687 524.427515731889 9.99999999999998
vertex -78.6337521483687 524.427515731889 90.0
endloop
endfacet
facet normal 0.489248408327275 0.872144480547362 7.43335436172303e-017
outer loop
vertex -81.9684805892391 527.680740410968 90.0
vertex -80.086968791697 526.273640735437 9.99999999999998
vertex -81.9684805892391 527.680740410968 9.99999999999998
endloop
endfacet
facet normal 0.698305274720837 0.715800072154967 1.5205543498844e-016
outer loop
vertex -80.086968791697 526.273640735437 9.99999999999998
vertex -81.9684805892391 527.680740410968 90.0
vertex -80.086968791697 526.273640735437 90.0
endloop
endfacet
facet normal 0.835362907978812 -0.468614985498473 -0.287347885566346
outer loop
vertex -79.8306326600793 516.162077023587 95.0
vertex -77.6502331092884 517.609789443195 100.0
vertex -78.5224159392583 515.428204411096 100.0
endloop
endfacet
facet normal 0.928185090208119 -0.236439486921912 -0.287347885566346
outer loop
vertex -77.6502331092884 517.609789443195 100.0
vertex -79.8306326600793 516.162077023587 95.0
vertex -79.1038136351044 517.980064550336 95.0
endloop
endfacet
facet normal 0.685612124073227 -0.668855147236192 -0.287347885566346
outer loop
vertex -81.0032157230223 514.594150525636 95.0
vertex -78.5224159392583 515.428204411096 100.0
vertex -79.9295156147898 513.546692613554 100.0
endloop
endfacet
facet normal 0.835362907978812 -0.468614985498472 -0.287347885566346
outer loop
vertex -78.5224159392583 515.428204411096 100.0
vertex -81.0032157230223 514.594150525636 95.0
vertex -79.8306326600793 516.162077023587 95.0
endloop
endfacet
facet normal 0.468614985498473 0.835362907978812 -0.287347885566346
outer loop
vertex -81.9684805892391 527.680740410968 100.0
vertex -81.1344267037783 525.199940627204 95.0
vertex -82.70235320173 526.372523690147 95.0
endloop
endfacet
facet normal 0.668855147236193 0.685612124073225 -0.287347885566348
outer loop
vertex -81.1344267037783 525.199940627204 95.0
vertex -81.9684805892391 527.680740410968 100.0
vertex -80.086968791697 526.273640735437 100.0
endloop
endfacet
facet normal 0.872144480547362 -0.489248408327275 1.38375515570037e-016
outer loop
vertex -78.5224159392583 515.428204411096 9.99999999999998
vertex -79.9295156147899 513.546692613554 90.0
vertex -79.9295156147898 513.546692613554 9.99999999999998
endloop
endfacet
facet normal 0.715800072154967 -0.698305274720837 1.55507371954719e-016
outer loop
vertex -79.9295156147899 513.546692613554 90.0
vertex -78.5224159392583 515.428204411096 9.99999999999998
vertex -78.5224159392583 515.428204411096 90.0
endloop
endfacet
facet normal 0.270748409156517 -0.9626501435824 1.3276827818524e-017
outer loop
vertex -83.9349805817759 511.1675887938 90.0
vertex -86.2603800550741 510.83212876525 9.99999999999998
vertex -83.9349805817759 511.1675887938 9.99999999999998
endloop
endfacet
facet normal 0.0123706899011575 -0.999923480088036 7.53675731363675e-018
outer loop
vertex -86.2603800550741 510.83212876525 9.99999999999998
vertex -83.9349805817759 511.1675887938 90.0
vertex -86.2603800550741 510.83212876525 90.0
endloop
endfacet
facet normal 0.0123706899011576 -0.999923480088036 7.53675731363674e-018
outer loop
vertex -86.2603800550741 510.83212876525 90.0
vertex -88.5933669070315 511.109956931146 9.99999999999998
vertex -86.2603800550741 510.83212876525 9.99999999999998
endloop
endfacet
facet normal -0.246850071427434 -0.969053683877354 -7.16823053596282e-018
outer loop
vertex -88.5933669070315 511.109956931146 9.99999999999998
vertex -86.2603800550741 510.83212876525 90.0
vertex -88.5933669070314 511.109956931146 90.0
endloop
endfacet
facet normal -0.715800072154969 0.698305274720835 6.39600354776613e-017
outer loop
vertex -92.8139169135792 526.116187558529 90.0
vertex -90.9677919100314 527.569404201858 9.99999999999998
vertex -92.8139169135793 526.116187558529 9.99999999999998
endloop
endfacet
facet normal -0.510675071760763 0.859773790646202 -6.37347712783183e-017
outer loop
vertex -90.9677919100314 527.569404201858 9.99999999999998
vertex -92.8139169135792 526.116187558529 90.0
vertex -90.9677919100314 527.569404201858 90.0
endloop
endfacet
facet normal 0.969053683877355 -0.246850071427432 1.29135788558003e-016
outer loop
vertex -77.6502331092884 517.609789443195 9.99999999999998
vertex -78.5224159392583 515.428204411096 90.0
vertex -78.5224159392583 515.428204411096 9.99999999999998
endloop
endfacet
facet normal 0.872144480547362 -0.489248408327275 1.38375515570037e-016
outer loop
vertex -78.5224159392583 515.428204411096 90.0
vertex -77.6502331092884 517.609789443195 9.99999999999998
vertex -77.6502331092884 517.609789443195 90.0
endloop
endfacet
facet normal -0.715800072154969 0.698305274720835 6.39600354776613e-017
outer loop
vertex -92.8139169135792 526.116187558529 90.0
vertex -94.2210165891108 524.234675760987 9.99999999999998
vertex -94.2210165891108 524.234675760987 90.0
endloop
endfacet
facet normal -0.872144480547363 0.489248408327273 1.19331513876555e-016
outer loop
vertex -94.2210165891108 524.234675760987 9.99999999999998
vertex -92.8139169135792 526.116187558529 90.0
vertex -92.8139169135793 526.116187558529 9.99999999999998
endloop
endfacet
facet normal -0.969053683877355 0.24685007142743 7.35140667589395e-017
outer loop
vertex -95.0931994190807 522.053090728889 90.0
vertex -95.3710275849769 519.720103876931 9.99999999999998
vertex -95.3710275849769 519.720103876931 90.0
endloop
endfacet
facet normal -0.999923480088036 -0.0123706899011605 1.3076415447528e-016
outer loop
vertex -95.3710275849769 519.720103876931 9.99999999999998
vertex -95.0931994190807 522.053090728889 90.0
vertex -95.0931994190807 522.053090728889 9.99999999999998
endloop
endfacet
facet normal 0.715800072154967 -0.698305274720837 1.55507371954719e-016
outer loop
vertex -79.9295156147899 513.546692613554 90.0
vertex -81.7756406183377 512.093475970226 9.99999999999998
vertex -79.9295156147898 513.546692613554 9.99999999999998
endloop
endfacet
facet normal 0.510675071760762 -0.859773790646203 6.78178266525314e-017
outer loop
vertex -81.7756406183377 512.093475970226 9.99999999999998
vertex -79.9295156147899 513.546692613554 90.0
vertex -81.7756406183377 512.093475970226 90.0
endloop
endfacet
facet normal -0.872144480547363 0.489248408327273 1.19331513876555e-016
outer loop
vertex -94.2210165891108 524.234675760987 90.0
vertex -95.0931994190807 522.053090728889 9.99999999999998
vertex -95.0931994190807 522.053090728889 90.0
endloop
endfacet
facet normal -0.969053683877355 0.24685007142743 7.35140667589395e-017
outer loop
vertex -95.0931994190807 522.053090728889 9.99999999999998
vertex -94.2210165891108 524.234675760987 90.0
vertex -94.2210165891108 524.234675760987 9.99999999999998
endloop
endfacet
facet normal 0.246850071427432 0.969053683877354 4.34102347497399e-017
outer loop
vertex -84.1500656213377 528.552923240938 90.0
vertex -81.9684805892391 527.680740410968 9.99999999999998
vertex -84.1500656213376 528.552923240938 9.99999999999998
endloop
endfacet
facet normal 0.489248408327275 0.872144480547362 7.43335436172303e-017
outer loop
vertex -81.9684805892391 527.680740410968 9.99999999999998
vertex -84.1500656213377 528.552923240938 90.0
vertex -81.9684805892391 527.680740410968 90.0
endloop
endfacet
facet normal -0.928185090208118 0.236439486921912 -0.287347885566347
outer loop
vertex -95.0931994190807 522.053090728889 100.0
vertex -93.8711423648448 519.738659911783 95.0
vertex -95.3710275849769 519.720103876931 100.0
endloop
endfacet
facet normal -0.95775299243813 -0.0118489719536496 -0.287347885566345
outer loop
vertex -93.8711423648448 519.738659911783 95.0
vertex -95.0931994190807 522.053090728889 100.0
vertex -93.6396188932647 521.682815621748 95.0
endloop
endfacet
facet normal -0.0123706899011587 0.999923480088036 9.14483099947104e-018
outer loop
vertex -86.483052473295 528.830751406834 90.0
vertex -84.1500656213376 528.552923240938 9.99999999999998
vertex -86.483052473295 528.830751406834 9.99999999999998
endloop
endfacet
facet normal 0.246850071427432 0.969053683877354 4.34102347497399e-017
outer loop
vertex -84.1500656213376 528.552923240938 9.99999999999998
vertex -86.483052473295 528.830751406834 90.0
vertex -84.1500656213377 528.552923240938 90.0
endloop
endfacet
facet normal 0.999923480088036 0.0123706899011603 2.72144648905947e-016
outer loop
vertex -77.3724049433922 519.942776295152 9.99999999999998
vertex -77.6502331092884 517.609789443195 90.0
vertex -77.6502331092884 517.609789443195 9.99999999999998
endloop
endfacet
facet normal 0.969053683877355 -0.246850071427432 1.29135788558003e-016
outer loop
vertex -77.6502331092884 517.609789443195 90.0
vertex -77.3724049433922 519.942776295152 9.99999999999998
vertex -77.3724049433922 519.942776295152 90.0
endloop
endfacet
facet normal 0.698305274720837 0.715800072154967 1.5205543498844e-016
outer loop
vertex -80.086968791697 526.273640735437 9.99999999999998
vertex -78.6337521483687 524.427515731889 90.0
vertex -78.6337521483687 524.427515731889 9.99999999999998
endloop
endfacet
facet normal 0.859773790646204 0.51067507176076 2.65805022018901e-016
outer loop
vertex -78.6337521483687 524.427515731889 90.0
vertex -80.086968791697 526.273640735437 9.99999999999998
vertex -80.086968791697 526.273640735437 90.0
endloop
endfacet
facet normal -0.999923480088036 -0.0123706899011607 1.3076415447528e-016
outer loop
vertex -95.3710275849769 519.720103876931 90.0
vertex -95.0355675564261 517.394704403633 9.99999999999998
vertex -95.0355675564261 517.394704403633 90.0
endloop
endfacet
facet normal -0.9626501435824 -0.270748409156519 1.46993322780761e-016
outer loop
vertex -95.0355675564261 517.394704403633 9.99999999999998
vertex -95.3710275849769 519.720103876931 90.0
vertex -95.3710275849769 519.720103876931 9.99999999999998
endloop
endfacet
facet normal -0.9626501435824 -0.270748409156519 1.46993322780761e-016
outer loop
vertex -95.0355675564261 517.394704403633 90.0
vertex -94.1096803800004 515.235364440195 9.99999999999998
vertex -94.1096803800004 515.235364440195 90.0
endloop
endfacet
facet normal -0.859773790646204 -0.51067507176076 7.43312263018137e-017
outer loop
vertex -94.1096803800004 515.235364440195 9.99999999999998
vertex -95.0355675564261 517.394704403633 90.0
vertex -95.0355675564261 517.394704403633 9.99999999999998
endloop
endfacet
facet normal 0.922051610995139 0.259329942971926 0.287347885566342
outer loop
vertex -77.707864971943 522.268175768451 90.0
vertex -79.923412834338 523.661503124247 95.0
vertex -79.1518401873165 521.862053154716 95.0
endloop
endfacet
facet normal 0.823513936025162 0.489138006939654 0.287347885566343
outer loop
vertex -79.923412834338 523.661503124247 95.0
vertex -77.707864971943 522.268175768451 90.0
vertex -78.6337521483687 524.427515731889 90.0
endloop
endfacet
facet normal -0.0118489719536496 0.95775299243813 0.287347885566344
outer loop
vertex -86.4644964384432 527.330866186702 95.0
vertex -84.1500656213377 528.552923240938 90.0
vertex -86.483052473295 528.830751406834 90.0
endloop
endfacet
facet normal 0.236439486921914 0.928185090208119 0.287347885566345
outer loop
vertex -84.1500656213377 528.552923240938 90.0
vertex -86.4644964384432 527.330866186702 95.0
vertex -84.5203407284788 527.099342715122 95.0
endloop
endfacet
facet normal -0.859773790646204 -0.51067507176076 7.43312263018137e-017
outer loop
vertex -94.1096803800004 515.235364440195 90.0
vertex -92.6564637366721 513.389239436647 9.99999999999998
vertex -92.6564637366721 513.389239436647 90.0
endloop
endfacet
facet normal -0.698305274720836 -0.715800072154969 -4.54996255359993e-017
outer loop
vertex -92.6564637366721 513.389239436647 9.99999999999998
vertex -94.1096803800004 515.235364440195 90.0
vertex -94.1096803800004 515.235364440195 9.99999999999998
endloop
endfacet
facet normal -0.922051610995138 -0.259329942971927 0.287347885566343
outer loop
vertex -93.5915923410525 517.800827017368 95.0
vertex -95.3710275849769 519.720103876931 90.0
vertex -95.0355675564261 517.394704403633 90.0
endloop
endfacet
facet normal -0.95775299243813 -0.0118489719536523 0.287347885566344
outer loop
vertex -95.3710275849769 519.720103876931 90.0
vertex -93.5915923410525 517.800827017368 95.0
vertex -93.8711423648448 519.738659911783 95.0
endloop
endfacet
facet normal -0.259329942971924 0.922051610995138 0.287347885566345
outer loop
vertex -88.4023293328584 527.05131616291 95.0
vertex -86.483052473295 528.830751406834 90.0
vertex -88.8084519465932 528.495291378283 90.0
endloop
endfacet
facet normal -0.011848971953649 0.95775299243813 0.287347885566344
outer loop
vertex -86.483052473295 528.830751406834 90.0
vertex -88.4023293328584 527.05131616291 95.0
vertex -86.4644964384432 527.330866186702 95.0
endloop
endfacet
facet normal 0.236439486921915 0.928185090208118 0.287347885566345
outer loop
vertex -84.5203407284788 527.099342715122 95.0
vertex -81.9684805892391 527.680740410968 90.0
vertex -84.1500656213377 528.552923240938 90.0
endloop
endfacet
facet normal 0.468614985498474 0.835362907978811 0.287347885566345
outer loop
vertex -81.9684805892391 527.680740410968 90.0
vertex -84.5203407284788 527.099342715122 95.0
vertex -82.70235320173 526.372523690147 95.0
endloop
endfacet
facet normal -0.510675071760763 0.859773790646202 -6.37347712783183e-017
outer loop
vertex -90.9677919100314 527.569404201858 90.0
vertex -88.8084519465932 528.495291378283 9.99999999999998
vertex -90.9677919100314 527.569404201858 9.99999999999998
endloop
endfacet
facet normal -0.270748409156517 0.9626501435824 -3.66941025614137e-017
outer loop
vertex -88.8084519465932 528.495291378283 9.99999999999998
vertex -90.9677919100314 527.569404201858 90.0
vertex -88.8084519465932 528.495291378283 90.0
endloop
endfacet
facet normal 0.685612124073226 -0.668855147236194 0.287347885566343
outer loop
vertex -81.0032157230223 514.594150525636 95.0
vertex -81.7756406183377 512.093475970226 90.0
vertex -79.9295156147899 513.546692613554 90.0
endloop
endfacet
facet normal 0.489138006939655 -0.823513936025161 0.287347885566345
outer loop
vertex -81.7756406183377 512.093475970226 90.0
vertex -81.0032157230223 514.594150525636 95.0
vertex -82.5416532259788 513.383136656195 95.0
endloop
endfacet
facet normal 0.489138006939657 -0.82351393602516 0.287347885566344
outer loop
vertex -82.5416532259788 513.383136656195 95.0
vertex -83.9349805817759 511.1675887938 90.0
vertex -81.7756406183377 512.093475970226 90.0
endloop
endfacet
facet normal 0.259329942971924 -0.922051610995138 0.287347885566346
outer loop
vertex -83.9349805817759 511.1675887938 90.0
vertex -82.5416532259788 513.383136656195 95.0
vertex -84.3411031955107 512.611564009174 95.0
endloop
endfacet
facet normal 0.95775299243813 0.0118489719536505 0.287347885566344
outer loop
vertex -77.3724049433922 519.942776295152 90.0
vertex -79.1518401873165 521.862053154716 95.0
vertex -78.8722901635243 519.9242202603 95.0
endloop
endfacet
facet normal 0.922051610995139 0.259329942971924 0.287347885566342
outer loop
vertex -79.1518401873165 521.862053154716 95.0
vertex -77.3724049433922 519.942776295152 90.0
vertex -77.707864971943 522.268175768451 90.0
endloop
endfacet
facet normal -0.685612124073228 0.668855147236192 0.287347885566344
outer loop
vertex -91.7402168053468 525.068729646448 95.0
vertex -90.9677919100314 527.569404201858 90.0
vertex -92.8139169135792 526.116187558529 90.0
endloop
endfacet
facet normal -0.489138006939657 0.823513936025159 0.287347885566345
outer loop
vertex -90.9677919100314 527.569404201858 90.0
vertex -91.7402168053468 525.068729646448 95.0
vertex -90.2017793023903 526.279743515888 95.0
endloop
endfacet
facet normal -0.835362907978812 0.468614985498474 0.287347885566344
outer loop
vertex -92.9127998682898 523.500803148496 95.0
vertex -95.0931994190807 522.053090728889 90.0
vertex -93.6396188932647 521.682815621748 95.0
endloop
endfacet
facet normal -0.928185090208119 0.236439486921913 0.287347885566345
outer loop
vertex -95.0931994190807 522.053090728889 90.0
vertex -92.9127998682898 523.500803148496 95.0
vertex -94.2210165891108 524.234675760987 90.0
endloop
endfacet
facet normal 0.259329942971924 -0.922051610995138 0.287347885566346
outer loop
vertex -84.3411031955107 512.611564009174 95.0
vertex -86.2603800550741 510.83212876525 90.0
vertex -83.9349805817759 511.1675887938 90.0
endloop
endfacet
facet normal 0.0118489719536501 -0.95775299243813 0.287347885566345
outer loop
vertex -86.2603800550741 510.83212876525 90.0
vertex -84.3411031955107 512.611564009174 95.0
vertex -86.2789360899258 512.332013985382 95.0
endloop
endfacet
facet normal -0.246850071427434 -0.969053683877354 -7.16823053596281e-018
outer loop
vertex -88.5933669070314 511.109956931146 90.0
vertex -90.77495193913 511.982139761116 9.99999999999998
vertex -88.5933669070315 511.109956931146 9.99999999999998
endloop
endfacet
facet normal -0.489248408327274 -0.872144480547363 -8.34789369449984e-017
outer loop
vertex -90.77495193913 511.982139761116 9.99999999999998
vertex -88.5933669070314 511.109956931146 90.0
vertex -90.77495193913 511.982139761116 90.0
endloop
endfacet
facet normal -0.823513936025162 -0.489138006939654 0.287347885566345
outer loop
vertex -92.820019694031 516.001377047836 95.0
vertex -95.0355675564261 517.394704403633 90.0
vertex -94.1096803800004 515.235364440195 90.0
endloop
endfacet
facet normal -0.922051610995138 -0.259329942971926 0.287347885566343
outer loop
vertex -95.0355675564261 517.394704403633 90.0
vertex -92.820019694031 516.001377047836 95.0
vertex -93.5915923410525 517.800827017368 95.0
endloop
endfacet
facet normal 0.0118489719536512 -0.95775299243813 0.287347885566345
outer loop
vertex -86.2789360899258 512.332013985382 95.0
vertex -88.5933669070314 511.109956931146 90.0
vertex -86.2603800550741 510.83212876525 90.0
endloop
endfacet
facet normal -0.236439486921914 -0.928185090208118 0.287347885566346
outer loop
vertex -88.5933669070314 511.109956931146 90.0
vertex -86.2789360899258 512.332013985382 95.0
vertex -88.2230917998903 512.563537456962 95.0
endloop
endfacet
facet normal 0.928185090208119 -0.236439486921912 0.287347885566346
outer loop
vertex -77.6502331092884 517.609789443195 90.0
vertex -79.8306326600793 516.162077023587 95.0
vertex -78.5224159392583 515.428204411096 90.0
endloop
endfacet
facet normal 0.835362907978811 -0.468614985498475 0.287347885566345
outer loop
vertex -79.8306326600793 516.162077023587 95.0
vertex -77.6502331092884 517.609789443195 90.0
vertex -79.1038136351044 517.980064550336 95.0
endloop
endfacet
facet normal -0.668855147236194 -0.685612124073225 0.287347885566346
outer loop
vertex -91.6090058245908 514.46293954488 95.0
vertex -94.1096803800004 515.235364440195 90.0
vertex -92.6564637366721 513.389239436647 90.0
endloop
endfacet
facet normal -0.823513936025161 -0.489138006939655 0.287347885566345
outer loop
vertex -94.1096803800004 515.235364440195 90.0
vertex -91.6090058245908 514.46293954488 95.0
vertex -92.820019694031 516.001377047836 95.0
endloop
endfacet
facet normal -0.489248408327274 -0.872144480547363 -8.34789369449984e-017
outer loop
vertex -90.77495193913 511.982139761116 90.0
vertex -92.6564637366721 513.389239436647 9.99999999999998
vertex -90.77495193913 511.982139761116 9.99999999999998
endloop
endfacet
facet normal -0.698305274720836 -0.715800072154969 -4.54996255359993e-017
outer loop
vertex -92.6564637366721 513.389239436647 9.99999999999998
vertex -90.77495193913 511.982139761116 90.0
vertex -92.6564637366721 513.389239436647 90.0
endloop
endfacet
facet normal -0.95775299243813 -0.0118489719536494 0.287347885566344
outer loop
vertex -93.8711423648448 519.738659911783 95.0
vertex -95.0931994190807 522.053090728889 90.0
vertex -95.3710275849769 519.720103876931 90.0
endloop
endfacet
facet normal -0.928185090208119 0.236439486921913 0.287347885566345
outer loop
vertex -95.0931994190807 522.053090728889 90.0
vertex -93.8711423648448 519.738659911783 95.0
vertex -93.6396188932647 521.682815621748 95.0
endloop
endfacet
facet normal -0.489138006939657 0.82351393602516 0.287347885566345
outer loop
vertex -90.2017793023903 526.279743515888 95.0
vertex -88.8084519465932 528.495291378283 90.0
vertex -90.9677919100314 527.569404201858 90.0
endloop
endfacet
facet normal -0.259329942971924 0.922051610995138 0.287347885566345
outer loop
vertex -88.8084519465932 528.495291378283 90.0
vertex -90.2017793023903 526.279743515888 95.0
vertex -88.4023293328584 527.05131616291 95.0
endloop
endfacet
facet normal -0.236439486921914 -0.928185090208118 0.287347885566346
outer loop
vertex -88.2230917998903 512.563537456962 95.0
vertex -90.77495193913 511.982139761116 90.0
vertex -88.5933669070314 511.109956931146 90.0
endloop
endfacet
facet normal -0.468614985498473 -0.835362907978812 0.287347885566346
outer loop
vertex -90.77495193913 511.982139761116 90.0
vertex -88.2230917998903 512.563537456962 95.0
vertex -90.0410793266391 513.290356481937 95.0
endloop
endfacet
facet normal 0.468614985498475 0.835362907978811 0.287347885566345
outer loop
vertex -82.70235320173 526.372523690147 95.0
vertex -80.086968791697 526.273640735437 90.0
vertex -81.9684805892391 527.680740410968 90.0
endloop
endfacet
facet normal 0.668855147236195 0.685612124073224 0.287347885566345
outer loop
vertex -80.086968791697 526.273640735437 90.0
vertex -82.70235320173 526.372523690147 95.0
vertex -81.1344267037783 525.199940627204 95.0
endloop
endfacet
facet normal -0.468614985498472 -0.835362907978812 0.287347885566346
outer loop
vertex -90.0410793266391 513.290356481937 95.0
vertex -92.6564637366721 513.389239436647 90.0
vertex -90.77495193913 511.982139761116 90.0
endloop
endfacet
facet normal -0.668855147236194 -0.685612124073225 0.287347885566346
outer loop
vertex -92.6564637366721 513.389239436647 90.0
vertex -90.0410793266391 513.290356481937 95.0
vertex -91.6090058245908 514.46293954488 95.0
endloop
endfacet
facet normal 0.835362907978811 -0.468614985498474 0.287347885566345
outer loop
vertex -78.5224159392583 515.428204411096 90.0
vertex -81.0032157230223 514.594150525636 95.0
vertex -79.9295156147899 513.546692613554 90.0
endloop
endfacet
facet normal 0.685612124073226 -0.668855147236194 0.287347885566343
outer loop
vertex -81.0032157230223 514.594150525636 95.0
vertex -78.5224159392583 515.428204411096 90.0
vertex -79.8306326600793 516.162077023587 95.0
endloop
endfacet
facet normal -0.685612124073228 0.668855147236192 0.287347885566344
outer loop
vertex -91.7402168053468 525.068729646448 95.0
vertex -94.2210165891108 524.234675760987 90.0
vertex -92.9127998682898 523.500803148496 95.0
endloop
endfacet
facet normal -0.835362907978812 0.468614985498473 0.287347885566344
outer loop
vertex -94.2210165891108 524.234675760987 90.0
vertex -91.7402168053468 525.068729646448 95.0
vertex -92.8139169135792 526.116187558529 90.0
endloop
endfacet
facet normal 0.95775299243813 0.0118489719536505 0.287347885566344
outer loop
vertex -77.3724049433922 519.942776295152 90.0
vertex -79.1038136351044 517.980064550336 95.0
vertex -77.6502331092884 517.609789443195 90.0
endloop
endfacet
facet normal 0.928185090208118 -0.236439486921914 0.287347885566346
outer loop
vertex -79.1038136351044 517.980064550336 95.0
vertex -77.3724049433922 519.942776295152 90.0
vertex -78.8722901635243 519.9242202603 95.0
endloop
endfacet
facet normal -0.270748409156517 0.9626501435824 -3.66941025614137e-017
outer loop
vertex -88.8084519465932 528.495291378283 90.0
vertex -86.483052473295 528.830751406834 9.99999999999998
vertex -88.8084519465932 528.495291378283 9.99999999999998
endloop
endfacet
facet normal -0.0123706899011588 0.999923480088036 9.14483099947104e-018
outer loop
vertex -86.483052473295 528.830751406834 9.99999999999998
vertex -88.8084519465932 528.495291378283 90.0
vertex -86.483052473295 528.830751406834 90.0
endloop
endfacet
facet normal 0.9626501435824 0.270748409156519 3.23880207054674e-016
outer loop
vertex -77.7078649719429 522.268175768451 9.99999999999998
vertex -77.3724049433922 519.942776295152 90.0
vertex -77.3724049433922 519.942776295152 9.99999999999998
endloop
endfacet
facet normal 0.999923480088036 0.0123706899011603 2.72144648905947e-016
outer loop
vertex -77.3724049433922 519.942776295152 90.0
vertex -77.7078649719429 522.268175768451 9.99999999999998
vertex -77.707864971943 522.268175768451 90.0
endloop
endfacet
endsolid SpoolHolder final
