solid SpoolHolder final
facet normal 6.93889390390723e-017 0.0 -1.0
outer loop
vertex 191.174834087177 77.2624634840447 0.0
vertex 191.232465949832 72.6040771587891 0.0
vertex 190.897005921281 74.9294766320873 0.0
endloop
endfacet
facet normal 6.93889390390723e-017 0.0 -1.0
outer loop
vertex 191.232465949832 72.6040771587891 0.0
vertex 191.174834087177 77.2624634840447 0.0
vertex 192.047016917147 79.4440485161433 0.0
endloop
endfacet
facet normal 6.93889390390723e-017 0.0 -1.0
outer loop
vertex 191.232465949832 72.6040771587891 0.0
vertex 192.047016917147 79.4440485161433 0.0
vertex 192.158353126258 70.4447371953509 0.0
endloop
endfacet
facet normal 6.93889390390723e-017 0.0 -1.0
outer loop
vertex 192.158353126258 70.4447371953509 0.0
vertex 192.047016917147 79.4440485161433 0.0
vertex 193.454116592679 81.3255603136853 0.0
endloop
endfacet
facet normal 6.93889390390723e-017 0.0 -1.0
outer loop
vertex 192.158353126258 70.4447371953509 0.0
vertex 193.454116592679 81.3255603136853 0.0
vertex 193.611569769586 68.5986121918031 0.0
endloop
endfacet
facet normal 6.93889390390723e-017 0.0 -1.0
outer loop
vertex 193.611569769586 68.5986121918031 0.0
vertex 193.454116592679 81.3255603136853 0.0
vertex 195.300241596227 82.7787769570136 0.0
endloop
endfacet
facet normal 6.93889390390723e-017 0.0 -1.0
outer loop
vertex 193.611569769586 68.5986121918031 0.0
vertex 195.300241596227 82.7787769570136 0.0
vertex 195.493081567128 67.1915125162715 0.0
endloop
endfacet
facet normal 6.93889390390723e-017 0.0 -1.0
outer loop
vertex 195.493081567128 67.1915125162715 0.0
vertex 195.300241596227 82.7787769570136 0.0
vertex 197.459581559665 83.7046641334394 0.0
endloop
endfacet
facet normal 6.93889390390723e-017 0.0 -1.0
outer loop
vertex 195.493081567128 67.1915125162715 0.0
vertex 197.459581559665 83.7046641334394 0.0
vertex 197.674666599227 66.3193296863016 0.0
endloop
endfacet
facet normal 6.93889390390723e-017 0.0 -1.0
outer loop
vertex 197.674666599227 66.3193296863016 0.0
vertex 197.459581559665 83.7046641334394 0.0
vertex 199.784981032963 84.0401241619901 0.0
endloop
endfacet
facet normal 6.93889390390723e-017 0.0 -1.0
outer loop
vertex 197.674666599227 66.3193296863016 0.0
vertex 199.784981032963 84.0401241619901 0.0
vertex 200.007653451184 66.0415015204055 0.0
endloop
endfacet
facet normal 6.93889390390723e-017 0.0 -1.0
outer loop
vertex 200.007653451184 66.0415015204055 0.0
vertex 199.784981032963 84.0401241619901 0.0
vertex 202.11796788492 83.762295996094 0.0
endloop
endfacet
facet normal 6.93889390390723e-017 0.0 -1.0
outer loop
vertex 200.007653451184 66.0415015204055 0.0
vertex 202.11796788492 83.762295996094 0.0
vertex 202.333052924482 66.3769615489562 0.0
endloop
endfacet
facet normal 6.93889390390723e-017 0.0 -1.0
outer loop
vertex 202.333052924482 66.3769615489562 0.0
vertex 202.11796788492 83.762295996094 0.0
vertex 204.299552917019 82.8901131661241 0.0
endloop
endfacet
facet normal 6.93889390390723e-017 0.0 -1.0
outer loop
vertex 202.333052924482 66.3769615489562 0.0
vertex 204.299552917019 82.8901131661241 0.0
vertex 204.49239288792 67.3028487253819 0.0
endloop
endfacet
facet normal 6.93889390390723e-017 0.0 -1.0
outer loop
vertex 204.49239288792 67.3028487253819 0.0
vertex 204.299552917019 82.8901131661241 0.0
vertex 206.181064714561 81.4830134905925 0.0
endloop
endfacet
facet normal 6.93889390390723e-017 0.0 -1.0
outer loop
vertex 204.49239288792 67.3028487253819 0.0
vertex 206.181064714561 81.4830134905925 0.0
vertex 206.338517891468 68.7560653687103 0.0
endloop
endfacet
facet normal 6.93889390390723e-017 0.0 -1.0
outer loop
vertex 206.338517891468 68.7560653687103 0.0
vertex 206.181064714561 81.4830134905925 0.0
vertex 207.634281357889 79.6368884870446 0.0
endloop
endfacet
facet normal 6.93889390390723e-017 0.0 -1.0
outer loop
vertex 206.338517891468 68.7560653687103 0.0
vertex 207.634281357889 79.6368884870446 0.0
vertex 207.745617567 70.6375771662523 0.0
endloop
endfacet
facet normal 6.93889390390723e-017 0.0 -1.0
outer loop
vertex 207.745617567 70.6375771662523 0.0
vertex 207.634281357889 79.6368884870446 0.0
vertex 208.560168534315 77.4775485236064 0.0
endloop
endfacet
facet normal 6.93889390390723e-017 0.0 -1.0
outer loop
vertex 207.745617567 70.6375771662523 0.0
vertex 208.560168534315 77.4775485236064 0.0
vertex 208.61780039697 72.8191621983509 0.0
endloop
endfacet
facet normal 6.93889390390723e-017 0.0 -1.0
outer loop
vertex 208.61780039697 72.8191621983509 0.0
vertex 208.560168534315 77.4775485236064 0.0
vertex 208.895628562866 75.1521490503082 0.0
endloop
endfacet
facet normal 0.0 0.0 1.0
outer loop
vertex 192.676441165205 73.0101997725239 95.0
vertex 192.628414612993 76.8921883769035 95.0
vertex 192.396891141413 74.9480326669391 95.0
endloop
endfacet
facet normal 0.0 0.0 1.0
outer loop
vertex 192.628414612993 76.8921883769035 95.0
vertex 192.676441165205 73.0101997725239 95.0
vertex 193.355233637968 78.7101759036523 95.0
endloop
endfacet
facet normal 0.0 0.0 1.0
outer loop
vertex 193.355233637968 78.7101759036523 95.0
vertex 192.676441165205 73.0101997725239 95.0
vertex 193.448013812227 71.2107498029921 95.0
endloop
endfacet
facet normal 0.0 0.0 1.0
outer loop
vertex 193.355233637968 78.7101759036523 95.0
vertex 193.448013812227 71.2107498029921 95.0
vertex 194.527816700911 80.2781024016041 95.0
endloop
endfacet
facet normal 0.0 0.0 1.0
outer loop
vertex 194.527816700911 80.2781024016041 95.0
vertex 193.448013812227 71.2107498029921 95.0
vertex 194.659027681667 69.6723123000355 95.0
endloop
endfacet
facet normal 0.0 0.0 1.0
outer loop
vertex 194.527816700911 80.2781024016041 95.0
vertex 194.659027681667 69.6723123000355 95.0
vertex 196.066254203868 81.4891162710443 95.0
endloop
endfacet
facet normal 0.0 0.0 1.0
outer loop
vertex 196.066254203868 81.4891162710443 95.0
vertex 194.659027681667 69.6723123000355 95.0
vertex 196.226954179619 68.4997292370926 95.0
endloop
endfacet
facet normal 0.0 0.0 1.0
outer loop
vertex 196.066254203868 81.4891162710443 95.0
vertex 196.226954179619 68.4997292370926 95.0
vertex 197.8657041734 82.2606889180658 95.0
endloop
endfacet
facet normal 0.0 0.0 1.0
outer loop
vertex 197.8657041734 82.2606889180658 95.0
vertex 196.226954179619 68.4997292370926 95.0
vertex 198.044941706368 67.7729102121176 95.0
endloop
endfacet
facet normal 0.0 0.0 1.0
outer loop
vertex 197.8657041734 82.2606889180658 95.0
vertex 198.044941706368 67.7729102121176 95.0
vertex 199.803537067815 82.5402389418581 95.0
endloop
endfacet
facet normal 0.0 0.0 1.0
outer loop
vertex 199.803537067815 82.5402389418581 95.0
vertex 198.044941706368 67.7729102121176 95.0
vertex 199.989097416332 67.5413867405375 95.0
endloop
endfacet
facet normal 0.0 0.0 1.0
outer loop
vertex 199.803537067815 82.5402389418581 95.0
vertex 199.989097416332 67.5413867405375 95.0
vertex 201.747692777779 82.3087154702779 95.0
endloop
endfacet
facet normal 0.0 0.0 1.0
outer loop
vertex 201.747692777779 82.3087154702779 95.0
vertex 199.989097416332 67.5413867405375 95.0
vertex 201.926930310747 67.8209367643298 95.0
endloop
endfacet
facet normal 0.0 0.0 1.0
outer loop
vertex 201.747692777779 82.3087154702779 95.0
vertex 201.926930310747 67.8209367643298 95.0
vertex 203.565680304528 81.581896445303 95.0
endloop
endfacet
facet normal 0.0 0.0 1.0
outer loop
vertex 203.565680304528 81.581896445303 95.0
vertex 201.926930310747 67.8209367643298 95.0
vertex 203.726380280279 68.5925094113513 95.0
endloop
endfacet
facet normal 0.0 0.0 1.0
outer loop
vertex 203.565680304528 81.581896445303 95.0
vertex 203.726380280279 68.5925094113513 95.0
vertex 205.13360680248 80.40931338236 95.0
endloop
endfacet
facet normal 0.0 0.0 1.0
outer loop
vertex 205.13360680248 80.40931338236 95.0
vertex 203.726380280279 68.5925094113513 95.0
vertex 205.264817783236 69.8035232807915 95.0
endloop
endfacet
facet normal 0.0 0.0 1.0
outer loop
vertex 205.13360680248 80.40931338236 95.0
vertex 205.264817783236 69.8035232807915 95.0
vertex 206.34462067192 78.8708758794035 95.0
endloop
endfacet
facet normal 0.0 0.0 1.0
outer loop
vertex 206.34462067192 78.8708758794035 95.0
vertex 205.264817783236 69.8035232807915 95.0
vertex 206.437400846179 71.3714497787432 95.0
endloop
endfacet
facet normal 0.0 0.0 1.0
outer loop
vertex 206.34462067192 78.8708758794035 95.0
vertex 206.437400846179 71.3714497787432 95.0
vertex 207.116193318941 77.0714259098717 95.0
endloop
endfacet
facet normal 0.0 0.0 1.0
outer loop
vertex 207.116193318941 77.0714259098717 95.0
vertex 206.437400846179 71.3714497787432 95.0
vertex 207.164219871154 73.189437305492 95.0
endloop
endfacet
facet normal 0.0 0.0 1.0
outer loop
vertex 207.116193318941 77.0714259098717 95.0
vertex 207.164219871154 73.189437305492 95.0
vertex 207.395743342734 75.1335930154565 95.0
endloop
endfacet
facet normal -6.93889390390723e-017 0.0 1.0
outer loop
vertex 191.232465949832 72.6040771587891 100.0
vertex 191.174834087177 77.2624634840447 100.0
vertex 190.897005921281 74.9294766320873 100.0
endloop
endfacet
facet normal -6.93889390390723e-017 0.0 1.0
outer loop
vertex 191.174834087177 77.2624634840447 100.0
vertex 191.232465949832 72.6040771587891 100.0
vertex 192.047016917147 79.4440485161432 100.0
endloop
endfacet
facet normal -6.93889390390723e-017 0.0 1.0
outer loop
vertex 192.047016917147 79.4440485161432 100.0
vertex 191.232465949832 72.6040771587891 100.0
vertex 192.158353126258 70.4447371953509 100.0
endloop
endfacet
facet normal -6.93889390390723e-017 0.0 1.0
outer loop
vertex 192.047016917147 79.4440485161432 100.0
vertex 192.158353126258 70.4447371953509 100.0
vertex 193.454116592679 81.3255603136853 100.0
endloop
endfacet
facet normal -6.93889390390723e-017 0.0 1.0
outer loop
vertex 193.454116592679 81.3255603136853 100.0
vertex 192.158353126258 70.4447371953509 100.0
vertex 193.611569769586 68.5986121918031 100.0
endloop
endfacet
facet normal -6.93889390390723e-017 0.0 1.0
outer loop
vertex 193.454116592679 81.3255603136853 100.0
vertex 193.611569769586 68.5986121918031 100.0
vertex 195.300241596227 82.7787769570136 100.0
endloop
endfacet
facet normal -6.93889390390723e-017 0.0 1.0
outer loop
vertex 195.300241596227 82.7787769570136 100.0
vertex 193.611569769586 68.5986121918031 100.0
vertex 195.493081567128 67.1915125162715 100.0
endloop
endfacet
facet normal -6.93889390390723e-017 0.0 1.0
outer loop
vertex 195.300241596227 82.7787769570136 100.0
vertex 195.493081567128 67.1915125162715 100.0
vertex 197.459581559665 83.7046641334394 100.0
endloop
endfacet
facet normal -6.93889390390723e-017 0.0 1.0
outer loop
vertex 197.459581559665 83.7046641334394 100.0
vertex 195.493081567128 67.1915125162715 100.0
vertex 197.674666599227 66.3193296863016 100.0
endloop
endfacet
facet normal -6.93889390390723e-017 0.0 1.0
outer loop
vertex 197.459581559665 83.7046641334394 100.0
vertex 197.674666599227 66.3193296863016 100.0
vertex 199.784981032963 84.0401241619901 100.0
endloop
endfacet
facet normal -6.93889390390723e-017 0.0 1.0
outer loop
vertex 199.784981032963 84.0401241619901 100.0
vertex 197.674666599227 66.3193296863016 100.0
vertex 200.007653451184 66.0415015204055 100.0
endloop
endfacet
facet normal -6.93889390390723e-017 0.0 1.0
outer loop
vertex 199.784981032963 84.0401241619901 100.0
vertex 200.007653451184 66.0415015204055 100.0
vertex 202.11796788492 83.762295996094 100.0
endloop
endfacet
facet normal -6.93889390390723e-017 0.0 1.0
outer loop
vertex 202.11796788492 83.762295996094 100.0
vertex 200.007653451184 66.0415015204055 100.0
vertex 202.333052924482 66.3769615489562 100.0
endloop
endfacet
facet normal -6.93889390390723e-017 0.0 1.0
outer loop
vertex 202.11796788492 83.762295996094 100.0
vertex 202.333052924482 66.3769615489562 100.0
vertex 204.299552917019 82.890113166124 100.0
endloop
endfacet
facet normal -6.93889390390723e-017 0.0 1.0
outer loop
vertex 204.299552917019 82.890113166124 100.0
vertex 202.333052924482 66.3769615489562 100.0
vertex 204.49239288792 67.3028487253819 100.0
endloop
endfacet
facet normal -6.93889390390723e-017 0.0 1.0
outer loop
vertex 204.299552917019 82.890113166124 100.0
vertex 204.49239288792 67.3028487253819 100.0
vertex 206.181064714561 81.4830134905925 100.0
endloop
endfacet
facet normal -6.93889390390723e-017 0.0 1.0
outer loop
vertex 206.181064714561 81.4830134905925 100.0
vertex 204.49239288792 67.3028487253819 100.0
vertex 206.338517891468 68.7560653687103 100.0
endloop
endfacet
facet normal -6.93889390390723e-017 0.0 1.0
outer loop
vertex 206.181064714561 81.4830134905925 100.0
vertex 206.338517891468 68.7560653687103 100.0
vertex 207.634281357889 79.6368884870446 100.0
endloop
endfacet
facet normal -6.93889390390723e-017 0.0 1.0
outer loop
vertex 207.634281357889 79.6368884870446 100.0
vertex 206.338517891468 68.7560653687103 100.0
vertex 207.745617567 70.6375771662523 100.0
endloop
endfacet
facet normal -6.93889390390723e-017 0.0 1.0
outer loop
vertex 207.634281357889 79.6368884870446 100.0
vertex 207.745617567 70.6375771662523 100.0
vertex 208.560168534315 77.4775485236065 100.0
endloop
endfacet
facet normal -6.93889390390723e-017 0.0 1.0
outer loop
vertex 208.560168534315 77.4775485236065 100.0
vertex 207.745617567 70.6375771662523 100.0
vertex 208.61780039697 72.8191621983509 100.0
endloop
endfacet
facet normal -6.93889390390723e-017 0.0 1.0
outer loop
vertex 208.560168534315 77.4775485236065 100.0
vertex 208.61780039697 72.8191621983509 100.0
vertex 208.895628562866 75.1521490503082 100.0
endloop
endfacet
facet normal 0.0 2.35621065561291e-032 1.0
outer loop
vertex 192.676441165205 73.0101997725239 4.99999999999999
vertex 192.628414612993 76.8921883769035 4.99999999999999
vertex 192.396891141413 74.9480326669391 4.99999999999999
endloop
endfacet
facet normal 0.0 2.35621065561291e-032 1.0
outer loop
vertex 192.628414612993 76.8921883769035 4.99999999999999
vertex 192.676441165205 73.0101997725239 4.99999999999999
vertex 193.355233637968 78.7101759036523 4.99999999999999
endloop
endfacet
facet normal 0.0 2.35621065561291e-032 1.0
outer loop
vertex 193.355233637968 78.7101759036523 4.99999999999999
vertex 192.676441165205 73.0101997725239 4.99999999999999
vertex 193.448013812227 71.2107498029921 4.99999999999999
endloop
endfacet
facet normal 0.0 2.35621065561291e-032 1.0
outer loop
vertex 193.355233637968 78.7101759036523 4.99999999999999
vertex 193.448013812227 71.2107498029921 4.99999999999999
vertex 194.527816700911 80.2781024016041 4.99999999999999
endloop
endfacet
facet normal 0.0 2.35621065561291e-032 1.0
outer loop
vertex 194.527816700911 80.2781024016041 4.99999999999999
vertex 193.448013812227 71.2107498029921 4.99999999999999
vertex 194.659027681667 69.6723123000355 4.99999999999999
endloop
endfacet
facet normal 0.0 2.35621065561291e-032 1.0
outer loop
vertex 194.527816700911 80.2781024016041 4.99999999999999
vertex 194.659027681667 69.6723123000355 4.99999999999999
vertex 196.066254203868 81.4891162710443 4.99999999999999
endloop
endfacet
facet normal 0.0 2.35621065561291e-032 1.0
outer loop
vertex 196.066254203868 81.4891162710443 4.99999999999999
vertex 194.659027681667 69.6723123000355 4.99999999999999
vertex 196.226954179619 68.4997292370926 4.99999999999999
endloop
endfacet
facet normal 0.0 2.35621065561291e-032 1.0
outer loop
vertex 196.066254203868 81.4891162710443 4.99999999999999
vertex 196.226954179619 68.4997292370926 4.99999999999999
vertex 197.8657041734 82.2606889180658 4.99999999999999
endloop
endfacet
facet normal 0.0 2.35621065561291e-032 1.0
outer loop
vertex 197.8657041734 82.2606889180658 4.99999999999999
vertex 196.226954179619 68.4997292370926 4.99999999999999
vertex 198.044941706368 67.7729102121176 4.99999999999999
endloop
endfacet
facet normal 0.0 2.35621065561291e-032 1.0
outer loop
vertex 197.8657041734 82.2606889180658 4.99999999999999
vertex 198.044941706368 67.7729102121176 4.99999999999999
vertex 199.803537067815 82.5402389418581 4.99999999999999
endloop
endfacet
facet normal 0.0 2.35621065561291e-032 1.0
outer loop
vertex 199.803537067815 82.5402389418581 4.99999999999999
vertex 198.044941706368 67.7729102121176 4.99999999999999
vertex 199.989097416332 67.5413867405375 4.99999999999999
endloop
endfacet
facet normal 0.0 2.35621065561291e-032 1.0
outer loop
vertex 199.803537067815 82.5402389418581 4.99999999999999
vertex 199.989097416332 67.5413867405375 4.99999999999999
vertex 201.747692777779 82.3087154702779 4.99999999999999
endloop
endfacet
facet normal 0.0 2.35621065561291e-032 1.0
outer loop
vertex 201.747692777779 82.3087154702779 4.99999999999999
vertex 199.989097416332 67.5413867405375 4.99999999999999
vertex 201.926930310747 67.8209367643298 4.99999999999999
endloop
endfacet
facet normal 0.0 2.35621065561291e-032 1.0
outer loop
vertex 201.747692777779 82.3087154702779 4.99999999999999
vertex 201.926930310747 67.8209367643298 4.99999999999999
vertex 203.565680304528 81.581896445303 4.99999999999999
endloop
endfacet
facet normal 0.0 2.35621065561291e-032 1.0
outer loop
vertex 203.565680304528 81.581896445303 4.99999999999999
vertex 201.926930310747 67.8209367643298 4.99999999999999
vertex 203.726380280279 68.5925094113513 4.99999999999999
endloop
endfacet
facet normal 0.0 2.35621065561291e-032 1.0
outer loop
vertex 203.565680304528 81.581896445303 4.99999999999999
vertex 203.726380280279 68.5925094113513 4.99999999999999
vertex 205.13360680248 80.40931338236 4.99999999999999
endloop
endfacet
facet normal 0.0 2.35621065561291e-032 1.0
outer loop
vertex 205.13360680248 80.40931338236 4.99999999999999
vertex 203.726380280279 68.5925094113513 4.99999999999999
vertex 205.264817783236 69.8035232807915 4.99999999999999
endloop
endfacet
facet normal 0.0 2.35621065561291e-032 1.0
outer loop
vertex 205.13360680248 80.40931338236 4.99999999999999
vertex 205.264817783236 69.8035232807915 4.99999999999999
vertex 206.34462067192 78.8708758794035 4.99999999999999
endloop
endfacet
facet normal 0.0 2.35621065561291e-032 1.0
outer loop
vertex 206.34462067192 78.8708758794035 4.99999999999999
vertex 205.264817783236 69.8035232807915 4.99999999999999
vertex 206.437400846179 71.3714497787432 4.99999999999999
endloop
endfacet
facet normal 0.0 2.35621065561291e-032 1.0
outer loop
vertex 206.34462067192 78.8708758794035 4.99999999999999
vertex 206.437400846179 71.3714497787432 4.99999999999999
vertex 207.116193318941 77.0714259098717 4.99999999999999
endloop
endfacet
facet normal 0.0 2.35621065561291e-032 1.0
outer loop
vertex 207.116193318941 77.0714259098717 4.99999999999999
vertex 206.437400846179 71.3714497787432 4.99999999999999
vertex 207.164219871154 73.189437305492 4.99999999999999
endloop
endfacet
facet normal 0.0 2.35621065561291e-032 1.0
outer loop
vertex 207.116193318941 77.0714259098717 4.99999999999999
vertex 207.164219871154 73.189437305492 4.99999999999999
vertex 207.395743342734 75.1335930154565 4.99999999999999
endloop
endfacet
facet normal 0.928185090208117 -0.236439486921914 -0.287347885566348
outer loop
vertex 207.164219871154 73.189437305492 4.99999999999999
vertex 208.895628562866 75.1521490503082 9.99999999999998
vertex 208.61780039697 72.8191621983509 9.99999999999998
endloop
endfacet
facet normal 0.957752992438129 0.0118489719536482 -0.287347885566348
outer loop
vertex 208.895628562866 75.1521490503082 9.99999999999998
vertex 207.164219871154 73.189437305492 4.99999999999999
vertex 207.395743342734 75.1335930154565 4.99999999999999
endloop
endfacet
facet normal -0.0118489719536504 0.95775299243813 -0.287347885566346
outer loop
vertex 199.784981032963 84.0401241619901 9.99999999999998
vertex 201.747692777779 82.3087154702779 4.99999999999999
vertex 199.803537067815 82.5402389418581 4.99999999999999
endloop
endfacet
facet normal 0.236439486921913 0.928185090208118 -0.287347885566346
outer loop
vertex 201.747692777779 82.3087154702779 4.99999999999999
vertex 199.784981032963 84.0401241619901 9.99999999999998
vertex 202.11796788492 83.762295996094 9.99999999999998
endloop
endfacet
facet normal 0.0118489719536495 -0.957752992438129 -0.287347885566347
outer loop
vertex 200.007653451184 66.0415015204055 9.99999999999998
vertex 198.044941706368 67.7729102121176 4.99999999999999
vertex 199.989097416332 67.5413867405375 4.99999999999999
endloop
endfacet
facet normal -0.236439486921915 -0.928185090208117 -0.287347885566347
outer loop
vertex 198.044941706368 67.7729102121176 4.99999999999999
vertex 200.007653451184 66.0415015204055 9.99999999999998
vertex 197.674666599227 66.3193296863016 9.99999999999998
endloop
endfacet
facet normal 0.668855147236195 0.685612124073224 -0.287347885566347
outer loop
vertex 205.13360680248 80.40931338236 4.99999999999999
vertex 207.634281357889 79.6368884870446 9.99999999999998
vertex 206.34462067192 78.8708758794035 4.99999999999999
endloop
endfacet
facet normal 0.823513936025161 0.489138006939654 -0.287347885566347
outer loop
vertex 207.634281357889 79.6368884870446 9.99999999999998
vertex 205.13360680248 80.40931338236 4.99999999999999
vertex 206.181064714561 81.4830134905925 9.99999999999998
endloop
endfacet
facet normal -0.823513936025161 -0.489138006939654 -0.287347885566347
outer loop
vertex 192.158353126258 70.4447371953509 9.99999999999998
vertex 194.659027681667 69.6723123000355 4.99999999999999
vertex 193.611569769586 68.5986121918031 9.99999999999998
endloop
endfacet
facet normal -0.668855147236192 -0.685612124073227 -0.287347885566347
outer loop
vertex 194.659027681667 69.6723123000355 4.99999999999999
vertex 192.158353126258 70.4447371953509 9.99999999999998
vertex 193.448013812227 71.2107498029921 4.99999999999999
endloop
endfacet
facet normal 0.823513936025161 0.489138006939654 -0.287347885566347
outer loop
vertex 206.34462067192 78.8708758794035 4.99999999999999
vertex 208.560168534315 77.4775485236064 9.99999999999998
vertex 207.116193318941 77.0714259098717 4.99999999999999
endloop
endfacet
facet normal 0.922051610995137 0.259329942971924 -0.287347885566347
outer loop
vertex 208.560168534315 77.4775485236064 9.99999999999998
vertex 206.34462067192 78.8708758794035 4.99999999999999
vertex 207.634281357889 79.6368884870446 9.99999999999998
endloop
endfacet
facet normal -0.685612124073225 0.668855147236194 -0.287347885566347
outer loop
vertex 193.454116592679 81.3255603136853 9.99999999999998
vertex 196.066254203868 81.4891162710443 4.99999999999999
vertex 194.527816700911 80.2781024016041 4.99999999999999
endloop
endfacet
facet normal -0.489138006939655 0.823513936025161 -0.287347885566346
outer loop
vertex 196.066254203868 81.4891162710443 4.99999999999999
vertex 193.454116592679 81.3255603136853 9.99999999999998
vertex 195.300241596227 82.7787769570136 9.99999999999998
endloop
endfacet
facet normal 0.685612124073225 -0.668855147236194 -0.287347885566346
outer loop
vertex 206.338517891468 68.7560653687103 9.99999999999998
vertex 203.726380280279 68.5925094113513 4.99999999999999
vertex 205.264817783236 69.8035232807915 4.99999999999999
endloop
endfacet
facet normal 0.489138006939654 -0.823513936025161 -0.287347885566346
outer loop
vertex 203.726380280279 68.5925094113513 4.99999999999999
vertex 206.338517891468 68.7560653687103 9.99999999999998
vertex 204.49239288792 67.3028487253819 9.99999999999998
endloop
endfacet
facet normal -0.236439486921916 -0.928185090208117 -0.287347885566347
outer loop
vertex 197.674666599227 66.3193296863016 9.99999999999998
vertex 196.226954179619 68.4997292370926 4.99999999999999
vertex 198.044941706368 67.7729102121176 4.99999999999999
endloop
endfacet
facet normal -0.468614985498473 -0.835362907978811 -0.287347885566347
outer loop
vertex 196.226954179619 68.4997292370926 4.99999999999999
vertex 197.674666599227 66.3193296863016 9.99999999999998
vertex 195.493081567128 67.1915125162715 9.99999999999998
endloop
endfacet
facet normal -0.489138006939655 0.823513936025161 -0.287347885566346
outer loop
vertex 195.300241596227 82.7787769570136 9.99999999999998
vertex 197.8657041734 82.2606889180658 4.99999999999999
vertex 196.066254203868 81.4891162710443 4.99999999999999
endloop
endfacet
facet normal -0.259329942971925 0.922051610995137 -0.287347885566346
outer loop
vertex 197.8657041734 82.2606889180658 4.99999999999999
vertex 195.300241596227 82.7787769570136 9.99999999999998
vertex 197.459581559665 83.7046641334394 9.99999999999998
endloop
endfacet
facet normal 0.489138006939653 -0.823513936025162 -0.287347885566346
outer loop
vertex 204.49239288792 67.3028487253819 9.99999999999998
vertex 201.926930310747 67.8209367643298 4.99999999999999
vertex 203.726380280279 68.5925094113513 4.99999999999999
endloop
endfacet
facet normal 0.259329942971923 -0.922051610995138 -0.287347885566347
outer loop
vertex 201.926930310747 67.8209367643298 4.99999999999999
vertex 204.49239288792 67.3028487253819 9.99999999999998
vertex 202.333052924482 66.3769615489562 9.99999999999998
endloop
endfacet
facet normal 0.685612124073225 -0.668855147236194 -0.287347885566346
outer loop
vertex 205.264817783236 69.8035232807915 4.99999999999999
vertex 207.745617567 70.6375771662523 9.99999999999998
vertex 206.338517891468 68.7560653687103 9.99999999999998
endloop
endfacet
facet normal 0.835362907978812 -0.468614985498472 -0.287347885566347
outer loop
vertex 207.745617567 70.6375771662523 9.99999999999998
vertex 205.264817783236 69.8035232807915 4.99999999999999
vertex 206.437400846179 71.3714497787432 4.99999999999999
endloop
endfacet
facet normal 0.922051610995137 0.259329942971924 -0.287347885566347
outer loop
vertex 207.116193318941 77.0714259098717 4.99999999999999
vertex 208.895628562866 75.1521490503082 9.99999999999998
vertex 207.395743342734 75.1335930154565 4.99999999999999
endloop
endfacet
facet normal 0.957752992438129 0.0118489719536482 -0.287347885566348
outer loop
vertex 208.895628562866 75.1521490503082 9.99999999999998
vertex 207.116193318941 77.0714259098717 4.99999999999999
vertex 208.560168534315 77.4775485236064 9.99999999999998
endloop
endfacet
facet normal -0.957752992438129 -0.0118489719536482 -0.287347885566348
outer loop
vertex 190.897005921281 74.9294766320874 9.99999999999998
vertex 192.676441165205 73.0101997725239 4.99999999999999
vertex 191.232465949832 72.6040771587891 9.99999999999998
endloop
endfacet
facet normal -0.922051610995138 -0.259329942971924 -0.287347885566347
outer loop
vertex 192.676441165205 73.0101997725239 4.99999999999999
vertex 190.897005921281 74.9294766320874 9.99999999999998
vertex 192.396891141413 74.9480326669391 4.99999999999999
endloop
endfacet
facet normal -0.835362907978812 0.46861498549847 -0.287347885566348
outer loop
vertex 192.047016917147 79.4440485161432 9.99999999999998
vertex 194.527816700911 80.2781024016041 4.99999999999999
vertex 193.355233637968 78.7101759036523 4.99999999999999
endloop
endfacet
facet normal -0.685612124073225 0.668855147236194 -0.287347885566347
outer loop
vertex 194.527816700911 80.2781024016041 4.99999999999999
vertex 192.047016917147 79.4440485161432 9.99999999999998
vertex 193.454116592679 81.3255603136853 9.99999999999998
endloop
endfacet
facet normal -0.928185090208118 0.236439486921912 -0.287347885566349
outer loop
vertex 191.174834087177 77.2624634840447 9.99999999999998
vertex 193.355233637968 78.7101759036523 4.99999999999999
vertex 192.628414612993 76.8921883769035 4.99999999999999
endloop
endfacet
facet normal -0.835362907978812 0.468614985498471 -0.287347885566348
outer loop
vertex 193.355233637968 78.7101759036523 4.99999999999999
vertex 191.174834087177 77.2624634840447 9.99999999999998
vertex 192.047016917147 79.4440485161432 9.99999999999998
endloop
endfacet
facet normal -0.468614985498474 -0.835362907978811 -0.287347885566347
outer loop
vertex 195.493081567128 67.1915125162715 9.99999999999998
vertex 194.659027681667 69.6723123000355 4.99999999999999
vertex 196.226954179619 68.4997292370926 4.99999999999999
endloop
endfacet
facet normal -0.668855147236192 -0.685612124073227 -0.287347885566347
outer loop
vertex 194.659027681667 69.6723123000355 4.99999999999999
vertex 195.493081567128 67.1915125162715 9.99999999999998
vertex 193.611569769586 68.5986121918031 9.99999999999998
endloop
endfacet
facet normal -0.922051610995138 -0.259329942971924 -0.287347885566347
outer loop
vertex 191.232465949832 72.6040771587891 9.99999999999998
vertex 193.448013812227 71.2107498029921 4.99999999999999
vertex 192.158353126258 70.4447371953509 9.99999999999998
endloop
endfacet
facet normal -0.823513936025161 -0.489138006939654 -0.287347885566347
outer loop
vertex 193.448013812227 71.2107498029921 4.99999999999999
vertex 191.232465949832 72.6040771587891 9.99999999999998
vertex 192.676441165205 73.0101997725239 4.99999999999999
endloop
endfacet
facet normal -0.259329942971925 0.922051610995138 -0.287347885566346
outer loop
vertex 197.459581559665 83.7046641334394 9.99999999999998
vertex 199.803537067815 82.5402389418581 4.99999999999999
vertex 197.8657041734 82.2606889180658 4.99999999999999
endloop
endfacet
facet normal -0.0118489719536503 0.95775299243813 -0.287347885566346
outer loop
vertex 199.803537067815 82.5402389418581 4.99999999999999
vertex 197.459581559665 83.7046641334394 9.99999999999998
vertex 199.784981032963 84.0401241619901 9.99999999999998
endloop
endfacet
facet normal 0.236439486921914 0.928185090208118 -0.287347885566346
outer loop
vertex 202.11796788492 83.762295996094 9.99999999999998
vertex 203.565680304528 81.581896445303 4.99999999999999
vertex 201.747692777779 82.3087154702779 4.99999999999999
endloop
endfacet
facet normal 0.468614985498476 0.83536290797881 -0.287347885566346
outer loop
vertex 203.565680304528 81.581896445303 4.99999999999999
vertex 202.11796788492 83.762295996094 9.99999999999998
vertex 204.299552917019 82.8901131661241 9.99999999999998
endloop
endfacet
facet normal 0.468614985498475 0.83536290797881 -0.287347885566346
outer loop
vertex 204.299552917019 82.8901131661241 9.99999999999998
vertex 205.13360680248 80.40931338236 4.99999999999999
vertex 203.565680304528 81.581896445303 4.99999999999999
endloop
endfacet
facet normal 0.668855147236195 0.685612124073224 -0.287347885566347
outer loop
vertex 205.13360680248 80.40931338236 4.99999999999999
vertex 204.299552917019 82.8901131661241 9.99999999999998
vertex 206.181064714561 81.4830134905925 9.99999999999998
endloop
endfacet
facet normal -0.928185090208118 0.236439486921912 -0.287347885566349
outer loop
vertex 191.174834087177 77.2624634840447 9.99999999999998
vertex 192.396891141413 74.9480326669391 4.99999999999999
vertex 190.897005921281 74.9294766320874 9.99999999999998
endloop
endfacet
facet normal -0.957752992438129 -0.0118489719536483 -0.287347885566348
outer loop
vertex 192.396891141413 74.9480326669391 4.99999999999999
vertex 191.174834087177 77.2624634840447 9.99999999999998
vertex 192.628414612993 76.8921883769035 4.99999999999999
endloop
endfacet
facet normal 0.835362907978812 -0.468614985498472 -0.287347885566347
outer loop
vertex 206.437400846179 71.3714497787432 4.99999999999999
vertex 208.61780039697 72.8191621983509 9.99999999999998
vertex 207.745617567 70.6375771662523 9.99999999999998
endloop
endfacet
facet normal 0.928185090208118 -0.236439486921914 -0.287347885566348
outer loop
vertex 208.61780039697 72.8191621983509 9.99999999999998
vertex 206.437400846179 71.3714497787432 4.99999999999999
vertex 207.164219871154 73.189437305492 4.99999999999999
endloop
endfacet
facet normal 0.259329942971923 -0.922051610995138 -0.287347885566347
outer loop
vertex 202.333052924482 66.3769615489562 9.99999999999998
vertex 199.989097416332 67.5413867405375 4.99999999999999
vertex 201.926930310747 67.8209367643298 4.99999999999999
endloop
endfacet
facet normal 0.0118489719536508 -0.957752992438129 -0.287347885566347
outer loop
vertex 199.989097416332 67.5413867405375 4.99999999999999
vertex 202.333052924482 66.3769615489562 9.99999999999998
vertex 200.007653451184 66.0415015204055 9.99999999999998
endloop
endfacet
facet normal -0.922051610995138 -0.259329942971924 0.287347885566346
outer loop
vertex 192.676441165205 73.0101997725239 4.99999999999999
vertex 190.897005921281 74.9294766320873 0.0
vertex 191.232465949832 72.6040771587891 0.0
endloop
endfacet
facet normal -0.95775299243813 -0.0118489719536487 0.287347885566346
outer loop
vertex 190.897005921281 74.9294766320873 0.0
vertex 192.676441165205 73.0101997725239 4.99999999999999
vertex 192.396891141413 74.9480326669391 4.99999999999999
endloop
endfacet
facet normal -0.95775299243813 -0.0118489719536485 0.287347885566346
outer loop
vertex 192.396891141413 74.9480326669391 4.99999999999999
vertex 191.174834087177 77.2624634840447 0.0
vertex 190.897005921281 74.9294766320873 0.0
endloop
endfacet
facet normal -0.928185090208118 0.236439486921912 0.287347885566347
outer loop
vertex 191.174834087177 77.2624634840447 0.0
vertex 192.396891141413 74.9480326669391 4.99999999999999
vertex 192.628414612993 76.8921883769035 4.99999999999999
endloop
endfacet
facet normal -0.0118489719536497 0.95775299243813 0.287347885566346
outer loop
vertex 199.803537067815 82.5402389418581 4.99999999999999
vertex 202.11796788492 83.762295996094 0.0
vertex 199.784981032963 84.0401241619901 0.0
endloop
endfacet
facet normal 0.236439486921912 0.928185090208119 0.287347885566346
outer loop
vertex 202.11796788492 83.762295996094 0.0
vertex 199.803537067815 82.5402389418581 4.99999999999999
vertex 201.747692777779 82.3087154702779 4.99999999999999
endloop
endfacet
facet normal -0.489138006939655 0.82351393602516 0.287347885566347
outer loop
vertex 196.066254203868 81.4891162710443 4.99999999999999
vertex 197.459581559665 83.7046641334394 0.0
vertex 195.300241596227 82.7787769570136 0.0
endloop
endfacet
facet normal -0.259329942971924 0.922051610995138 0.287347885566346
outer loop
vertex 197.459581559665 83.7046641334394 0.0
vertex 196.066254203868 81.4891162710443 4.99999999999999
vertex 197.8657041734 82.2606889180658 4.99999999999999
endloop
endfacet
facet normal -0.685612124073227 0.668855147236192 0.287347885566347
outer loop
vertex 194.527816700911 80.2781024016041 4.99999999999999
vertex 192.047016917147 79.4440485161433 0.0
vertex 193.355233637968 78.7101759036523 4.99999999999999
endloop
endfacet
facet normal -0.835362907978812 0.468614985498472 0.287347885566347
outer loop
vertex 192.047016917147 79.4440485161433 0.0
vertex 194.527816700911 80.2781024016041 4.99999999999999
vertex 193.454116592679 81.3255603136853 0.0
endloop
endfacet
facet normal -0.685612124073227 0.668855147236192 0.287347885566347
outer loop
vertex 194.527816700911 80.2781024016041 4.99999999999999
vertex 195.300241596227 82.7787769570136 0.0
vertex 193.454116592679 81.3255603136853 0.0
endloop
endfacet
facet normal -0.489138006939656 0.82351393602516 0.287347885566347
outer loop
vertex 195.300241596227 82.7787769570136 0.0
vertex 194.527816700911 80.2781024016041 4.99999999999999
vertex 196.066254203868 81.4891162710443 4.99999999999999
endloop
endfacet
facet normal -0.835362907978812 0.468614985498472 0.287347885566347
outer loop
vertex 193.355233637968 78.7101759036523 4.99999999999999
vertex 191.174834087177 77.2624634840447 0.0
vertex 192.628414612993 76.8921883769035 4.99999999999999
endloop
endfacet
facet normal -0.928185090208118 0.236439486921912 0.287347885566347
outer loop
vertex 191.174834087177 77.2624634840447 0.0
vertex 193.355233637968 78.7101759036523 4.99999999999999
vertex 192.047016917147 79.4440485161433 0.0
endloop
endfacet
facet normal -0.259329942971924 0.922051610995138 0.287347885566346
outer loop
vertex 197.8657041734 82.2606889180658 4.99999999999999
vertex 199.784981032963 84.0401241619901 0.0
vertex 197.459581559665 83.7046641334394 0.0
endloop
endfacet
facet normal -0.0118489719536492 0.95775299243813 0.287347885566346
outer loop
vertex 199.784981032963 84.0401241619901 0.0
vertex 197.8657041734 82.2606889180658 4.99999999999999
vertex 199.803537067815 82.5402389418581 4.99999999999999
endloop
endfacet
facet normal 0.236439486921912 0.928185090208119 0.287347885566346
outer loop
vertex 201.747692777779 82.3087154702779 4.99999999999999
vertex 204.299552917019 82.8901131661241 0.0
vertex 202.11796788492 83.762295996094 0.0
endloop
endfacet
facet normal 0.468614985498474 0.835362907978811 0.287347885566347
outer loop
vertex 204.299552917019 82.8901131661241 0.0
vertex 201.747692777779 82.3087154702779 4.99999999999999
vertex 203.565680304528 81.581896445303 4.99999999999999
endloop
endfacet
facet normal 0.928185090208117 -0.236439486921914 0.287347885566348
outer loop
vertex 208.61780039697 72.8191621983509 0.0
vertex 206.437400846179 71.3714497787432 4.99999999999999
vertex 207.745617567 70.6375771662523 0.0
endloop
endfacet
facet normal 0.835362907978811 -0.468614985498472 0.287347885566347
outer loop
vertex 206.437400846179 71.3714497787432 4.99999999999999
vertex 208.61780039697 72.8191621983509 0.0
vertex 207.164219871154 73.189437305492 4.99999999999999
endloop
endfacet
facet normal 0.685612124073226 -0.668855147236193 0.287347885566347
outer loop
vertex 205.264817783236 69.8035232807915 4.99999999999999
vertex 204.49239288792 67.3028487253819 0.0
vertex 206.338517891468 68.7560653687103 0.0
endloop
endfacet
facet normal 0.489138006939654 -0.82351393602516 0.287347885566348
outer loop
vertex 204.49239288792 67.3028487253819 0.0
vertex 205.264817783236 69.8035232807915 4.99999999999999
vertex 203.726380280279 68.5925094113513 4.99999999999999
endloop
endfacet
facet normal -0.236439486921913 -0.928185090208118 0.287347885566347
outer loop
vertex 198.044941706368 67.7729102121176 4.99999999999999
vertex 195.493081567128 67.1915125162715 0.0
vertex 197.674666599227 66.3193296863016 0.0
endloop
endfacet
facet normal -0.468614985498473 -0.835362907978811 0.287347885566347
outer loop
vertex 195.493081567128 67.1915125162715 0.0
vertex 198.044941706368 67.7729102121176 4.99999999999999
vertex 196.226954179619 68.4997292370926 4.99999999999999
endloop
endfacet
facet normal 0.835362907978811 -0.468614985498473 0.287347885566347
outer loop
vertex 207.745617567 70.6375771662523 0.0
vertex 205.264817783236 69.8035232807915 4.99999999999999
vertex 206.338517891468 68.7560653687103 0.0
endloop
endfacet
facet normal 0.685612124073226 -0.668855147236193 0.287347885566347
outer loop
vertex 205.264817783236 69.8035232807915 4.99999999999999
vertex 207.745617567 70.6375771662523 0.0
vertex 206.437400846179 71.3714497787432 4.99999999999999
endloop
endfacet
facet normal 0.468614985498475 0.83536290797881 0.287347885566347
outer loop
vertex 203.565680304528 81.581896445303 4.99999999999999
vertex 206.181064714561 81.4830134905925 0.0
vertex 204.299552917019 82.8901131661241 0.0
endloop
endfacet
facet normal 0.668855147236197 0.685612124073222 0.287347885566347
outer loop
vertex 206.181064714561 81.4830134905925 0.0
vertex 203.565680304528 81.581896445303 4.99999999999999
vertex 205.13360680248 80.40931338236 4.99999999999999
endloop
endfacet
facet normal 0.922051610995137 0.259329942971925 0.287347885566347
outer loop
vertex 208.560168534315 77.4775485236064 0.0
vertex 206.34462067192 78.8708758794035 4.99999999999999
vertex 207.116193318941 77.0714259098717 4.99999999999999
endloop
endfacet
facet normal 0.823513936025161 0.489138006939654 0.287347885566346
outer loop
vertex 206.34462067192 78.8708758794035 4.99999999999999
vertex 208.560168534315 77.4775485236064 0.0
vertex 207.634281357889 79.6368884870446 0.0
endloop
endfacet
facet normal 0.0118489719536522 -0.957752992438129 0.287347885566347
outer loop
vertex 199.989097416332 67.5413867405375 4.99999999999999
vertex 197.674666599227 66.3193296863016 0.0
vertex 200.007653451184 66.0415015204055 0.0
endloop
endfacet
facet normal -0.236439486921913 -0.928185090208118 0.287347885566347
outer loop
vertex 197.674666599227 66.3193296863016 0.0
vertex 199.989097416332 67.5413867405375 4.99999999999999
vertex 198.044941706368 67.7729102121176 4.99999999999999
endloop
endfacet
facet normal 0.489138006939654 -0.823513936025161 0.287347885566348
outer loop
vertex 203.726380280279 68.5925094113513 4.99999999999999
vertex 202.333052924482 66.3769615489562 0.0
vertex 204.49239288792 67.3028487253819 0.0
endloop
endfacet
facet normal 0.259329942971924 -0.922051610995137 0.287347885566347
outer loop
vertex 202.333052924482 66.3769615489562 0.0
vertex 203.726380280279 68.5925094113513 4.99999999999999
vertex 201.926930310747 67.8209367643298 4.99999999999999
endloop
endfacet
facet normal 0.957752992438129 0.0118489719536478 0.287347885566348
outer loop
vertex 208.895628562866 75.1521490503082 0.0
vertex 207.164219871154 73.189437305492 4.99999999999999
vertex 208.61780039697 72.8191621983509 0.0
endloop
endfacet
facet normal 0.928185090208117 -0.236439486921915 0.287347885566348
outer loop
vertex 207.164219871154 73.189437305492 4.99999999999999
vertex 208.895628562866 75.1521490503082 0.0
vertex 207.395743342734 75.1335930154565 4.99999999999999
endloop
endfacet
facet normal -0.468614985498473 -0.835362907978811 0.287347885566347
outer loop
vertex 196.226954179619 68.4997292370926 4.99999999999999
vertex 193.611569769586 68.5986121918031 0.0
vertex 195.493081567128 67.1915125162715 0.0
endloop
endfacet
facet normal -0.668855147236194 -0.685612124073226 0.287347885566346
outer loop
vertex 193.611569769586 68.5986121918031 0.0
vertex 196.226954179619 68.4997292370926 4.99999999999999
vertex 194.659027681667 69.6723123000355 4.99999999999999
endloop
endfacet
facet normal -0.823513936025161 -0.489138006939656 0.287347885566345
outer loop
vertex 193.448013812227 71.2107498029921 4.99999999999999
vertex 191.232465949832 72.6040771587891 0.0
vertex 192.158353126258 70.4447371953509 0.0
endloop
endfacet
facet normal -0.922051610995138 -0.259329942971924 0.287347885566346
outer loop
vertex 191.232465949832 72.6040771587891 0.0
vertex 193.448013812227 71.2107498029921 4.99999999999999
vertex 192.676441165205 73.0101997725239 4.99999999999999
endloop
endfacet
facet normal 0.259329942971924 -0.922051610995138 0.287347885566347
outer loop
vertex 201.926930310747 67.8209367643298 4.99999999999999
vertex 200.007653451184 66.0415015204055 0.0
vertex 202.333052924482 66.3769615489562 0.0
endloop
endfacet
facet normal 0.0118489719536521 -0.957752992438129 0.287347885566347
outer loop
vertex 200.007653451184 66.0415015204055 0.0
vertex 201.926930310747 67.8209367643298 4.99999999999999
vertex 199.989097416332 67.5413867405375 4.99999999999999
endloop
endfacet
facet normal 0.823513936025161 0.489138006939654 0.287347885566346
outer loop
vertex 207.634281357889 79.6368884870446 0.0
vertex 205.13360680248 80.40931338236 4.99999999999999
vertex 206.34462067192 78.8708758794035 4.99999999999999
endloop
endfacet
facet normal 0.668855147236197 0.685612124073222 0.287347885566347
outer loop
vertex 205.13360680248 80.40931338236 4.99999999999999
vertex 207.634281357889 79.6368884870446 0.0
vertex 206.181064714561 81.4830134905925 0.0
endloop
endfacet
facet normal 0.957752992438129 0.0118489719536478 0.287347885566348
outer loop
vertex 208.895628562866 75.1521490503082 0.0
vertex 207.116193318941 77.0714259098717 4.99999999999999
vertex 207.395743342734 75.1335930154565 4.99999999999999
endloop
endfacet
facet normal 0.922051610995137 0.259329942971925 0.287347885566347
outer loop
vertex 207.116193318941 77.0714259098717 4.99999999999999
vertex 208.895628562866 75.1521490503082 0.0
vertex 208.560168534315 77.4775485236064 0.0
endloop
endfacet
facet normal -0.668855147236194 -0.685612124073225 0.287347885566346
outer loop
vertex 194.659027681667 69.6723123000355 4.99999999999999
vertex 192.158353126258 70.4447371953509 0.0
vertex 193.611569769586 68.5986121918031 0.0
endloop
endfacet
facet normal -0.823513936025161 -0.489138006939656 0.287347885566345
outer loop
vertex 192.158353126258 70.4447371953509 0.0
vertex 194.659027681667 69.6723123000355 4.99999999999999
vertex 193.448013812227 71.2107498029921 4.99999999999999
endloop
endfacet
facet normal -0.835362907978812 0.468614985498473 -0.287347885566346
outer loop
vertex 192.047016917147 79.4440485161432 100.0
vertex 194.527816700911 80.2781024016041 95.0
vertex 193.355233637968 78.7101759036523 95.0
endloop
endfacet
facet normal -0.685612124073228 0.668855147236192 -0.287347885566345
outer loop
vertex 194.527816700911 80.2781024016041 95.0
vertex 192.047016917147 79.4440485161432 100.0
vertex 193.454116592679 81.3255603136853 100.0
endloop
endfacet
facet normal 0.236439486921917 0.928185090208118 -0.287347885566345
outer loop
vertex 202.11796788492 83.762295996094 100.0
vertex 203.565680304528 81.581896445303 95.0
vertex 201.747692777779 82.3087154702779 95.0
endloop
endfacet
facet normal 0.468614985498473 0.835362907978812 -0.287347885566346
outer loop
vertex 203.565680304528 81.581896445303 95.0
vertex 202.11796788492 83.762295996094 100.0
vertex 204.299552917019 82.890113166124 100.0
endloop
endfacet
facet normal 0.685612124073228 -0.668855147236191 -0.287347885566346
outer loop
vertex 206.338517891468 68.7560653687103 100.0
vertex 203.726380280279 68.5925094113513 95.0
vertex 205.264817783236 69.8035232807915 95.0
endloop
endfacet
facet normal 0.489138006939655 -0.82351393602516 -0.287347885566347
outer loop
vertex 203.726380280279 68.5925094113513 95.0
vertex 206.338517891468 68.7560653687103 100.0
vertex 204.49239288792 67.3028487253819 100.0
endloop
endfacet
facet normal -0.259329942971924 0.922051610995138 -0.287347885566346
outer loop
vertex 197.459581559665 83.7046641334394 100.0
vertex 199.803537067815 82.5402389418581 95.0
vertex 197.8657041734 82.2606889180658 95.0
endloop
endfacet
facet normal -0.0118489719536482 0.95775299243813 -0.287347885566345
outer loop
vertex 199.803537067815 82.5402389418581 95.0
vertex 197.459581559665 83.7046641334394 100.0
vertex 199.784981032963 84.0401241619901 100.0
endloop
endfacet
facet normal -0.922051610995137 -0.259329942971927 -0.287347885566345
outer loop
vertex 191.232465949832 72.6040771587891 100.0
vertex 193.448013812227 71.2107498029921 95.0
vertex 192.158353126258 70.4447371953509 100.0
endloop
endfacet
facet normal -0.823513936025162 -0.489138006939653 -0.287347885566346
outer loop
vertex 193.448013812227 71.2107498029921 95.0
vertex 191.232465949832 72.6040771587891 100.0
vertex 192.676441165205 73.0101997725239 95.0
endloop
endfacet
facet normal -0.236439486921914 -0.928185090208118 -0.287347885566347
outer loop
vertex 197.674666599227 66.3193296863016 100.0
vertex 196.226954179619 68.4997292370926 95.0
vertex 198.044941706368 67.7729102121176 95.0
endloop
endfacet
facet normal -0.468614985498472 -0.835362907978812 -0.287347885566347
outer loop
vertex 196.226954179619 68.4997292370926 95.0
vertex 197.674666599227 66.3193296863016 100.0
vertex 195.493081567128 67.1915125162715 100.0
endloop
endfacet
facet normal -0.823513936025162 -0.489138006939653 -0.287347885566346
outer loop
vertex 192.158353126258 70.4447371953509 100.0
vertex 194.659027681667 69.6723123000355 95.0
vertex 193.611569769586 68.5986121918031 100.0
endloop
endfacet
facet normal -0.668855147236195 -0.685612124073224 -0.287347885566347
outer loop
vertex 194.659027681667 69.6723123000355 95.0
vertex 192.158353126258 70.4447371953509 100.0
vertex 193.448013812227 71.2107498029921 95.0
endloop
endfacet
facet normal 0.259329942971923 -0.922051610995138 -0.287347885566348
outer loop
vertex 202.333052924482 66.3769615489562 100.0
vertex 199.989097416332 67.5413867405375 95.0
vertex 201.926930310747 67.8209367643298 95.0
endloop
endfacet
facet normal 0.0118489719536508 -0.957752992438129 -0.287347885566347
outer loop
vertex 199.989097416332 67.5413867405375 95.0
vertex 202.333052924482 66.3769615489562 100.0
vertex 200.007653451184 66.0415015204055 100.0
endloop
endfacet
facet normal -0.685612124073227 0.668855147236192 -0.287347885566345
outer loop
vertex 193.454116592679 81.3255603136853 100.0
vertex 196.066254203868 81.4891162710443 95.0
vertex 194.527816700911 80.2781024016041 95.0
endloop
endfacet
facet normal -0.489138006939657 0.823513936025159 -0.287347885566347
outer loop
vertex 196.066254203868 81.4891162710443 95.0
vertex 193.454116592679 81.3255603136853 100.0
vertex 195.300241596227 82.7787769570136 100.0
endloop
endfacet
facet normal 0.928185090208118 -0.236439486921913 -0.287347885566346
outer loop
vertex 207.164219871154 73.189437305492 95.0
vertex 208.895628562866 75.1521490503082 100.0
vertex 208.61780039697 72.8191621983509 100.0
endloop
endfacet
facet normal 0.95775299243813 0.0118489719536512 -0.287347885566345
outer loop
vertex 208.895628562866 75.1521490503082 100.0
vertex 207.164219871154 73.189437305492 95.0
vertex 207.395743342734 75.1335930154565 95.0
endloop
endfacet
facet normal 0.489138006939655 -0.82351393602516 -0.287347885566347
outer loop
vertex 203.726380280279 68.5925094113513 95.0
vertex 202.333052924482 66.3769615489562 100.0
vertex 201.926930310747 67.8209367643298 95.0
endloop
endfacet
facet normal 0.259329942971923 -0.922051610995138 -0.287347885566348
outer loop
vertex 202.333052924482 66.3769615489562 100.0
vertex 203.726380280279 68.5925094113513 95.0
vertex 204.49239288792 67.3028487253819 100.0
endloop
endfacet
facet normal 0.823513936025162 0.489138006939651 -0.287347885566347
outer loop
vertex 206.34462067192 78.8708758794035 95.0
vertex 208.560168534315 77.4775485236065 100.0
vertex 207.116193318941 77.0714259098717 95.0
endloop
endfacet
facet normal 0.922051610995139 0.259329942971923 -0.287347885566345
outer loop
vertex 208.560168534315 77.4775485236065 100.0
vertex 206.34462067192 78.8708758794035 95.0
vertex 207.634281357889 79.6368884870446 100.0
endloop
endfacet
facet normal -0.489138006939657 0.823513936025159 -0.287347885566347
outer loop
vertex 195.300241596227 82.7787769570136 100.0
vertex 197.8657041734 82.2606889180658 95.0
vertex 196.066254203868 81.4891162710443 95.0
endloop
endfacet
facet normal -0.259329942971924 0.922051610995138 -0.287347885566346
outer loop
vertex 197.8657041734 82.2606889180658 95.0
vertex 195.300241596227 82.7787769570136 100.0
vertex 197.459581559665 83.7046641334394 100.0
endloop
endfacet
facet normal -0.468614985498472 -0.835362907978812 -0.287347885566347
outer loop
vertex 195.493081567128 67.1915125162715 100.0
vertex 194.659027681667 69.6723123000355 95.0
vertex 196.226954179619 68.4997292370926 95.0
endloop
endfacet
facet normal -0.668855147236195 -0.685612124073224 -0.287347885566347
outer loop
vertex 194.659027681667 69.6723123000355 95.0
vertex 195.493081567128 67.1915125162715 100.0
vertex 193.611569769586 68.5986121918031 100.0
endloop
endfacet
facet normal -0.928185090208118 0.236439486921912 -0.287347885566347
outer loop
vertex 191.174834087177 77.2624634840447 100.0
vertex 193.355233637968 78.7101759036523 95.0
vertex 192.628414612993 76.8921883769035 95.0
endloop
endfacet
facet normal -0.835362907978811 0.468614985498474 -0.287347885566346
outer loop
vertex 193.355233637968 78.7101759036523 95.0
vertex 191.174834087177 77.2624634840447 100.0
vertex 192.047016917147 79.4440485161432 100.0
endloop
endfacet
facet normal -0.0118489719536471 0.95775299243813 -0.287347885566345
outer loop
vertex 199.784981032963 84.0401241619901 100.0
vertex 201.747692777779 82.3087154702779 95.0
vertex 199.803537067815 82.5402389418581 95.0
endloop
endfacet
facet normal 0.236439486921916 0.928185090208118 -0.287347885566345
outer loop
vertex 201.747692777779 82.3087154702779 95.0
vertex 199.784981032963 84.0401241619901 100.0
vertex 202.11796788492 83.762295996094 100.0
endloop
endfacet
facet normal 0.685612124073228 -0.668855147236191 -0.287347885566346
outer loop
vertex 205.264817783236 69.8035232807915 95.0
vertex 207.745617567 70.6375771662523 100.0
vertex 206.338517891468 68.7560653687103 100.0
endloop
endfacet
facet normal 0.835362907978812 -0.468614985498472 -0.287347885566346
outer loop
vertex 207.745617567 70.6375771662523 100.0
vertex 205.264817783236 69.8035232807915 95.0
vertex 206.437400846179 71.3714497787432 95.0
endloop
endfacet
facet normal 0.835362907978812 -0.468614985498473 -0.287347885566346
outer loop
vertex 206.437400846179 71.3714497787432 95.0
vertex 208.61780039697 72.8191621983509 100.0
vertex 207.745617567 70.6375771662523 100.0
endloop
endfacet
facet normal 0.928185090208118 -0.236439486921912 -0.287347885566346
outer loop
vertex 208.61780039697 72.8191621983509 100.0
vertex 206.437400846179 71.3714497787432 95.0
vertex 207.164219871154 73.189437305492 95.0
endloop
endfacet
facet normal -0.95775299243813 -0.0118489719536512 -0.287347885566345
outer loop
vertex 190.897005921281 74.9294766320873 100.0
vertex 192.676441165205 73.0101997725239 95.0
vertex 191.232465949832 72.6040771587891 100.0
endloop
endfacet
facet normal -0.922051610995138 -0.259329942971926 -0.287347885566345
outer loop
vertex 192.676441165205 73.0101997725239 95.0
vertex 190.897005921281 74.9294766320873 100.0
vertex 192.396891141413 74.9480326669391 95.0
endloop
endfacet
facet normal 0.468614985498473 0.835362907978811 -0.287347885566346
outer loop
vertex 204.299552917019 82.890113166124 100.0
vertex 205.13360680248 80.40931338236 95.0
vertex 203.565680304528 81.581896445303 95.0
endloop
endfacet
facet normal 0.668855147236193 0.685612124073225 -0.287347885566348
outer loop
vertex 205.13360680248 80.40931338236 95.0
vertex 204.299552917019 82.890113166124 100.0
vertex 206.181064714561 81.4830134905925 100.0
endloop
endfacet
facet normal 0.922051610995139 0.259329942971922 -0.287347885566345
outer loop
vertex 207.116193318941 77.0714259098717 95.0
vertex 208.895628562866 75.1521490503082 100.0
vertex 207.395743342734 75.1335930154565 95.0
endloop
endfacet
facet normal 0.95775299243813 0.0118489719536512 -0.287347885566345
outer loop
vertex 208.895628562866 75.1521490503082 100.0
vertex 207.116193318941 77.0714259098717 95.0
vertex 208.560168534315 77.4775485236065 100.0
endloop
endfacet
facet normal 0.668855147236193 0.685612124073225 -0.287347885566348
outer loop
vertex 205.13360680248 80.40931338236 95.0
vertex 207.634281357889 79.6368884870446 100.0
vertex 206.34462067192 78.8708758794035 95.0
endloop
endfacet
facet normal 0.823513936025162 0.489138006939652 -0.287347885566347
outer loop
vertex 207.634281357889 79.6368884870446 100.0
vertex 205.13360680248 80.40931338236 95.0
vertex 206.181064714561 81.4830134905925 100.0
endloop
endfacet
facet normal 0.0118489719536502 -0.957752992438129 -0.287347885566347
outer loop
vertex 200.007653451184 66.0415015204055 100.0
vertex 198.044941706368 67.7729102121176 95.0
vertex 199.989097416332 67.5413867405375 95.0
endloop
endfacet
facet normal -0.236439486921914 -0.928185090208118 -0.287347885566347
outer loop
vertex 198.044941706368 67.7729102121176 95.0
vertex 200.007653451184 66.0415015204055 100.0
vertex 197.674666599227 66.3193296863016 100.0
endloop
endfacet
facet normal -0.928185090208118 0.236439486921912 -0.287347885566347
outer loop
vertex 191.174834087177 77.2624634840447 100.0
vertex 192.396891141413 74.9480326669391 95.0
vertex 190.897005921281 74.9294766320873 100.0
endloop
endfacet
facet normal -0.95775299243813 -0.0118489719536511 -0.287347885566345
outer loop
vertex 192.396891141413 74.9480326669391 95.0
vertex 191.174834087177 77.2624634840447 100.0
vertex 192.628414612993 76.8921883769035 95.0
endloop
endfacet
facet normal 0.859773790646204 0.51067507176076 2.65805022018901e-016
outer loop
vertex 207.634281357889 79.6368884870446 9.99999999999998
vertex 208.560168534315 77.4775485236065 90.0
vertex 208.560168534315 77.4775485236064 9.99999999999998
endloop
endfacet
facet normal 0.9626501435824 0.270748409156519 3.23880207054674e-016
outer loop
vertex 208.560168534315 77.4775485236065 90.0
vertex 207.634281357889 79.6368884870446 9.99999999999998
vertex 207.634281357889 79.6368884870446 90.0
endloop
endfacet
facet normal 0.510675071760762 -0.859773790646203 6.78178266525314e-017
outer loop
vertex 204.49239288792 67.3028487253819 90.0
vertex 202.333052924482 66.3769615489562 9.99999999999998
vertex 204.49239288792 67.3028487253819 9.99999999999998
endloop
endfacet
facet normal 0.270748409156517 -0.9626501435824 1.3276827818524e-017
outer loop
vertex 202.333052924482 66.3769615489562 9.99999999999998
vertex 204.49239288792 67.3028487253819 90.0
vertex 202.333052924482 66.3769615489562 90.0
endloop
endfacet
facet normal -0.872144480547363 0.489248408327273 1.19331513876555e-016
outer loop
vertex 192.047016917147 79.4440485161432 90.0
vertex 191.174834087177 77.2624634840447 9.99999999999998
vertex 191.174834087177 77.2624634840447 90.0
endloop
endfacet
facet normal -0.969053683877355 0.24685007142743 7.35140667589395e-017
outer loop
vertex 191.174834087177 77.2624634840447 9.99999999999998
vertex 192.047016917147 79.4440485161432 90.0
vertex 192.047016917147 79.4440485161432 9.99999999999998
endloop
endfacet
facet normal 0.489248408327275 0.872144480547362 7.43335436172303e-017
outer loop
vertex 204.299552917019 82.8901131661241 90.0
vertex 206.181064714561 81.4830134905925 9.99999999999998
vertex 204.299552917019 82.8901131661241 9.99999999999998
endloop
endfacet
facet normal 0.698305274720837 0.715800072154967 1.5205543498844e-016
outer loop
vertex 206.181064714561 81.4830134905925 9.99999999999998
vertex 204.299552917019 82.8901131661241 90.0
vertex 206.181064714561 81.4830134905925 90.0
endloop
endfacet
facet normal 0.969053683877355 -0.246850071427432 1.29135788558003e-016
outer loop
vertex 208.61780039697 72.8191621983509 9.99999999999998
vertex 208.895628562866 75.1521490503082 90.0
vertex 208.61780039697 72.8191621983509 90.0
endloop
endfacet
facet normal 0.999923480088036 0.0123706899011603 2.72144648905947e-016
outer loop
vertex 208.895628562866 75.1521490503082 90.0
vertex 208.61780039697 72.8191621983509 9.99999999999998
vertex 208.895628562866 75.1521490503082 9.99999999999998
endloop
endfacet
facet normal -0.969053683877355 0.24685007142743 7.35140667589395e-017
outer loop
vertex 191.174834087177 77.2624634840447 90.0
vertex 190.897005921281 74.9294766320874 9.99999999999998
vertex 190.897005921281 74.9294766320873 90.0
endloop
endfacet
facet normal -0.999923480088036 -0.0123706899011605 1.3076415447528e-016
outer loop
vertex 190.897005921281 74.9294766320874 9.99999999999998
vertex 191.174834087177 77.2624634840447 90.0
vertex 191.174834087177 77.2624634840447 9.99999999999998
endloop
endfacet
facet normal -0.510675071760763 0.859773790646202 -6.37347712783183e-017
outer loop
vertex 195.300241596227 82.7787769570136 90.0
vertex 197.459581559665 83.7046641334394 9.99999999999998
vertex 195.300241596227 82.7787769570136 9.99999999999998
endloop
endfacet
facet normal -0.270748409156517 0.9626501435824 -3.66941025614137e-017
outer loop
vertex 197.459581559665 83.7046641334394 9.99999999999998
vertex 195.300241596227 82.7787769570136 90.0
vertex 197.459581559665 83.7046641334394 90.0
endloop
endfacet
facet normal 0.246850071427432 0.969053683877354 4.34102347497399e-017
outer loop
vertex 202.11796788492 83.762295996094 90.0
vertex 204.299552917019 82.8901131661241 9.99999999999998
vertex 202.11796788492 83.762295996094 9.99999999999998
endloop
endfacet
facet normal 0.489248408327275 0.872144480547362 7.43335436172303e-017
outer loop
vertex 204.299552917019 82.8901131661241 9.99999999999998
vertex 202.11796788492 83.762295996094 90.0
vertex 204.299552917019 82.8901131661241 90.0
endloop
endfacet
facet normal 0.698305274720837 0.715800072154967 1.5205543498844e-016
outer loop
vertex 206.181064714561 81.4830134905925 9.99999999999998
vertex 207.634281357889 79.6368884870446 90.0
vertex 207.634281357889 79.6368884870446 9.99999999999998
endloop
endfacet
facet normal 0.859773790646204 0.51067507176076 2.65805022018901e-016
outer loop
vertex 207.634281357889 79.6368884870446 90.0
vertex 206.181064714561 81.4830134905925 9.99999999999998
vertex 206.181064714561 81.4830134905925 90.0
endloop
endfacet
facet normal 0.872144480547362 -0.489248408327275 1.38375515570037e-016
outer loop
vertex 207.745617567 70.6375771662523 9.99999999999998
vertex 206.338517891468 68.7560653687103 90.0
vertex 206.338517891468 68.7560653687103 9.99999999999998
endloop
endfacet
facet normal 0.715800072154967 -0.698305274720837 1.55507371954719e-016
outer loop
vertex 206.338517891468 68.7560653687103 90.0
vertex 207.745617567 70.6375771662523 9.99999999999998
vertex 207.745617567 70.6375771662523 90.0
endloop
endfacet
facet normal 0.270748409156517 -0.9626501435824 1.3276827818524e-017
outer loop
vertex 202.333052924482 66.3769615489562 90.0
vertex 200.007653451184 66.0415015204055 9.99999999999998
vertex 202.333052924482 66.3769615489562 9.99999999999998
endloop
endfacet
facet normal 0.0123706899011575 -0.999923480088036 7.53675731363675e-018
outer loop
vertex 200.007653451184 66.0415015204055 9.99999999999998
vertex 202.333052924482 66.3769615489562 90.0
vertex 200.007653451184 66.0415015204055 90.0
endloop
endfacet
facet normal -0.999923480088036 -0.0123706899011606 1.3076415447528e-016
outer loop
vertex 190.897005921281 74.9294766320873 90.0
vertex 191.232465949832 72.6040771587891 9.99999999999998
vertex 191.232465949832 72.6040771587891 90.0
endloop
endfacet
facet normal -0.9626501435824 -0.270748409156519 1.46993322780761e-016
outer loop
vertex 191.232465949832 72.6040771587891 9.99999999999998
vertex 190.897005921281 74.9294766320873 90.0
vertex 190.897005921281 74.9294766320874 9.99999999999998
endloop
endfacet
facet normal -0.9626501435824 -0.270748409156519 1.46993322780761e-016
outer loop
vertex 191.232465949832 72.6040771587891 90.0
vertex 192.158353126258 70.4447371953509 9.99999999999998
vertex 192.158353126258 70.4447371953509 90.0
endloop
endfacet
facet normal -0.859773790646204 -0.51067507176076 7.43312263018137e-017
outer loop
vertex 192.158353126258 70.4447371953509 9.99999999999998
vertex 191.232465949832 72.6040771587891 90.0
vertex 191.232465949832 72.6040771587891 9.99999999999998
endloop
endfacet
facet normal 0.0123706899011576 -0.999923480088036 7.53675731363674e-018
outer loop
vertex 200.007653451184 66.0415015204055 90.0
vertex 197.674666599227 66.3193296863016 9.99999999999998
vertex 200.007653451184 66.0415015204055 9.99999999999998
endloop
endfacet
facet normal -0.246850071427434 -0.969053683877354 -7.16823053596282e-018
outer loop
vertex 197.674666599227 66.3193296863016 9.99999999999998
vertex 200.007653451184 66.0415015204055 90.0
vertex 197.674666599227 66.3193296863016 90.0
endloop
endfacet
facet normal -0.715800072154969 0.698305274720835 6.39600354776613e-017
outer loop
vertex 193.454116592679 81.3255603136853 90.0
vertex 195.300241596227 82.7787769570136 9.99999999999998
vertex 193.454116592679 81.3255603136853 9.99999999999998
endloop
endfacet
facet normal -0.510675071760763 0.859773790646202 -6.37347712783183e-017
outer loop
vertex 195.300241596227 82.7787769570136 9.99999999999998
vertex 193.454116592679 81.3255603136853 90.0
vertex 195.300241596227 82.7787769570136 90.0
endloop
endfacet
facet normal 0.969053683877355 -0.246850071427432 1.29135788558003e-016
outer loop
vertex 208.61780039697 72.8191621983509 9.99999999999998
vertex 207.745617567 70.6375771662523 90.0
vertex 207.745617567 70.6375771662523 9.99999999999998
endloop
endfacet
facet normal 0.872144480547362 -0.489248408327275 1.38375515570037e-016
outer loop
vertex 207.745617567 70.6375771662523 90.0
vertex 208.61780039697 72.8191621983509 9.99999999999998
vertex 208.61780039697 72.8191621983509 90.0
endloop
endfacet
facet normal -0.715800072154969 0.698305274720835 6.39600354776613e-017
outer loop
vertex 193.454116592679 81.3255603136853 90.0
vertex 192.047016917147 79.4440485161432 9.99999999999998
vertex 192.047016917147 79.4440485161432 90.0
endloop
endfacet
facet normal -0.872144480547363 0.489248408327273 1.19331513876555e-016
outer loop
vertex 192.047016917147 79.4440485161432 9.99999999999998
vertex 193.454116592679 81.3255603136853 90.0
vertex 193.454116592679 81.3255603136853 9.99999999999998
endloop
endfacet
facet normal 0.715800072154967 -0.698305274720837 1.55507371954719e-016
outer loop
vertex 206.338517891468 68.7560653687103 90.0
vertex 204.49239288792 67.3028487253819 9.99999999999998
vertex 206.338517891468 68.7560653687103 9.99999999999998
endloop
endfacet
facet normal 0.510675071760762 -0.859773790646203 6.78178266525314e-017
outer loop
vertex 204.49239288792 67.3028487253819 9.99999999999998
vertex 206.338517891468 68.7560653687103 90.0
vertex 204.49239288792 67.3028487253819 90.0
endloop
endfacet
facet normal -0.0123706899011587 0.999923480088036 9.14483099947104e-018
outer loop
vertex 199.784981032963 84.0401241619901 90.0
vertex 202.11796788492 83.762295996094 9.99999999999998
vertex 199.784981032963 84.0401241619901 9.99999999999998
endloop
endfacet
facet normal 0.246850071427432 0.969053683877354 4.34102347497399e-017
outer loop
vertex 202.11796788492 83.762295996094 9.99999999999998
vertex 199.784981032963 84.0401241619901 90.0
vertex 202.11796788492 83.762295996094 90.0
endloop
endfacet
facet normal 0.922051610995139 0.259329942971925 0.287347885566342
outer loop
vertex 208.560168534315 77.4775485236065 90.0
vertex 206.34462067192 78.8708758794035 95.0
vertex 207.116193318941 77.0714259098717 95.0
endloop
endfacet
facet normal 0.823513936025162 0.489138006939654 0.287347885566343
outer loop
vertex 206.34462067192 78.8708758794035 95.0
vertex 208.560168534315 77.4775485236065 90.0
vertex 207.634281357889 79.6368884870446 90.0
endloop
endfacet
facet normal 0.823513936025162 0.489138006939655 0.287347885566343
outer loop
vertex 207.634281357889 79.6368884870446 90.0
vertex 205.13360680248 80.40931338236 95.0
vertex 206.34462067192 78.8708758794035 95.0
endloop
endfacet
facet normal 0.668855147236196 0.685612124073224 0.287347885566345
outer loop
vertex 205.13360680248 80.40931338236 95.0
vertex 207.634281357889 79.6368884870446 90.0
vertex 206.181064714561 81.4830134905925 90.0
endloop
endfacet
facet normal -0.835362907978812 0.468614985498474 0.287347885566344
outer loop
vertex 193.355233637968 78.7101759036523 95.0
vertex 191.174834087177 77.2624634840447 90.0
vertex 192.628414612993 76.8921883769035 95.0
endloop
endfacet
facet normal -0.928185090208119 0.236439486921912 0.287347885566345
outer loop
vertex 191.174834087177 77.2624634840447 90.0
vertex 193.355233637968 78.7101759036523 95.0
vertex 192.047016917147 79.4440485161432 90.0
endloop
endfacet
facet normal 0.928185090208119 -0.236439486921913 0.287347885566346
outer loop
vertex 208.61780039697 72.8191621983509 90.0
vertex 206.437400846179 71.3714497787432 95.0
vertex 207.745617567 70.6375771662523 90.0
endloop
endfacet
facet normal 0.835362907978811 -0.468614985498474 0.287347885566345
outer loop
vertex 206.437400846179 71.3714497787432 95.0
vertex 208.61780039697 72.8191621983509 90.0
vertex 207.164219871154 73.189437305492 95.0
endloop
endfacet
facet normal 0.685612124073226 -0.668855147236194 0.287347885566343
outer loop
vertex 205.264817783236 69.8035232807915 95.0
vertex 204.49239288792 67.3028487253819 90.0
vertex 206.338517891468 68.7560653687103 90.0
endloop
endfacet
facet normal 0.489138006939656 -0.823513936025161 0.287347885566345
outer loop
vertex 204.49239288792 67.3028487253819 90.0
vertex 205.264817783236 69.8035232807915 95.0
vertex 203.726380280279 68.5925094113513 95.0
endloop
endfacet
facet normal 0.95775299243813 0.0118489719536503 0.287347885566344
outer loop
vertex 208.895628562866 75.1521490503082 90.0
vertex 207.116193318941 77.0714259098717 95.0
vertex 207.395743342734 75.1335930154565 95.0
endloop
endfacet
facet normal 0.922051610995139 0.259329942971924 0.287347885566342
outer loop
vertex 207.116193318941 77.0714259098717 95.0
vertex 208.895628562866 75.1521490503082 90.0
vertex 208.560168534315 77.4775485236065 90.0
endloop
endfacet
facet normal -0.685612124073228 0.668855147236192 0.287347885566344
outer loop
vertex 194.527816700911 80.2781024016041 95.0
vertex 195.300241596227 82.7787769570136 90.0
vertex 193.454116592679 81.3255603136853 90.0
endloop
endfacet
facet normal -0.489138006939657 0.823513936025159 0.287347885566345
outer loop
vertex 195.300241596227 82.7787769570136 90.0
vertex 194.527816700911 80.2781024016041 95.0
vertex 196.066254203868 81.4891162710443 95.0
endloop
endfacet
facet normal -0.95775299243813 -0.0118489719536509 0.287347885566344
outer loop
vertex 192.396891141413 74.9480326669391 95.0
vertex 191.174834087177 77.2624634840447 90.0
vertex 190.897005921281 74.9294766320873 90.0
endloop
endfacet
facet normal -0.928185090208119 0.236439486921912 0.287347885566345
outer loop
vertex 191.174834087177 77.2624634840447 90.0
vertex 192.396891141413 74.9480326669391 95.0
vertex 192.628414612993 76.8921883769035 95.0
endloop
endfacet
facet normal -0.259329942971924 0.922051610995138 0.287347885566345
outer loop
vertex 197.8657041734 82.2606889180658 95.0
vertex 199.784981032963 84.0401241619901 90.0
vertex 197.459581559665 83.7046641334394 90.0
endloop
endfacet
facet normal -0.0118489719536491 0.95775299243813 0.287347885566344
outer loop
vertex 199.784981032963 84.0401241619901 90.0
vertex 197.8657041734 82.2606889180658 95.0
vertex 199.803537067815 82.5402389418581 95.0
endloop
endfacet
facet normal -0.668855147236194 -0.685612124073225 0.287347885566346
outer loop
vertex 194.659027681667 69.6723123000355 95.0
vertex 192.158353126258 70.4447371953509 90.0
vertex 193.611569769586 68.5986121918031 90.0
endloop
endfacet
facet normal -0.823513936025161 -0.489138006939654 0.287347885566345
outer loop
vertex 192.158353126258 70.4447371953509 90.0
vertex 194.659027681667 69.6723123000355 95.0
vertex 193.448013812227 71.2107498029921 95.0
endloop
endfacet
facet normal 0.95775299243813 0.0118489719536503 0.287347885566344
outer loop
vertex 208.895628562866 75.1521490503082 90.0
vertex 207.164219871154 73.189437305492 95.0
vertex 208.61780039697 72.8191621983509 90.0
endloop
endfacet
facet normal 0.928185090208119 -0.236439486921913 0.287347885566346
outer loop
vertex 207.164219871154 73.189437305492 95.0
vertex 208.895628562866 75.1521490503082 90.0
vertex 207.395743342734 75.1335930154565 95.0
endloop
endfacet
facet normal 0.236439486921914 0.928185090208118 0.287347885566345
outer loop
vertex 201.747692777779 82.3087154702779 95.0
vertex 204.299552917019 82.8901131661241 90.0
vertex 202.11796788492 83.762295996094 90.0
endloop
endfacet
facet normal 0.468614985498474 0.835362907978811 0.287347885566345
outer loop
vertex 204.299552917019 82.8901131661241 90.0
vertex 201.747692777779 82.3087154702779 95.0
vertex 203.565680304528 81.581896445303 95.0
endloop
endfacet
facet normal -0.489138006939657 0.82351393602516 0.287347885566345
outer loop
vertex 196.066254203868 81.4891162710443 95.0
vertex 197.459581559665 83.7046641334394 90.0
vertex 195.300241596227 82.7787769570136 90.0
endloop
endfacet
facet normal -0.259329942971924 0.922051610995138 0.287347885566345
outer loop
vertex 197.459581559665 83.7046641334394 90.0
vertex 196.066254203868 81.4891162710443 95.0
vertex 197.8657041734 82.2606889180658 95.0
endloop
endfacet
facet normal 0.835362907978811 -0.468614985498474 0.287347885566345
outer loop
vertex 207.745617567 70.6375771662523 90.0
vertex 205.264817783236 69.8035232807915 95.0
vertex 206.338517891468 68.7560653687103 90.0
endloop
endfacet
facet normal 0.685612124073226 -0.668855147236194 0.287347885566343
outer loop
vertex 205.264817783236 69.8035232807915 95.0
vertex 207.745617567 70.6375771662523 90.0
vertex 206.437400846179 71.3714497787432 95.0
endloop
endfacet
facet normal 0.489138006939656 -0.823513936025161 0.287347885566345
outer loop
vertex 203.726380280279 68.5925094113513 95.0
vertex 202.333052924482 66.3769615489562 90.0
vertex 204.49239288792 67.3028487253819 90.0
endloop
endfacet
facet normal 0.259329942971924 -0.922051610995138 0.287347885566346
outer loop
vertex 202.333052924482 66.3769615489562 90.0
vertex 203.726380280279 68.5925094113513 95.0
vertex 201.926930310747 67.8209367643298 95.0
endloop
endfacet
facet normal 0.259329942971924 -0.922051610995138 0.287347885566346
outer loop
vertex 201.926930310747 67.8209367643298 95.0
vertex 200.007653451184 66.0415015204055 90.0
vertex 202.333052924482 66.3769615489562 90.0
endloop
endfacet
facet normal 0.0118489719536502 -0.95775299243813 0.287347885566346
outer loop
vertex 200.007653451184 66.0415015204055 90.0
vertex 201.926930310747 67.8209367643298 95.0
vertex 199.989097416332 67.5413867405375 95.0
endloop
endfacet
facet normal 0.468614985498475 0.835362907978811 0.287347885566345
outer loop
vertex 203.565680304528 81.581896445303 95.0
vertex 206.181064714561 81.4830134905925 90.0
vertex 204.299552917019 82.8901131661241 90.0
endloop
endfacet
facet normal 0.668855147236195 0.685612124073224 0.287347885566345
outer loop
vertex 206.181064714561 81.4830134905925 90.0
vertex 203.565680304528 81.581896445303 95.0
vertex 205.13360680248 80.40931338236 95.0
endloop
endfacet
facet normal -0.236439486921914 -0.928185090208118 0.287347885566346
outer loop
vertex 198.044941706368 67.7729102121176 95.0
vertex 195.493081567128 67.1915125162715 90.0
vertex 197.674666599227 66.3193296863016 90.0
endloop
endfacet
facet normal -0.468614985498472 -0.835362907978812 0.287347885566346
outer loop
vertex 195.493081567128 67.1915125162715 90.0
vertex 198.044941706368 67.7729102121176 95.0
vertex 196.226954179619 68.4997292370926 95.0
endloop
endfacet
facet normal -0.468614985498472 -0.835362907978812 0.287347885566346
outer loop
vertex 196.226954179619 68.4997292370926 95.0
vertex 193.611569769586 68.5986121918031 90.0
vertex 195.493081567128 67.1915125162715 90.0
endloop
endfacet
facet normal -0.668855147236194 -0.685612124073225 0.287347885566346
outer loop
vertex 193.611569769586 68.5986121918031 90.0
vertex 196.226954179619 68.4997292370926 95.0
vertex 194.659027681667 69.6723123000355 95.0
endloop
endfacet
facet normal -0.489248408327274 -0.872144480547363 -8.34789369449984e-017
outer loop
vertex 195.493081567128 67.1915125162715 90.0
vertex 193.611569769586 68.5986121918031 9.99999999999998
vertex 195.493081567128 67.1915125162715 9.99999999999998
endloop
endfacet
facet normal -0.698305274720836 -0.715800072154969 -4.54996255359993e-017
outer loop
vertex 193.611569769586 68.5986121918031 9.99999999999998
vertex 195.493081567128 67.1915125162715 90.0
vertex 193.611569769586 68.5986121918031 90.0
endloop
endfacet
facet normal -0.246850071427434 -0.969053683877354 -7.16823053596281e-018
outer loop
vertex 197.674666599227 66.3193296863016 90.0
vertex 195.493081567128 67.1915125162715 9.99999999999998
vertex 197.674666599227 66.3193296863016 9.99999999999998
endloop
endfacet
facet normal -0.489248408327274 -0.872144480547363 -8.34789369449984e-017
outer loop
vertex 195.493081567128 67.1915125162715 9.99999999999998
vertex 197.674666599227 66.3193296863016 90.0
vertex 195.493081567128 67.1915125162715 90.0
endloop
endfacet
facet normal -0.270748409156517 0.9626501435824 -3.66941025614137e-017
outer loop
vertex 197.459581559665 83.7046641334394 90.0
vertex 199.784981032963 84.0401241619901 9.99999999999998
vertex 197.459581559665 83.7046641334394 9.99999999999998
endloop
endfacet
facet normal -0.0123706899011588 0.999923480088036 9.14483099947104e-018
outer loop
vertex 199.784981032963 84.0401241619901 9.99999999999998
vertex 197.459581559665 83.7046641334394 90.0
vertex 199.784981032963 84.0401241619901 90.0
endloop
endfacet
facet normal -0.0118489719536497 0.95775299243813 0.287347885566344
outer loop
vertex 199.803537067815 82.5402389418581 95.0
vertex 202.11796788492 83.762295996094 90.0
vertex 199.784981032963 84.0401241619901 90.0
endloop
endfacet
facet normal 0.236439486921914 0.928185090208119 0.287347885566344
outer loop
vertex 202.11796788492 83.762295996094 90.0
vertex 199.803537067815 82.5402389418581 95.0
vertex 201.747692777779 82.3087154702779 95.0
endloop
endfacet
facet normal 0.999923480088036 0.0123706899011603 2.72144648905947e-016
outer loop
vertex 208.895628562866 75.1521490503082 9.99999999999998
vertex 208.560168534315 77.4775485236065 90.0
vertex 208.895628562866 75.1521490503082 90.0
endloop
endfacet
facet normal 0.9626501435824 0.270748409156519 3.23880207054674e-016
outer loop
vertex 208.560168534315 77.4775485236065 90.0
vertex 208.895628562866 75.1521490503082 9.99999999999998
vertex 208.560168534315 77.4775485236064 9.99999999999998
endloop
endfacet
facet normal -0.859773790646204 -0.51067507176076 7.43312263018137e-017
outer loop
vertex 192.158353126258 70.4447371953509 90.0
vertex 193.611569769586 68.5986121918031 9.99999999999998
vertex 193.611569769586 68.5986121918031 90.0
endloop
endfacet
facet normal -0.698305274720836 -0.715800072154969 -4.54996255359993e-017
outer loop
vertex 193.611569769586 68.5986121918031 9.99999999999998
vertex 192.158353126258 70.4447371953509 90.0
vertex 192.158353126258 70.4447371953509 9.99999999999998
endloop
endfacet
facet normal -0.823513936025161 -0.489138006939654 0.287347885566345
outer loop
vertex 193.448013812227 71.2107498029921 95.0
vertex 191.232465949832 72.6040771587891 90.0
vertex 192.158353126258 70.4447371953509 90.0
endloop
endfacet
facet normal -0.922051610995138 -0.259329942971927 0.287347885566343
outer loop
vertex 191.232465949832 72.6040771587891 90.0
vertex 193.448013812227 71.2107498029921 95.0
vertex 192.676441165205 73.0101997725239 95.0
endloop
endfacet
facet normal -0.922051610995138 -0.259329942971926 0.287347885566343
outer loop
vertex 192.676441165205 73.0101997725239 95.0
vertex 190.897005921281 74.9294766320873 90.0
vertex 191.232465949832 72.6040771587891 90.0
endloop
endfacet
facet normal -0.95775299243813 -0.0118489719536509 0.287347885566344
outer loop
vertex 190.897005921281 74.9294766320873 90.0
vertex 192.676441165205 73.0101997725239 95.0
vertex 192.396891141413 74.9480326669391 95.0
endloop
endfacet
facet normal -0.685612124073228 0.668855147236192 0.287347885566344
outer loop
vertex 194.527816700911 80.2781024016041 95.0
vertex 192.047016917147 79.4440485161432 90.0
vertex 193.355233637968 78.7101759036523 95.0
endloop
endfacet
facet normal -0.835362907978812 0.468614985498473 0.287347885566344
outer loop
vertex 192.047016917147 79.4440485161432 90.0
vertex 194.527816700911 80.2781024016041 95.0
vertex 193.454116592679 81.3255603136853 90.0
endloop
endfacet
facet normal 0.0118489719536508 -0.95775299243813 0.287347885566345
outer loop
vertex 199.989097416332 67.5413867405375 95.0
vertex 197.674666599227 66.3193296863016 90.0
vertex 200.007653451184 66.0415015204055 90.0
endloop
endfacet
facet normal -0.236439486921914 -0.928185090208118 0.287347885566346
outer loop
vertex 197.674666599227 66.3193296863016 90.0
vertex 199.989097416332 67.5413867405375 95.0
vertex 198.044941706368 67.7729102121176 95.0
endloop
endfacet
endsolid SpoolHolder final
