solid SpoolHolder final
facet normal -6.4798269652119e-015 -1.0 6.61528170398445e-015
outer loop
vertex 96.7431554970997 329.588520135599 9.99999999999995
vertex 105.108825192396 329.588520135598 -2.56544170688672e-013
vertex 105.108825192396 329.588520135599 9.99999999999997
endloop
endfacet
facet normal -6.4798269652119e-015 -1.0 6.61528170398445e-015
outer loop
vertex 105.108825192396 329.588520135598 -2.56544170688672e-013
vertex 96.7431554970997 329.588520135599 9.99999999999995
vertex 96.7431554970997 329.588520135599 -7.87487069370319e-015
endloop
endfacet
facet normal -1.35358391162297e-014 -1.0 4.35930851794619e-015
outer loop
vertex 109.108825192396 329.588520135599 9.99999999999997
vertex 119.458967545253 329.588520135598 -9.26581301944379e-015
vertex 119.458967545253 329.588520135598 9.99999999999997
endloop
endfacet
facet normal -1.35358391162297e-014 -1.0 4.35930851794619e-015
outer loop
vertex 119.458967545253 329.588520135598 -9.26581301944379e-015
vertex 109.108825192396 329.588520135599 9.99999999999997
vertex 109.108825192396 329.588520135598 -2.56789100048501e-013
endloop
endfacet
facet normal 0.513497657187959 0.858090995211159 -1.5387107705973e-014
outer loop
vertex 96.2853100959419 356.66385823308 -3.11886153365052e-013
vertex 94.034783976117 358.447417097271 9.99999999999977
vertex 96.2853100959419 356.663858233081 9.9999999999998
endloop
endfacet
facet normal 0.718090940808406 0.695949280284776 -1.30358042972311e-014
outer loop
vertex 94.034783976117 358.447417097271 9.99999999999977
vertex 96.2853100959419 356.66385823308 -3.11886153365052e-013
vertex 94.034783976117 358.447417097271 -3.43665397573526e-013
endloop
endfacet
facet normal -0.85809099521116 0.513497657187958 -7.05898759164334e-015
outer loop
vertex 111.372785272332 360.454384951336 -4.03201761869002e-013
vertex 112.513091820649 363.089845255327 9.99999999999948
vertex 112.513091820649 363.089845255326 -6.53471123474599e-013
endloop
endfacet
facet normal -0.961755226876316 0.273910356825161 -2.83598189887291e-015
outer loop
vertex 112.513091820649 363.089845255327 9.99999999999948
vertex 111.372785272332 360.454384951336 -4.03201761869002e-013
vertex 111.372785272332 360.454384951336 9.99999999999974
endloop
endfacet
facet normal 0.273910356825154 0.961755226876317 -1.66898051529505e-014
outer loop
vertex 98.9207703999327 355.523551684764 -4.94679161479434e-013
vertex 96.2853100959419 356.663858233081 9.9999999999998
vertex 98.9207703999327 355.523551684764 9.99999999999962
endloop
endfacet
facet normal 0.513497657187964 0.858090995211156 -1.53871077059729e-014
outer loop
vertex 96.2853100959419 356.663858233081 9.9999999999998
vertex 98.9207703999327 355.523551684764 -4.94679161479434e-013
vertex 96.2853100959419 356.66385823308 -3.11886153365052e-013
endloop
endfacet
facet normal 0.961755226876318 -0.273910356825154 2.83598189887279e-015
outer loop
vertex 91.35447682937 369.11587310548 -5.11855139530359e-013
vertex 90.9351326037488 366.275080881736 9.99999999999948
vertex 90.9351326037488 366.275080881736 -6.6403065260371e-013
endloop
endfacet
facet normal 0.999877429205514 -0.0156565183029906 -1.58029127362412e-015
outer loop
vertex 90.9351326037488 366.275080881736 9.99999999999948
vertex 91.35447682937 369.11587310548 -5.11855139530359e-013
vertex 91.35447682937 369.11587310548 9.99999999999963
endloop
endfacet
facet normal 0.858090995211159 -0.513497657187958 7.05898759164334e-015
outer loop
vertex 92.4947833776867 371.751333409471 9.99999999999958
vertex 91.35447682937 369.11587310548 -5.11855139530359e-013
vertex 92.4947833776867 371.751333409471 -5.59086914392507e-013
endloop
endfacet
facet normal 0.961755226876318 -0.273910356825154 2.83598189887279e-015
outer loop
vertex 91.35447682937 369.11587310548 -5.11855139530359e-013
vertex 92.4947833776867 371.751333409471 9.99999999999958
vertex 91.35447682937 369.11587310548 9.99999999999963
endloop
endfacet
facet normal 0.24366428606791 -0.969859637109936 1.5871786196104e-014
outer loop
vertex 99.2534771782625 376.771315188613 9.99999999999929
vertex 102.106006026342 377.101510901664 -8.8101496674081e-013
vertex 102.106006026342 377.101510901664 9.99999999999924
endloop
endfacet
facet normal -0.0156565183029866 -0.999877429205514 1.68551199599615e-014
outer loop
vertex 102.106006026342 377.101510901664 -8.8101496674081e-013
vertex 99.2534771782625 376.771315188613 9.99999999999929
vertex 99.2534771782624 376.771315188613 -8.52371666831036e-013
endloop
endfacet
facet normal -0.015656518302986 -0.999877429205514 1.68551199599615e-014
outer loop
vertex 102.106006026342 377.101510901664 9.99999999999924
vertex 104.946798250086 376.682166676043 -8.73684688268973e-013
vertex 104.946798250086 376.682166676043 9.99999999999925
endloop
endfacet
facet normal -0.273910356825157 -0.961755226876317 1.66898051529505e-014
outer loop
vertex 104.946798250086 376.682166676043 -8.73684688268973e-013
vertex 102.106006026342 377.101510901664 9.99999999999924
vertex 102.106006026342 377.101510901664 -8.8101496674081e-013
endloop
endfacet
facet normal -0.273910356825158 -0.961755226876316 1.66898051529505e-014
outer loop
vertex 104.946798250086 376.682166676043 9.99999999999925
vertex 107.582258554077 375.541860127726 -8.53440109639906e-013
vertex 107.582258554077 375.541860127726 9.99999999999926
endloop
endfacet
facet normal -0.513497657187962 -0.858090995211158 1.53871077059729e-014
outer loop
vertex 107.582258554077 375.541860127726 -8.53440109639906e-013
vertex 104.946798250086 376.682166676043 9.99999999999925
vertex 104.946798250086 376.682166676043 -8.73684688268973e-013
endloop
endfacet
facet normal 0.486379772017553 -0.873747513514146 1.38068164323488e-014
outer loop
vertex 96.5836068328164 375.714081829059 9.99999999999931
vertex 99.2534771782624 376.771315188613 -8.52371666831036e-013
vertex 99.2534771782625 376.771315188613 9.99999999999929
endloop
endfacet
facet normal 0.243664286067909 -0.969859637109936 1.5871786196104e-014
outer loop
vertex 99.2534771782624 376.771315188613 -8.52371666831036e-013
vertex 96.5836068328164 375.714081829059 9.99999999999931
vertex 96.5836068328164 375.714081829059 -8.33288837369412e-013
endloop
endfacet
facet normal -0.0607977109348808 0.99815010812256 -1.49239323600393e-014
outer loop
vertex 11.6599363375208 349.760703173979 -4.7812973623517e-014
vertex 23.7916046820118 351.070630518482 9.99999999999959
vertex 23.7916046820118 351.070630518482 -3.65273681468746e-013
endloop
endfacet
facet normal -0.153671726969261 0.98812195620292 -1.48779765729422e-014
outer loop
vertex 23.7916046820118 351.070630518482 9.99999999999959
vertex 11.6599363375208 349.760703173979 -4.7812973623517e-014
vertex 11.6599363375208 349.760703173979 9.99999999999991
endloop
endfacet
facet normal -0.486379772017551 0.873747513514148 -1.38068164323488e-014
outer loop
vertex 107.283961817203 356.491636531748 -3.32037425635545e-013
vertex 104.614091471757 355.434403172194 9.99999999999962
vertex 107.283961817203 356.491636531748 9.99999999999981
endloop
endfacet
facet normal -0.243664286067912 0.969859637109935 -1.5871786196104e-014
outer loop
vertex 104.614091471757 355.434403172194 9.99999999999962
vertex 107.283961817203 356.491636531748 -3.32037425635545e-013
vertex 104.614091471756 355.434403172194 -4.93432451056987e-013
endloop
endfacet
facet normal 0.0156565183029867 0.999877429205514 -1.68551199599615e-014
outer loop
vertex 101.761562623677 355.104207459143 -4.87348883007597e-013
vertex 98.9207703999327 355.523551684764 9.99999999999962
vertex 101.761562623677 355.104207459143 9.99999999999963
endloop
endfacet
facet normal 0.27391035682516 0.961755226876316 -1.66898051529505e-014
outer loop
vertex 98.9207703999327 355.523551684764 9.99999999999962
vertex 101.761562623677 355.104207459143 -4.87348883007597e-013
vertex 98.9207703999327 355.523551684764 -4.94679161479434e-013
endloop
endfacet
facet normal 0.873747513514145 0.486379772017556 -9.7961323683182e-015
outer loop
vertex 92.3225616763539 360.75268168821 9.99999999999973
vertex 94.034783976117 358.447417097271 -3.43665397573526e-013
vertex 92.3225616763538 360.75268168821 -3.84813604386284e-013
endloop
endfacet
facet normal 0.718090940808407 0.695949280284776 -1.30358042972311e-014
outer loop
vertex 94.034783976117 358.447417097271 -3.43665397573526e-013
vertex 92.3225616763539 360.75268168821 9.99999999999973
vertex 94.034783976117 358.447417097271 9.99999999999977
endloop
endfacet
facet normal 0.695949280284779 -0.718090940808404 1.08009349455719e-014
outer loop
vertex 94.2783422418769 374.001859529296 9.99999999999934
vertex 96.5836068328164 375.714081829059 -8.33288837369412e-013
vertex 96.5836068328164 375.714081829059 9.99999999999931
endloop
endfacet
facet normal 0.486379772017553 -0.873747513514147 1.38068164323488e-014
outer loop
vertex 96.5836068328164 375.714081829059 -8.33288837369412e-013
vertex 94.2783422418769 374.001859529296 9.99999999999934
vertex 94.2783422418769 374.001859529296 -8.02507209787498e-013
endloop
endfacet
facet normal 0.969859637109935 0.243664286067914 -5.88887020737856e-015
outer loop
vertex 91.2653283168002 363.422552033656 9.99999999999953
vertex 92.3225616763538 360.75268168821 -3.84813604386284e-013
vertex 91.2653283168002 363.422552033656 -6.13004446392728e-013
endloop
endfacet
facet normal 0.873747513514148 0.486379772017551 -9.79613236831812e-015
outer loop
vertex 92.3225616763538 360.75268168821 -3.84813604386284e-013
vertex 91.2653283168002 363.422552033656 9.99999999999953
vertex 92.3225616763539 360.75268168821 9.99999999999973
endloop
endfacet
facet normal -0.503871025524078 0.863778900898438 -1.28194531393694e-014
outer loop
vertex 69.5363880557347 367.31294211763 -6.5873330558261e-013
vertex 58.7207327867731 361.663615824028 9.9999999999994
vertex 69.5363880557347 367.31294211763 9.9999999999993
endloop
endfacet
facet normal -0.42107175073777 0.907027331854244 -1.35157736587697e-014
outer loop
vertex 58.7207327867731 361.663615824028 9.9999999999994
vertex 69.5363880557347 367.31294211763 -6.5873330558261e-013
vertex 58.7207327867731 361.663615824028 -5.56975509644674e-013
endloop
endfacet
facet normal -0.438746215998862 -0.817445904095122 -0.37320765241992
outer loop
vertex 3.96738459623891 336.577936883625 5.00000000000018
vertex 2.27273705359498 339.339496740551 -1.31465928117885e-013
vertex 4.91858938455563 338.350165178278 -1.1392370548128e-013
endloop
endfacet
facet normal -0.20521954327305 -0.904765708475964 -0.373207652419919
outer loop
vertex 2.27273705359498 339.339496740551 -1.31465928117885e-013
vertex 3.96738459623891 336.577936883625 5.00000000000018
vertex 1.82781968428367 337.377958514522 5.00000000000017
endloop
endfacet
facet normal -0.640587380157082 -0.67109154111693 -0.373207652419922
outer loop
vertex 5.81664775569033 335.23704226082 5.0000000000002
vertex 4.91858938455563 338.350165178278 -1.1392370548128e-013
vertex 7.20544556435856 336.691973298472 1.86326635783207e-013
endloop
endfacet
facet normal -0.438746215998857 -0.817445904095125 -0.37320765241992
outer loop
vertex 4.91858938455563 338.350165178278 -1.1392370548128e-013
vertex 5.81664775569033 335.23704226082 5.0000000000002
vertex 3.96738459623891 336.577936883625 5.00000000000018
endloop
endfacet
facet normal -0.334598142089496 0.942360909264735 -1.40941535546584e-014
outer loop
vertex 47.4251176570925 357.048167274783 -1.57853473466972e-013
vertex 58.7207327867731 361.663615824028 9.9999999999994
vertex 58.7207327867731 361.663615824028 -5.56975509644674e-013
endloop
endfacet
facet normal -0.42107175073777 0.907027331854244 -1.35157736587697e-014
outer loop
vertex 58.7207327867731 361.663615824028 9.9999999999994
vertex 47.4251176570925 357.048167274783 -1.57853473466972e-013
vertex 47.4251176570925 357.048167274783 9.9999999999998
endloop
endfacet
facet normal 1.0 -8.899312092768e-015 -9.07222284721767e-016
outer loop
vertex 119.458967545253 419.588520135598 -1.46191097707259e-012
vertex 119.458967545253 390.63682352212 9.99999999999899
vertex 119.458967545253 390.63682352212 -1.09045434900701e-012
endloop
endfacet
facet normal 1.0 -8.899312092768e-015 -9.07222284721767e-016
outer loop
vertex 119.458967545253 390.63682352212 9.99999999999899
vertex 119.458967545253 419.588520135598 -1.46191097707259e-012
vertex 119.458967545253 419.588520135598 9.99999999999854
endloop
endfacet
facet normal -0.969859637109935 -0.243664286067914 5.88887020737856e-015
outer loop
vertex 112.602240333219 368.78316632715 9.99999999999959
vertex 111.545006973665 371.453036672596 -5.77475071875225e-013
vertex 112.602240333219 368.78316632715 -5.52321816612229e-013
endloop
endfacet
facet normal -0.873747513514144 -0.486379772017556 9.79613236831821e-015
outer loop
vertex 111.545006973665 371.453036672596 -5.77475071875225e-013
vertex 112.602240333219 368.78316632715 9.99999999999959
vertex 111.545006973665 371.453036672596 9.99999999999954
endloop
endfacet
facet normal -0.961755226876316 0.273910356825161 -2.83598189887291e-015
outer loop
vertex 112.513091820649 363.089845255327 9.99999999999948
vertex 112.93243604627 365.93063747907 -7.04333197144696e-013
vertex 112.513091820649 363.089845255326 -6.53471123474599e-013
endloop
endfacet
facet normal -0.999877429205514 0.0156565183029906 1.58029127362412e-015
outer loop
vertex 112.93243604627 365.93063747907 -7.04333197144696e-013
vertex 112.513091820649 363.089845255327 9.99999999999948
vertex 112.93243604627 365.93063747907 9.99999999999944
endloop
endfacet
facet normal 9.17653059828351e-015 1.0 -1.33832012620993e-014
outer loop
vertex 29.8911690613087 324.088520135599 3.42798995318742e-013
vertex 34.8911690613087 324.088520135599 10.0000000000003
vertex 34.8911690613087 324.088520135599 3.42492833618955e-013
endloop
endfacet
facet normal 9.17653059828351e-015 1.0 -1.33832012620993e-014
outer loop
vertex 34.8911690613087 324.088520135599 10.0000000000003
vertex 29.8911690613087 324.088520135599 3.42798995318742e-013
vertex 29.8911690613087 324.088520135599 10.0000000000003
endloop
endfacet
facet normal -1.0 9.17653059828352e-015 6.12323399573867e-017
outer loop
vertex 20.8911690613087 320.088520135599 10.0000000000001
vertex 20.8911690613087 324.088520135599 3.43350086378358e-013
vertex 20.8911690613087 320.088520135599 1.21654162730081e-013
endloop
endfacet
facet normal -1.0 9.17653059828352e-015 6.12323399573867e-017
outer loop
vertex 20.8911690613087 324.088520135599 3.43350086378358e-013
vertex 20.8911690613087 320.088520135599 10.0000000000001
vertex 20.8911690613087 324.088520135599 10.0000000000003
endloop
endfacet
facet normal -0.894247647860592 -0.247057063187848 -0.373207652419928
outer loop
vertex 8.14067610757301 331.352050110473 4.99999999999998
vertex 8.96815271319362 334.484672910033 2.70838131144684e-013
vertex 10.0794111064594 331.887671508271 -2.11521682220864e-014
endloop
endfacet
facet normal -0.796166408752374 -0.476272083739491 -0.373207652419925
outer loop
vertex 8.96815271319362 334.484672910033 2.70838131144684e-013
vertex 8.14067610757301 331.352050110473 4.99999999999998
vertex 7.2420585095591 333.452111784547 5.00000000000028
endloop
endfacet
facet normal -0.582273447831201 0.812993008549745 -1.20112681914501e-014
outer loop
vertex 79.7777044696028 373.946849305678 -7.55515422012037e-013
vertex 69.5363880557347 367.31294211763 9.9999999999993
vertex 79.7777044696028 373.946849305678 9.9999999999992
endloop
endfacet
facet normal -0.503871025524078 0.863778900898438 -1.28194531393695e-014
outer loop
vertex 69.5363880557347 367.31294211763 9.9999999999993
vertex 79.7777044696028 373.946849305678 -7.55515422012037e-013
vertex 69.5363880557347 367.31294211763 -6.5873330558261e-013
endloop
endfacet
facet normal -0.655594866621609 0.75511281995434 -1.10982711554159e-014
outer loop
vertex 89.3553147990997 381.507448940953 -5.53003950274103e-013
vertex 79.7777044696028 373.946849305678 9.9999999999992
vertex 89.3553147990997 381.507448940953 9.9999999999994
endloop
endfacet
facet normal -0.582273447831202 0.812993008549745 -1.20112681914501e-014
outer loop
vertex 79.7777044696028 373.946849305678 9.9999999999992
vertex 89.3553147990997 381.507448940953 -5.53003950274103e-013
vertex 79.7777044696028 373.946849305678 -7.55515422012037e-013
endloop
endfacet
facet normal -0.723195468439761 0.690643406128079 -1.00884289773265e-014
outer loop
vertex 98.1856434115958 389.928766122008 -9.97521880371827e-013
vertex 89.3553147990997 381.507448940953 9.9999999999994
vertex 98.1856434115958 389.928766122008 9.99999999999896
endloop
endfacet
facet normal -0.655594866621609 0.75511281995434 -1.10982711554159e-014
outer loop
vertex 89.3553147990997 381.507448940953 9.9999999999994
vertex 98.1856434115958 389.928766122008 -9.97521880371827e-013
vertex 89.3553147990997 381.507448940953 -5.53003950274103e-013
endloop
endfacet
facet normal -0.796166408752374 -0.476272083739491 -0.373207652419925
outer loop
vertex 8.96815271319362 334.484672910033 2.70838131144684e-013
vertex 5.81664775569033 335.23704226082 5.0000000000002
vertex 7.20544556435856 336.691973298472 1.86326635783207e-013
endloop
endfacet
facet normal -0.640587380157082 -0.67109154111693 -0.373207652419922
outer loop
vertex 5.81664775569033 335.23704226082 5.0000000000002
vertex 8.96815271319362 334.484672910033 2.70838131144684e-013
vertex 7.2420585095591 333.452111784547 5.00000000000028
endloop
endfacet
facet normal 0.695949280284779 -0.718090940808404 1.08009349455719e-014
outer loop
vertex 94.2783422418769 374.001859529296 9.99999999999934
vertex 92.4947833776867 371.751333409471 -5.59086914392507e-013
vertex 94.2783422418769 374.001859529296 -8.02507209787498e-013
endloop
endfacet
facet normal 0.858090995211156 -0.513497657187964 7.05898759164343e-015
outer loop
vertex 92.4947833776867 371.751333409471 -5.59086914392507e-013
vertex 94.2783422418769 374.001859529296 9.99999999999934
vertex 92.4947833776867 371.751333409471 9.99999999999958
endloop
endfacet
facet normal -0.999877429205514 0.0156565183029851 1.58029127362421e-015
outer loop
vertex 112.93243604627 365.93063747907 9.99999999999944
vertex 112.602240333219 368.78316632715 -5.52321816612229e-013
vertex 112.93243604627 365.93063747907 -7.04333197144696e-013
endloop
endfacet
facet normal -0.969859637109936 -0.243664286067908 5.88887020737847e-015
outer loop
vertex 112.602240333219 368.78316632715 -5.52321816612229e-013
vertex 112.93243604627 365.93063747907 9.99999999999944
vertex 112.602240333219 368.78316632715 9.99999999999959
endloop
endfacet
facet normal 9.17653059828351e-015 1.0 -1.33832012620993e-014
outer loop
vertex 20.8911690613087 324.088520135599 3.43350086378358e-013
vertex 25.8911690613087 324.088520135599 10.0000000000003
vertex 25.8911690613087 324.088520135599 3.43043924678572e-013
endloop
endfacet
facet normal 9.17653059828351e-015 1.0 -1.33832012620993e-014
outer loop
vertex 25.8911690613087 324.088520135599 10.0000000000003
vertex 20.8911690613087 324.088520135599 3.43350086378358e-013
vertex 20.8911690613087 324.088520135599 10.0000000000003
endloop
endfacet
facet normal -0.513497657187962 -0.858090995211157 1.53871077059729e-014
outer loop
vertex 107.582258554077 375.541860127726 9.99999999999926
vertex 109.832784673902 373.758301263536 -8.21660865431431e-013
vertex 109.832784673902 373.758301263536 9.99999999999929
endloop
endfacet
facet normal -0.718090940808404 -0.695949280284779 1.30358042972311e-014
outer loop
vertex 109.832784673902 373.758301263536 -8.21660865431431e-013
vertex 107.582258554077 375.541860127726 9.99999999999926
vertex 107.582258554077 375.541860127726 -8.53440109639906e-013
endloop
endfacet
facet normal -0.873747513514144 -0.486379772017556 9.79613236831821e-015
outer loop
vertex 111.545006973665 371.453036672596 -5.77475071875225e-013
vertex 109.832784673902 373.758301263536 9.99999999999929
vertex 109.832784673902 373.758301263536 -8.21660865431431e-013
endloop
endfacet
facet normal -0.718090940808408 -0.695949280284774 1.30358042972311e-014
outer loop
vertex 109.832784673902 373.758301263536 9.99999999999929
vertex 111.545006973665 371.453036672596 -5.77475071875225e-013
vertex 111.545006973665 371.453036672596 9.99999999999954
endloop
endfacet
facet normal -0.72319546843976 0.69064340612808 -1.00884289773265e-014
outer loop
vertex 98.1856434115958 389.928766122008 9.99999999999896
vertex 106.191635564339 399.137315199839 -1.14024071938897e-012
vertex 98.1856434115958 389.928766122008 -9.97521880371827e-013
endloop
endfacet
facet normal -0.784485360518179 0.620147336632726 -8.99055368815702e-015
outer loop
vertex 106.191635564339 399.137315199839 -1.14024071938897e-012
vertex 98.1856434115958 389.928766122008 9.99999999999896
vertex 106.191635564339 399.137315199839 9.99999999999882
endloop
endfacet
facet normal -0.784485360518179 0.620147336632726 -8.99055368815702e-015
outer loop
vertex 106.191635564339 399.137315199839 9.99999999999882
vertex 113.303429795444 409.052741024433 -1.2729947364571e-012
vertex 106.191635564339 399.137315199839 -1.14024071938897e-012
endloop
endfacet
facet normal -0.838929718268263 0.544239770511429 -8.02316514873446e-015
outer loop
vertex 113.303429795444 409.052741024433 -1.2729947364571e-012
vertex 106.191635564339 399.137315199839 9.99999999999882
vertex 113.303429795444 409.052741024433 9.99999999999869
endloop
endfacet
facet normal -0.695949280284778 0.718090940808405 -1.0800934945572e-014
outer loop
vertex 109.589226408142 358.203858831511 9.99999999999978
vertex 111.372785272332 360.454384951336 -4.03201761869002e-013
vertex 109.589226408142 358.203858831511 -3.6281905321746e-013
endloop
endfacet
facet normal -0.85809099521116 0.513497657187958 -7.05898759164334e-015
outer loop
vertex 111.372785272332 360.454384951336 -4.03201761869002e-013
vertex 109.589226408142 358.203858831511 9.99999999999978
vertex 111.372785272332 360.454384951336 9.99999999999974
endloop
endfacet
facet normal -0.695949280284778 0.718090940808405 -1.0800934945572e-014
outer loop
vertex 109.589226408142 358.203858831511 -3.6281905321746e-013
vertex 107.283961817203 356.491636531748 9.99999999999981
vertex 109.589226408142 358.203858831511 9.99999999999978
endloop
endfacet
facet normal -0.486379772017556 0.873747513514145 -1.38068164323487e-014
outer loop
vertex 107.283961817203 356.491636531748 9.99999999999981
vertex 109.589226408142 358.203858831511 -3.6281905321746e-013
vertex 107.283961817203 356.491636531748 -3.32037425635545e-013
endloop
endfacet
facet normal 0.999877429205514 -0.0156565183029906 -1.58029127362412e-015
outer loop
vertex 90.9351326037488 366.275080881736 9.99999999999948
vertex 91.2653283168002 363.422552033656 -6.13004446392728e-013
vertex 90.9351326037488 366.275080881736 -6.6403065260371e-013
endloop
endfacet
facet normal 0.969859637109936 0.243664286067909 -5.88887020737847e-015
outer loop
vertex 91.2653283168002 363.422552033656 -6.13004446392728e-013
vertex 90.9351326037488 366.275080881736 9.99999999999948
vertex 91.2653283168002 363.422552033656 9.99999999999953
endloop
endfacet
facet normal -0.243664286067906 0.969859637109936 -1.5871786196104e-014
outer loop
vertex 104.614091471756 355.434403172194 -4.93432451056987e-013
vertex 101.761562623677 355.104207459143 9.99999999999963
vertex 104.614091471757 355.434403172194 9.99999999999962
endloop
endfacet
facet normal 0.0156565183029863 0.999877429205514 -1.68551199599615e-014
outer loop
vertex 101.761562623677 355.104207459143 9.99999999999963
vertex 104.614091471756 355.434403172194 -4.93432451056987e-013
vertex 101.761562623677 355.104207459143 -4.87348883007597e-013
endloop
endfacet
facet normal 1.0 -9.17653059828352e-015 -6.12323399573867e-017
outer loop
vertex 34.8911690613087 324.088520135599 3.42492833618955e-013
vertex 34.8911690613087 320.088520135599 10.0000000000001
vertex 34.8911690613087 320.088520135599 1.20796909970677e-013
endloop
endfacet
facet normal 1.0 -9.17653059828352e-015 -6.12323399573867e-017
outer loop
vertex 34.8911690613087 320.088520135599 10.0000000000001
vertex 34.8911690613087 324.088520135599 3.42492833618955e-013
vertex 34.8911690613087 324.088520135599 10.0000000000003
endloop
endfacet
facet normal -0.999825196250587 9.47149349168597e-015 0.0186969768271852
outer loop
vertex -0.44753122624604 337.57933094641 5.00000000000016
vertex -0.54103245474717 349.588520135599 -2.14249070023278e-014
vertex -0.54103245474726 339.588520135599 -1.3574994484555e-013
endloop
endfacet
facet normal -1.0 9.17653059828352e-015 6.12323399573867e-017
outer loop
vertex -0.54103245474717 349.5885201356 9.99999999999994
vertex -0.54103245474717 349.588520135599 -2.14249070023278e-014
vertex -0.54103245474726 339.588520135599 9.99999999999982
endloop
endfacet
facet normal -0.999822097044209 -0.0133374334509971 -0.0133374334510058
outer loop
vertex -0.54103245474726 339.588520135599 9.99999999999982
vertex -0.54103245474717 349.588520135599 -2.14249070023278e-014
vertex -0.44753122624604 337.57933094641 5.00000000000016
endloop
endfacet
facet normal -0.245204780972728 0.969471307150509 -1.45495457992244e-014
outer loop
vertex 35.7481098612147 353.506871550953 -4.09602699207092e-013
vertex 47.4251176570925 357.048167274783 9.9999999999998
vertex 47.4251176570925 357.048167274783 -1.57853473466972e-013
endloop
endfacet
facet normal -0.334598142089496 0.942360909264735 -1.40941535546584e-014
outer loop
vertex 47.4251176570925 357.048167274783 9.9999999999998
vertex 35.7481098612147 353.506871550953 -4.09602699207092e-013
vertex 35.7481098612147 353.506871550954 9.99999999999955
endloop
endfacet
facet normal -0.153671726969262 0.98812195620292 -1.48779765729422e-014
outer loop
vertex 23.7916046820118 351.070630518482 -3.65273681468746e-013
vertex 35.7481098612147 353.506871550954 9.99999999999955
vertex 35.7481098612147 353.506871550953 -4.09602699207092e-013
endloop
endfacet
facet normal -0.245204780972729 0.969471307150509 -1.45495457992244e-014
outer loop
vertex 35.7481098612147 353.506871550954 9.99999999999955
vertex 23.7916046820118 351.070630518482 -3.65273681468746e-013
vertex 23.7916046820118 351.070630518482 9.99999999999959
endloop
endfacet
facet normal -7.22821284752539e-015 -1.0 -1.52637854130692e-016
outer loop
vertex 10.3911690613088 329.588520135599 9.99999999999998
vertex 25.8911690613087 329.588520135599 -3.53643777361069e-015
vertex 25.8911690613087 329.588520135599 9.99999999999998
endloop
endfacet
facet normal -7.22821284752539e-015 -1.0 -1.52637854130692e-016
outer loop
vertex 25.8911690613087 329.588520135599 -3.53643777361069e-015
vertex 10.3911690613088 329.588520135599 9.99999999999998
vertex 10.3911690613088 329.588520135599 -2.58733650427119e-015
endloop
endfacet
facet normal -7.22821284752539e-015 -1.0 -1.52637854130692e-016
outer loop
vertex 10.3911690613088 329.588520135599 -2.58733650427119e-015
vertex 10.3911690613088 329.588520135599 9.99999999999998
vertex 8.37980542494513 329.588520135599 5.00000000000001
endloop
endfacet
facet normal -0.920492758213803 -0.124816026976471 -0.370289132281456
outer loop
vertex 8.37980542494513 329.588520135599 5.00000000000001
vertex 10.0794111064594 331.887671508271 -2.11521682220864e-014
vertex 10.3911690613088 329.588520135599 -2.58733650427119e-015
endloop
endfacet
facet normal -0.894247647860594 -0.247057063187842 -0.373207652419928
outer loop
vertex 10.0794111064594 331.887671508271 -2.11521682220864e-014
vertex 8.37980542494513 329.588520135599 5.00000000000001
vertex 8.14067610757301 331.352050110473 4.99999999999998
endloop
endfacet
facet normal -0.20521954327305 -0.904765708475964 -0.373207652419919
outer loop
vertex 1.82781968428367 337.377958514522 5.00000000000017
vertex -0.54103245474726 339.588520135599 -1.3574994484555e-013
vertex 2.27273705359498 339.339496740551 -1.31465928117885e-013
endloop
endfacet
facet normal -0.0818906165654905 -0.925299889458967 -0.370289132281447
outer loop
vertex -0.54103245474726 339.588520135599 -1.3574994484555e-013
vertex 1.82781968428367 337.377958514522 5.00000000000017
vertex -0.44753122624604 337.57933094641 5.00000000000016
endloop
endfacet
facet normal -0.0141108381047446 0.999900437167612 -1.48216480630453e-014
outer loop
vertex -0.54103245474717 349.588520135599 -2.14249070023278e-014
vertex 11.6599363375208 349.760703173979 9.99999999999991
vertex 11.6599363375208 349.760703173979 -4.7812973623517e-014
endloop
endfacet
facet normal -0.06079771093488 0.99815010812256 -1.49239323600393e-014
outer loop
vertex 11.6599363375208 349.760703173979 9.99999999999991
vertex -0.54103245474717 349.588520135599 -2.14249070023278e-014
vertex -0.54103245474717 349.5885201356 9.99999999999994
endloop
endfacet
facet normal -0.0818906165654903 -0.925299889458955 0.370289132281478
outer loop
vertex -0.54103245474726 339.588520135599 9.99999999999982
vertex 1.82781968428367 337.377958514522 5.00000000000017
vertex 2.27273705359498 339.339496740551 9.99999999999983
endloop
endfacet
facet normal -0.20521954327305 -0.904765708475952 0.37320765241995
outer loop
vertex 1.82781968428367 337.377958514522 5.00000000000017
vertex -0.54103245474726 339.588520135599 9.99999999999982
vertex -0.44753122624604 337.57933094641 5.00000000000016
endloop
endfacet
facet normal -0.796166408752375 -0.476272083739475 0.373207652419942
outer loop
vertex 7.2420585095591 333.452111784547 5.00000000000028
vertex 7.20544556435856 336.691973298472 10.0000000000001
vertex 5.81664775569033 335.23704226082 5.0000000000002
endloop
endfacet
facet normal -0.640587380157083 -0.671091541116916 0.373207652419945
outer loop
vertex 7.20544556435856 336.691973298472 10.0000000000001
vertex 7.2420585095591 333.452111784547 5.00000000000028
vertex 8.96815271319362 334.484672910033 10.0000000000002
endloop
endfacet
facet normal -0.894247647860591 -0.247057063187838 0.373207652419938
outer loop
vertex 10.0794111064594 331.887671508271 9.99999999999994
vertex 7.2420585095591 333.452111784547 5.00000000000028
vertex 8.14067610757301 331.352050110473 4.99999999999998
endloop
endfacet
facet normal -0.796166408752375 -0.476272083739475 0.373207652419942
outer loop
vertex 7.2420585095591 333.452111784547 5.00000000000028
vertex 10.0794111064594 331.887671508271 9.99999999999994
vertex 8.96815271319362 334.484672910033 10.0000000000002
endloop
endfacet
facet normal 1.00520274517789e-015 1.63960006731957e-014 1.0
outer loop
vertex 101.761562623677 355.104207459143 9.99999999999963
vertex 72.2931554971 355.588520135599 9.99999999999953
vertex 78.8751478066843 354.687683984061 9.99999999999955
endloop
endfacet
facet normal 1.00520274517789e-015 1.63960006731957e-014 1.0
outer loop
vertex 72.2931554971 355.588520135599 9.99999999999953
vertex 101.761562623677 355.104207459143 9.99999999999963
vertex 98.9207703999327 355.523551684764 9.99999999999962
endloop
endfacet
facet normal 1.00520274517789e-015 1.63960006731957e-014 1.0
outer loop
vertex 72.2931554971 355.588520135599 9.99999999999953
vertex 98.9207703999327 355.523551684764 9.99999999999962
vertex 96.2853100959419 356.663858233081 9.9999999999998
endloop
endfacet
facet normal 1.00520274517789e-015 1.63960006731957e-014 1.0
outer loop
vertex 119.458967545253 380.63682352212 9.99999999999917
vertex 109.108825192396 329.588520135599 9.99999999999997
vertex 119.458967545253 329.588520135598 9.99999999999997
endloop
endfacet
facet normal 1.00520274517789e-015 1.63960006731957e-014 1.0
outer loop
vertex 109.108825192396 329.588520135599 9.99999999999997
vertex 119.458967545253 380.63682352212 9.99999999999917
vertex 105.108825192396 329.588520135599 9.99999999999997
endloop
endfacet
facet normal 1.00520274517789e-015 1.63960006731957e-014 1.0
outer loop
vertex 105.108825192396 329.588520135599 9.99999999999997
vertex 119.458967545253 380.63682352212 9.99999999999917
vertex 112.513091820649 363.089845255327 9.99999999999948
endloop
endfacet
facet normal 1.00520274517789e-015 1.63960006731957e-014 1.0
outer loop
vertex 105.108825192396 329.588520135599 9.99999999999997
vertex 112.513091820649 363.089845255327 9.99999999999948
vertex 111.372785272332 360.454384951336 9.99999999999974
endloop
endfacet
facet normal 1.00520274517789e-015 1.63960006731957e-014 1.0
outer loop
vertex 105.108825192396 329.588520135599 9.99999999999997
vertex 111.372785272332 360.454384951336 9.99999999999974
vertex 96.2480805232038 336.213399704735 10.0000000000001
endloop
endfacet
facet normal 1.00520274517789e-015 1.63960006731957e-014 1.0
outer loop
vertex 96.2480805232038 336.213399704735 10.0000000000001
vertex 111.372785272332 360.454384951336 9.99999999999974
vertex 109.589226408142 358.203858831511 9.99999999999978
endloop
endfacet
facet normal 1.00520274517789e-015 1.63960006731957e-014 1.0
outer loop
vertex 96.2480805232038 336.213399704735 10.0000000000001
vertex 109.589226408142 358.203858831511 9.99999999999978
vertex 93.9911436460911 342.46162861124 9.99999999999974
endloop
endfacet
facet normal 1.00520274517789e-015 1.63960006731957e-014 1.0
outer loop
vertex 93.9911436460911 342.46162861124 9.99999999999974
vertex 109.589226408142 358.203858831511 9.99999999999978
vertex 107.283961817203 356.491636531748 9.99999999999981
endloop
endfacet
facet normal 1.00520274517789e-015 1.63960006731957e-014 1.0
outer loop
vertex 93.9911436460911 342.46162861124 9.99999999999974
vertex 107.283961817203 356.491636531748 9.99999999999981
vertex 90.1383404218912 347.873655574489 9.99999999999987
endloop
endfacet
facet normal 1.00520274517789e-015 1.63960006731957e-014 1.0
outer loop
vertex 90.1383404218912 347.873655574489 9.99999999999987
vertex 107.283961817203 356.491636531748 9.99999999999981
vertex 104.614091471757 355.434403172194 9.99999999999962
endloop
endfacet
facet normal 1.00520274517789e-015 1.63960006731957e-014 1.0
outer loop
vertex 90.1383404218912 347.873655574489 9.99999999999987
vertex 104.614091471757 355.434403172194 9.99999999999962
vertex 84.9730408554742 352.051431169769 9.99999999999959
endloop
endfacet
facet normal 1.00520274517789e-015 1.63960006731957e-014 1.0
outer loop
vertex 84.9730408554742 352.051431169769 9.99999999999959
vertex 104.614091471757 355.434403172194 9.99999999999962
vertex 101.761562623677 355.104207459143 9.99999999999963
endloop
endfacet
facet normal 1.00520274517789e-015 1.63960006731957e-014 1.0
outer loop
vertex 84.9730408554742 352.051431169769 9.99999999999959
vertex 101.761562623677 355.104207459143 9.99999999999963
vertex 78.8751478066843 354.687683984061 9.99999999999955
endloop
endfacet
facet normal 1.00520274517789e-015 1.63960006731957e-014 1.0
outer loop
vertex 112.513091820649 363.089845255327 9.99999999999948
vertex 119.458967545253 380.63682352212 9.99999999999917
vertex 112.93243604627 365.93063747907 9.99999999999944
endloop
endfacet
facet normal 1.00520274517789e-015 1.63960006731957e-014 1.0
outer loop
vertex 112.93243604627 365.93063747907 9.99999999999944
vertex 119.458967545253 380.63682352212 9.99999999999917
vertex 112.602240333219 368.78316632715 9.99999999999959
endloop
endfacet
facet normal 1.00520274517789e-015 1.63960006731957e-014 1.0
outer loop
vertex 112.602240333219 368.78316632715 9.99999999999959
vertex 119.458967545253 380.63682352212 9.99999999999917
vertex 111.545006973665 371.453036672596 9.99999999999954
endloop
endfacet
facet normal 1.00520274517789e-015 1.63960006731957e-014 1.0
outer loop
vertex 111.545006973665 371.453036672596 9.99999999999954
vertex 119.458967545253 380.63682352212 9.99999999999917
vertex 109.832784673902 373.758301263536 9.99999999999929
endloop
endfacet
facet normal 1.00520274517789e-015 1.63960006731957e-014 1.0
outer loop
vertex 109.832784673902 373.758301263536 9.99999999999929
vertex 119.458967545253 380.63682352212 9.99999999999917
vertex 107.582258554077 375.541860127726 9.99999999999926
endloop
endfacet
facet normal 1.00520274517789e-015 1.63960006731957e-014 1.0
outer loop
vertex 107.582258554077 375.541860127726 9.99999999999926
vertex 119.458967545253 380.63682352212 9.99999999999917
vertex 104.946798250086 376.682166676043 9.99999999999925
endloop
endfacet
facet normal 1.00520274517789e-015 1.63960006731957e-014 1.0
outer loop
vertex 104.946798250086 376.682166676043 9.99999999999925
vertex 119.458967545253 380.63682352212 9.99999999999917
vertex 102.106006026342 377.101510901664 9.99999999999924
endloop
endfacet
facet normal 1.00520274517789e-015 1.63960006731957e-014 1.0
outer loop
vertex 119.458967545253 419.588520135598 9.99999999999854
vertex 114.458967545253 390.63682352212 9.99999999999901
vertex 119.458967545253 390.63682352212 9.99999999999899
endloop
endfacet
facet normal 1.00520274517789e-015 1.63960006731957e-014 1.0
outer loop
vertex 114.458967545253 390.63682352212 9.99999999999901
vertex 119.458967545253 419.588520135598 9.99999999999854
vertex 113.303429795444 409.052741024433 9.99999999999869
endloop
endfacet
facet normal 1.00520274517789e-015 1.63960006731957e-014 1.0
outer loop
vertex 114.458967545253 390.63682352212 9.99999999999901
vertex 113.303429795444 409.052741024433 9.99999999999869
vertex 106.191635564339 399.137315199839 9.99999999999882
endloop
endfacet
facet normal 1.00520274517789e-015 1.63960006731957e-014 1.0
outer loop
vertex 29.8911690613088 329.588520135599 9.99999999999998
vertex 25.8911690613087 324.088520135599 10.0000000000003
vertex 29.8911690613087 324.088520135599 10.0000000000003
endloop
endfacet
facet normal 1.00520274517789e-015 1.63960006731957e-014 1.0
outer loop
vertex 25.8911690613087 324.088520135599 10.0000000000003
vertex 29.8911690613088 329.588520135599 9.99999999999998
vertex 25.8911690613087 329.588520135599 9.99999999999998
endloop
endfacet
facet normal 1.00520274517789e-015 1.63960006731957e-014 1.0
outer loop
vertex 25.8911690613087 329.588520135599 9.99999999999998
vertex 29.8911690613088 329.588520135599 9.99999999999998
vertex 47.8431554970997 329.588520135599 9.99999999999995
endloop
endfacet
facet normal 1.00520274517789e-015 1.63960006731957e-014 1.0
outer loop
vertex 25.8911690613087 329.588520135599 9.99999999999998
vertex 47.8431554970997 329.588520135599 9.99999999999995
vertex 10.3911690613088 329.588520135599 9.99999999999998
endloop
endfacet
facet normal 1.00520274517789e-015 1.63960006731957e-014 1.0
outer loop
vertex 10.3911690613088 329.588520135599 9.99999999999998
vertex 47.8431554970997 329.588520135599 9.99999999999995
vertex 10.0794111064594 331.887671508271 9.99999999999994
endloop
endfacet
facet normal 1.00520274517789e-015 1.63960006731957e-014 1.0
outer loop
vertex 10.0794111064594 331.887671508271 9.99999999999994
vertex 47.8431554970997 329.588520135599 9.99999999999995
vertex 48.3382304709958 336.213399704736 10.0000000000001
endloop
endfacet
facet normal 1.00520274517789e-015 1.63960006731957e-014 1.0
outer loop
vertex 10.0794111064594 331.887671508271 9.99999999999994
vertex 48.3382304709958 336.213399704736 10.0000000000001
vertex 8.96815271319362 334.484672910033 10.0000000000002
endloop
endfacet
facet normal 1.00520274517789e-015 1.63960006731957e-014 1.0
outer loop
vertex 8.96815271319362 334.484672910033 10.0000000000002
vertex 48.3382304709958 336.213399704736 10.0000000000001
vertex 7.20544556435856 336.691973298472 10.0000000000001
endloop
endfacet
facet normal 1.00520274517789e-015 1.63960006731957e-014 1.0
outer loop
vertex 7.20544556435856 336.691973298472 10.0000000000001
vertex 48.3382304709958 336.213399704736 10.0000000000001
vertex 50.5951673481086 342.46162861124 9.99999999999975
endloop
endfacet
facet normal 1.00520274517789e-015 1.63960006731957e-014 1.0
outer loop
vertex 7.20544556435856 336.691973298472 10.0000000000001
vertex 50.5951673481086 342.46162861124 9.99999999999975
vertex 4.91858938455563 338.350165178278 9.99999999999985
endloop
endfacet
facet normal 1.00520274517789e-015 1.63960006731957e-014 1.0
outer loop
vertex 4.91858938455563 338.350165178278 9.99999999999985
vertex 50.5951673481086 342.46162861124 9.99999999999975
vertex 2.27273705359498 339.339496740551 9.99999999999983
endloop
endfacet
facet normal 1.00520274517789e-015 1.63960006731957e-014 1.0
outer loop
vertex 2.27273705359498 339.339496740551 9.99999999999983
vertex 50.5951673481086 342.46162861124 9.99999999999975
vertex -0.54103245474726 339.588520135599 9.99999999999982
endloop
endfacet
facet normal 1.00520274517789e-015 1.63960006731957e-014 1.0
outer loop
vertex -0.54103245474726 339.588520135599 9.99999999999982
vertex 50.5951673481086 342.46162861124 9.99999999999975
vertex -0.54103245474717 349.5885201356 9.99999999999994
endloop
endfacet
facet normal 1.00520274517789e-015 1.63960006731957e-014 1.0
outer loop
vertex -0.54103245474717 349.5885201356 9.99999999999994
vertex 50.5951673481086 342.46162861124 9.99999999999975
vertex 54.4479705723086 347.873655574489 9.99999999999987
endloop
endfacet
facet normal 1.00520274517789e-015 1.63960006731957e-014 1.0
outer loop
vertex -0.54103245474717 349.5885201356 9.99999999999994
vertex 54.4479705723086 347.873655574489 9.99999999999987
vertex 11.6599363375208 349.760703173979 9.99999999999991
endloop
endfacet
facet normal 1.00520274517789e-015 1.63960006731957e-014 1.0
outer loop
vertex 11.6599363375208 349.760703173979 9.99999999999991
vertex 54.4479705723086 347.873655574489 9.99999999999987
vertex 59.6132701387257 352.051431169769 9.9999999999996
endloop
endfacet
facet normal 1.00520274517789e-015 1.63960006731957e-014 1.0
outer loop
vertex 11.6599363375208 349.760703173979 9.99999999999991
vertex 59.6132701387257 352.051431169769 9.9999999999996
vertex 23.7916046820118 351.070630518482 9.99999999999959
endloop
endfacet
facet normal 1.00520274517789e-015 1.63960006731957e-014 1.0
outer loop
vertex 23.7916046820118 351.070630518482 9.99999999999959
vertex 59.6132701387257 352.051431169769 9.9999999999996
vertex 35.7481098612147 353.506871550954 9.99999999999955
endloop
endfacet
facet normal 1.00520274517789e-015 1.63960006731957e-014 1.0
outer loop
vertex 35.7481098612147 353.506871550954 9.99999999999955
vertex 59.6132701387257 352.051431169769 9.9999999999996
vertex 65.7111631875157 354.687683984061 9.99999999999955
endloop
endfacet
facet normal 1.00520274517789e-015 1.63960006731957e-014 1.0
outer loop
vertex 35.7481098612147 353.506871550954 9.99999999999955
vertex 65.7111631875157 354.687683984061 9.99999999999955
vertex 47.4251176570925 357.048167274783 9.9999999999998
endloop
endfacet
facet normal 1.00520274517789e-015 1.63960006731957e-014 1.0
outer loop
vertex 47.4251176570925 357.048167274783 9.9999999999998
vertex 65.7111631875157 354.687683984061 9.99999999999955
vertex 72.2931554971 355.588520135599 9.99999999999953
endloop
endfacet
facet normal 1.00520274517789e-015 1.63960006731957e-014 1.0
outer loop
vertex 47.4251176570925 357.048167274783 9.9999999999998
vertex 72.2931554971 355.588520135599 9.99999999999953
vertex 96.2853100959419 356.663858233081 9.9999999999998
endloop
endfacet
facet normal 1.00520274517789e-015 1.63960006731957e-014 1.0
outer loop
vertex 47.4251176570925 357.048167274783 9.9999999999998
vertex 96.2853100959419 356.663858233081 9.9999999999998
vertex 94.034783976117 358.447417097271 9.99999999999977
endloop
endfacet
facet normal 1.00520274517789e-015 1.63960006731957e-014 1.0
outer loop
vertex 47.4251176570925 357.048167274783 9.9999999999998
vertex 94.034783976117 358.447417097271 9.99999999999977
vertex 58.7207327867731 361.663615824028 9.9999999999994
endloop
endfacet
facet normal 1.00520274517789e-015 1.63960006731957e-014 1.0
outer loop
vertex 58.7207327867731 361.663615824028 9.9999999999994
vertex 94.034783976117 358.447417097271 9.99999999999977
vertex 92.3225616763539 360.75268168821 9.99999999999973
endloop
endfacet
facet normal 1.00520274517789e-015 1.63960006731957e-014 1.0
outer loop
vertex 58.7207327867731 361.663615824028 9.9999999999994
vertex 92.3225616763539 360.75268168821 9.99999999999973
vertex 91.2653283168002 363.422552033656 9.99999999999953
endloop
endfacet
facet normal 1.00520274517789e-015 1.63960006731957e-014 1.0
outer loop
vertex 58.7207327867731 361.663615824028 9.9999999999994
vertex 91.2653283168002 363.422552033656 9.99999999999953
vertex 69.5363880557347 367.31294211763 9.9999999999993
endloop
endfacet
facet normal 1.00520274517789e-015 1.63960006731957e-014 1.0
outer loop
vertex 69.5363880557347 367.31294211763 9.9999999999993
vertex 91.2653283168002 363.422552033656 9.99999999999953
vertex 90.9351326037488 366.275080881736 9.99999999999948
endloop
endfacet
facet normal 1.00520274517789e-015 1.63960006731957e-014 1.0
outer loop
vertex 69.5363880557347 367.31294211763 9.9999999999993
vertex 90.9351326037488 366.275080881736 9.99999999999948
vertex 91.35447682937 369.11587310548 9.99999999999963
endloop
endfacet
facet normal 1.00520274517789e-015 1.63960006731957e-014 1.0
outer loop
vertex 69.5363880557347 367.31294211763 9.9999999999993
vertex 91.35447682937 369.11587310548 9.99999999999963
vertex 79.7777044696028 373.946849305678 9.9999999999992
endloop
endfacet
facet normal 1.00520274517789e-015 1.63960006731957e-014 1.0
outer loop
vertex 79.7777044696028 373.946849305678 9.9999999999992
vertex 91.35447682937 369.11587310548 9.99999999999963
vertex 92.4947833776867 371.751333409471 9.99999999999958
endloop
endfacet
facet normal 1.00520274517789e-015 1.63960006731957e-014 1.0
outer loop
vertex 79.7777044696028 373.946849305678 9.9999999999992
vertex 92.4947833776867 371.751333409471 9.99999999999958
vertex 94.2783422418769 374.001859529296 9.99999999999934
endloop
endfacet
facet normal 1.00520274517789e-015 1.63960006731957e-014 1.0
outer loop
vertex 79.7777044696028 373.946849305678 9.9999999999992
vertex 94.2783422418769 374.001859529296 9.99999999999934
vertex 89.3553147990997 381.507448940953 9.9999999999994
endloop
endfacet
facet normal 1.00520274517789e-015 1.63960006731957e-014 1.0
outer loop
vertex 89.3553147990997 381.507448940953 9.9999999999994
vertex 94.2783422418769 374.001859529296 9.99999999999934
vertex 96.5836068328164 375.714081829059 9.99999999999931
endloop
endfacet
facet normal 1.00520274517789e-015 1.63960006731957e-014 1.0
outer loop
vertex 89.3553147990997 381.507448940953 9.9999999999994
vertex 96.5836068328164 375.714081829059 9.99999999999931
vertex 99.2534771782625 376.771315188613 9.99999999999929
endloop
endfacet
facet normal 1.00520274517789e-015 1.63960006731957e-014 1.0
outer loop
vertex 89.3553147990997 381.507448940953 9.9999999999994
vertex 99.2534771782625 376.771315188613 9.99999999999929
vertex 102.106006026342 377.101510901664 9.99999999999924
endloop
endfacet
facet normal 1.00520274517789e-015 1.63960006731957e-014 1.0
outer loop
vertex 89.3553147990997 381.507448940953 9.9999999999994
vertex 102.106006026342 377.101510901664 9.99999999999924
vertex 114.458967545253 380.63682352212 9.99999999999918
endloop
endfacet
facet normal 1.00520274517789e-015 1.63960006731957e-014 1.0
outer loop
vertex 114.458967545253 380.63682352212 9.99999999999918
vertex 102.106006026342 377.101510901664 9.99999999999924
vertex 119.458967545253 380.63682352212 9.99999999999917
endloop
endfacet
facet normal 1.00520274517789e-015 1.63960006731957e-014 1.0
outer loop
vertex 89.3553147990997 381.507448940953 9.9999999999994
vertex 114.458967545253 380.63682352212 9.99999999999918
vertex 114.458967545253 390.63682352212 9.99999999999901
endloop
endfacet
facet normal 1.00520274517789e-015 1.63960006731957e-014 1.0
outer loop
vertex 89.3553147990997 381.507448940953 9.9999999999994
vertex 114.458967545253 390.63682352212 9.99999999999901
vertex 98.1856434115958 389.928766122008 9.99999999999896
endloop
endfacet
facet normal 1.00520274517789e-015 1.63960006731957e-014 1.0
outer loop
vertex 98.1856434115958 389.928766122008 9.99999999999896
vertex 114.458967545253 390.63682352212 9.99999999999901
vertex 106.191635564339 399.137315199839 9.99999999999882
endloop
endfacet
facet normal 1.00520274517789e-015 1.63960006731957e-014 1.0
outer loop
vertex 96.2480805232038 336.213399704735 10.0000000000001
vertex 96.7431554970997 329.588520135599 9.99999999999995
vertex 105.108825192396 329.588520135599 9.99999999999997
endloop
endfacet
facet normal 1.00520274517789e-015 1.63960006731957e-014 1.0
outer loop
vertex 109.108825192396 329.588520135599 9.99999999999997
vertex 105.108825192396 324.088520135599 10.0000000000001
vertex 109.108825192396 324.088520135599 10.0000000000001
endloop
endfacet
facet normal 1.00520274517789e-015 1.63960006731957e-014 1.0
outer loop
vertex 105.108825192396 324.088520135599 10.0000000000001
vertex 109.108825192396 329.588520135599 9.99999999999997
vertex 105.108825192396 329.588520135599 9.99999999999997
endloop
endfacet
facet normal 1.00520274517789e-015 1.63960006731957e-014 1.0
outer loop
vertex 114.108825192396 324.088520135599 10.0000000000001
vertex 100.108825192396 320.088520135599 10.0000000000001
vertex 114.108825192396 320.088520135599 10.0000000000001
endloop
endfacet
facet normal 1.00520274517789e-015 1.63960006731957e-014 1.0
outer loop
vertex 100.108825192396 320.088520135599 10.0000000000001
vertex 114.108825192396 324.088520135599 10.0000000000001
vertex 100.108825192396 324.088520135599 10.0000000000001
endloop
endfacet
facet normal 1.00520274517789e-015 1.63960006731957e-014 1.0
outer loop
vertex 100.108825192396 324.088520135599 10.0000000000001
vertex 114.108825192396 324.088520135599 10.0000000000001
vertex 109.108825192396 324.088520135599 10.0000000000001
endloop
endfacet
facet normal 1.00520274517789e-015 1.63960006731957e-014 1.0
outer loop
vertex 100.108825192396 324.088520135599 10.0000000000001
vertex 109.108825192396 324.088520135599 10.0000000000001
vertex 105.108825192396 324.088520135599 10.0000000000001
endloop
endfacet
facet normal 1.00520274517789e-015 1.63960006731957e-014 1.0
outer loop
vertex 34.8911690613087 324.088520135599 10.0000000000003
vertex 20.8911690613087 320.088520135599 10.0000000000001
vertex 34.8911690613087 320.088520135599 10.0000000000001
endloop
endfacet
facet normal 1.00520274517789e-015 1.63960006731957e-014 1.0
outer loop
vertex 20.8911690613087 320.088520135599 10.0000000000001
vertex 34.8911690613087 324.088520135599 10.0000000000003
vertex 20.8911690613087 324.088520135599 10.0000000000003
endloop
endfacet
facet normal 1.00520274517789e-015 1.63960006731957e-014 1.0
outer loop
vertex 20.8911690613087 324.088520135599 10.0000000000003
vertex 34.8911690613087 324.088520135599 10.0000000000003
vertex 29.8911690613087 324.088520135599 10.0000000000003
endloop
endfacet
facet normal 1.00520274517789e-015 1.63960006731957e-014 1.0
outer loop
vertex 20.8911690613087 324.088520135599 10.0000000000003
vertex 29.8911690613087 324.088520135599 10.0000000000003
vertex 25.8911690613087 324.088520135599 10.0000000000003
endloop
endfacet
facet normal -0.838929718268263 0.54423977051143 -8.02316514873447e-015
outer loop
vertex 113.303429795444 409.052741024433 9.99999999999869
vertex 119.458967545253 419.588520135598 -1.46191097707259e-012
vertex 113.303429795444 409.052741024433 -1.2729947364571e-012
endloop
endfacet
facet normal -0.863433905824904 0.504461980997529 -7.61724823057714e-015
outer loop
vertex 119.458967545253 419.588520135598 -1.46191097707259e-012
vertex 113.303429795444 409.052741024433 9.99999999999869
vertex 119.458967545253 419.588520135598 9.99999999999854
endloop
endfacet
facet normal -0.438746215998864 -0.817445904095109 0.373207652419947
outer loop
vertex 4.91858938455563 338.350165178278 9.99999999999985
vertex 5.81664775569033 335.23704226082 5.0000000000002
vertex 7.20544556435856 336.691973298472 10.0000000000001
endloop
endfacet
facet normal -0.64058738015708 -0.67109154111692 0.373207652419945
outer loop
vertex 5.81664775569033 335.23704226082 5.0000000000002
vertex 4.91858938455563 338.350165178278 9.99999999999985
vertex 3.96738459623891 336.577936883625 5.00000000000018
endloop
endfacet
facet normal -0.5176265854679 -0.855606637431503 1.36493820579296e-014
outer loop
vertex 84.9730408554742 352.051431169769 9.99999999999959
vertex 90.1383404218912 347.873655574489 -8.65285901372909e-014
vertex 90.1383404218912 347.873655574489 9.99999999999987
endloop
endfacet
facet normal -0.728487827657081 -0.685058745623663 1.09478829736378e-014
outer loop
vertex 90.1383404218912 347.873655574489 -8.65285901372909e-014
vertex 84.9730408554742 352.051431169769 9.99999999999959
vertex 84.9730408554742 352.051431169769 -3.64011804561697e-013
endloop
endfacet
facet normal -9.17653059828351e-015 -1.0 1.33832012620993e-014
outer loop
vertex 20.8911690613087 320.088520135599 10.0000000000001
vertex 34.8911690613087 320.088520135599 1.20796909970677e-013
vertex 34.8911690613087 320.088520135599 10.0000000000001
endloop
endfacet
facet normal -9.17653059828351e-015 -1.0 1.33832012620993e-014
outer loop
vertex 34.8911690613087 320.088520135599 1.20796909970677e-013
vertex 20.8911690613087 320.088520135599 10.0000000000001
vertex 20.8911690613087 320.088520135599 1.21654162730081e-013
endloop
endfacet
facet normal 0.728487827657066 -0.68505874562368 1.0858668945002e-014
outer loop
vertex 54.4479705723086 347.873655574489 -8.43431852774572e-014
vertex 50.5951673481086 342.46162861124 9.99999999999975
vertex 50.5951673481086 342.46162861124 -2.12855566216987e-013
endloop
endfacet
facet normal 0.885769484474664 -0.464125436033717 7.33270205513128e-015
outer loop
vertex 50.5951673481086 342.46162861124 9.99999999999975
vertex 54.4479705723086 347.873655574489 -8.43431852774572e-014
vertex 54.4479705723086 347.873655574489 9.99999999999987
endloop
endfacet
facet normal 1.0 -9.17653059828352e-015 -6.12323399573867e-017
outer loop
vertex 29.8911690613088 329.588520135599 9.99999999999998
vertex 29.8911690613087 324.088520135599 3.42798995318742e-013
vertex 29.8911690613088 329.588520135599 -3.78136713344024e-015
endloop
endfacet
facet normal 1.0 -9.17653059828352e-015 -6.12323399573867e-017
outer loop
vertex 29.8911690613087 324.088520135599 3.42798995318742e-013
vertex 29.8911690613088 329.588520135599 9.99999999999998
vertex 29.8911690613087 324.088520135599 10.0000000000003
endloop
endfacet
facet normal -0.920492758213802 -0.124816026976462 0.370289132281462
outer loop
vertex 10.3911690613088 329.588520135599 9.99999999999998
vertex 8.14067610757301 331.352050110473 4.99999999999998
vertex 8.37980542494513 329.588520135599 5.00000000000001
endloop
endfacet
facet normal -0.894247647860594 -0.247057063187829 0.373207652419938
outer loop
vertex 8.14067610757301 331.352050110473 4.99999999999998
vertex 10.3911690613088 329.588520135599 9.99999999999998
vertex 10.0794111064594 331.887671508271 9.99999999999994
endloop
endfacet
facet normal 0.728487827657066 -0.68505874562368 1.0858668945002e-014
outer loop
vertex 54.4479705723086 347.873655574489 9.99999999999987
vertex 59.6132701387257 352.051431169769 -3.62458966459928e-013
vertex 59.6132701387257 352.051431169769 9.9999999999996
endloop
endfacet
facet normal 0.51762658546788 -0.855606637431515 1.3585991083825e-014
outer loop
vertex 59.6132701387257 352.051431169769 -3.62458966459928e-013
vertex 54.4479705723086 347.873655574489 9.99999999999987
vertex 54.4479705723086 347.873655574489 -8.43431852774572e-014
endloop
endfacet
facet normal -0.885769484474674 -0.464125436033698 7.4411775315257e-015
outer loop
vertex 93.9911436460911 342.46162861124 9.99999999999974
vertex 90.1383404218912 347.873655574489 -8.65285901372909e-014
vertex 93.9911436460911 342.461628611239 -2.15512803390446e-013
endloop
endfacet
facet normal -0.728487827657081 -0.685058745623663 1.09478829736378e-014
outer loop
vertex 90.1383404218912 347.873655574489 -8.65285901372909e-014
vertex 93.9911436460911 342.46162861124 9.99999999999974
vertex 90.1383404218912 347.873655574489 9.99999999999987
endloop
endfacet
facet normal -0.977903639973552 -0.209056143001057 3.37743901145046e-015
outer loop
vertex 96.2480805232038 336.213399704735 9.91995645608959e-014
vertex 93.9911436460911 342.46162861124 9.99999999999974
vertex 93.9911436460911 342.461628611239 -2.15512803390446e-013
endloop
endfacet
facet normal -0.885769484474674 -0.464125436033698 7.4411775315257e-015
outer loop
vertex 93.9911436460911 342.46162861124 9.99999999999974
vertex 96.2480805232038 336.213399704735 9.91995645608959e-014
vertex 96.2480805232038 336.213399704735 10.0000000000001
endloop
endfacet
facet normal -0.20521954327305 -0.904765708475952 0.37320765241995
outer loop
vertex 2.27273705359498 339.339496740551 9.99999999999983
vertex 3.96738459623891 336.577936883625 5.00000000000018
vertex 4.91858938455563 338.350165178278 9.99999999999985
endloop
endfacet
facet normal -0.438746215998861 -0.817445904095111 0.373207652419947
outer loop
vertex 3.96738459623891 336.577936883625 5.00000000000018
vertex 2.27273705359498 339.339496740551 9.99999999999983
vertex 1.82781968428367 337.377958514522 5.00000000000017
endloop
endfacet
facet normal 0.885769484474664 -0.464125436033717 7.33270205513128e-015
outer loop
vertex 50.5951673481086 342.46162861124 9.99999999999975
vertex 48.3382304709958 336.213399704736 1.02133196786599e-013
vertex 50.5951673481086 342.46162861124 -2.12855566216987e-013
endloop
endfacet
facet normal 0.977903639973547 -0.209056143001076 3.25768035519364e-015
outer loop
vertex 48.3382304709958 336.213399704736 1.02133196786599e-013
vertex 50.5951673481086 342.46162861124 9.99999999999975
vertex 48.3382304709958 336.213399704736 10.0000000000001
endloop
endfacet
facet normal -0.268694401289366 -0.963225476571166 1.53469821016647e-014
outer loop
vertex 78.8751478066843 354.687683984061 9.99999999999955
vertex 84.9730408554742 352.051431169769 -3.64011804561697e-013
vertex 84.9730408554742 352.051431169769 9.99999999999959
endloop
endfacet
facet normal -0.517626585467898 -0.855606637431504 1.36493820579297e-014
outer loop
vertex 84.9730408554742 352.051431169769 -3.64011804561697e-013
vertex 78.8751478066843 354.687683984061 9.99999999999955
vertex 78.8751478066843 354.687683984061 -4.10814549614281e-013
endloop
endfacet
facet normal -0.997219380145902 -0.0745218616341711 1.22783590259426e-015
outer loop
vertex 96.7431554970997 329.588520135599 9.99999999999995
vertex 96.2480805232038 336.213399704735 9.91995645608959e-014
vertex 96.7431554970997 329.588520135599 -7.87487069370319e-015
endloop
endfacet
facet normal -0.977903639973552 -0.209056143001057 3.37743901145046e-015
outer loop
vertex 96.2480805232038 336.213399704735 9.91995645608959e-014
vertex 96.7431554970997 329.588520135599 9.99999999999995
vertex 96.2480805232038 336.213399704735 10.0000000000001
endloop
endfacet
facet normal 0.517626585467882 -0.855606637431514 1.3585991083825e-014
outer loop
vertex 59.6132701387257 352.051431169769 9.9999999999996
vertex 65.7111631875157 354.687683984061 -4.10008488032887e-013
vertex 65.7111631875157 354.687683984061 9.99999999999955
endloop
endfacet
facet normal 0.268694401289346 -0.963225476571171 1.53140765278159e-014
outer loop
vertex 65.7111631875157 354.687683984061 -4.10008488032887e-013
vertex 59.6132701387257 352.051431169769 9.9999999999996
vertex 59.6132701387257 352.051431169769 -3.62458966459928e-013
endloop
endfacet
facet normal 0.977903639973547 -0.209056143001076 3.25768035519364e-015
outer loop
vertex 48.3382304709958 336.213399704736 1.02133196786599e-013
vertex 47.8431554970997 329.588520135599 9.99999999999995
vertex 47.8431554970997 329.588520135599 -4.88060926978819e-015
endloop
endfacet
facet normal 0.997219380145901 -0.0745218616341912 1.10571175039992e-015
outer loop
vertex 47.8431554970997 329.588520135599 9.99999999999995
vertex 48.3382304709958 336.213399704736 1.02133196786599e-013
vertex 48.3382304709958 336.213399704736 10.0000000000001
endloop
endfacet
facet normal 0.268694401289346 -0.963225476571171 1.53140765278159e-014
outer loop
vertex 65.7111631875157 354.687683984061 9.99999999999955
vertex 72.2931554971 355.588520135599 -4.03972382889169e-013
vertex 72.2931554971 355.588520135599 9.99999999999953
endloop
endfacet
facet normal -1.08529710139726e-014 -1.0 1.59158262396806e-014
outer loop
vertex 72.2931554971 355.588520135599 -4.03972382889169e-013
vertex 65.7111631875157 354.687683984061 9.99999999999955
vertex 65.7111631875157 354.687683984061 -4.10008488032887e-013
endloop
endfacet
facet normal -4.14984857820228e-015 -1.0 1.33832012620992e-014
outer loop
vertex 29.8911690613088 329.588520135599 9.99999999999998
vertex 47.8431554970997 329.588520135599 -4.88060926978819e-015
vertex 47.8431554970997 329.588520135599 9.99999999999995
endloop
endfacet
facet normal -4.14984857820228e-015 -1.0 1.33832012620992e-014
outer loop
vertex 47.8431554970997 329.588520135599 -4.88060926978819e-015
vertex 29.8911690613088 329.588520135599 9.99999999999998
vertex 29.8911690613088 329.588520135599 -3.78136713344024e-015
endloop
endfacet
facet normal -1.0 9.17653059828352e-015 6.12323399573867e-017
outer loop
vertex 25.8911690613087 324.088520135599 3.43043924678572e-013
vertex 25.8911690613087 329.588520135599 9.99999999999998
vertex 25.8911690613087 329.588520135599 -3.53643777361069e-015
endloop
endfacet
facet normal -1.0 9.17653059828352e-015 6.12323399573867e-017
outer loop
vertex 25.8911690613087 329.588520135599 9.99999999999998
vertex 25.8911690613087 324.088520135599 3.43043924678572e-013
vertex 25.8911690613087 324.088520135599 10.0000000000003
endloop
endfacet
facet normal -1.08618882502263e-014 -1.0 1.59158262396806e-014
outer loop
vertex 72.2931554971 355.588520135599 9.99999999999953
vertex 78.8751478066843 354.687683984061 -4.10814549614281e-013
vertex 78.8751478066843 354.687683984061 9.99999999999955
endloop
endfacet
facet normal -0.268694401289366 -0.963225476571166 1.53469821016647e-014
outer loop
vertex 78.8751478066843 354.687683984061 -4.10814549614281e-013
vertex 72.2931554971 355.588520135599 9.99999999999953
vertex 72.2931554971 355.588520135599 -4.03972382889169e-013
endloop
endfacet
facet normal -1.0 9.17653059828352e-015 6.12323399573867e-017
outer loop
vertex 105.108825192396 324.088520135599 1.35155655484277e-013
vertex 105.108825192396 329.588520135599 9.99999999999997
vertex 105.108825192396 329.588520135598 -2.56544170688672e-013
endloop
endfacet
facet normal -1.0 9.17653059828352e-015 6.12323399573867e-017
outer loop
vertex 105.108825192396 329.588520135599 9.99999999999997
vertex 105.108825192396 324.088520135599 1.35155655484277e-013
vertex 105.108825192396 324.088520135599 10.0000000000001
endloop
endfacet
facet normal -9.17653059828351e-015 -1.0 8.87125489002261e-015
outer loop
vertex 100.108825192396 320.088520135599 10.0000000000001
vertex 114.108825192396 320.088520135598 1.15946227519831e-013
vertex 114.108825192396 320.088520135599 10.0000000000001
endloop
endfacet
facet normal -9.17653059828351e-015 -1.0 8.87125489002261e-015
outer loop
vertex 114.108825192396 320.088520135598 1.15946227519831e-013
vertex 100.108825192396 320.088520135599 10.0000000000001
vertex 100.108825192396 320.088520135599 1.16803480279235e-013
endloop
endfacet
facet normal 1.0 -9.17653059828352e-015 -6.12323399573867e-017
outer loop
vertex 109.108825192396 329.588520135599 9.99999999999997
vertex 109.108825192396 324.088520135598 1.34910726124447e-013
vertex 109.108825192396 329.588520135598 -2.56789100048501e-013
endloop
endfacet
facet normal 1.0 -9.17653059828352e-015 -6.12323399573867e-017
outer loop
vertex 109.108825192396 324.088520135598 1.34910726124447e-013
vertex 109.108825192396 329.588520135599 9.99999999999997
vertex 109.108825192396 324.088520135599 10.0000000000001
endloop
endfacet
facet normal 1.0 -9.17653059828352e-015 -6.12323399573867e-017
outer loop
vertex 114.108825192396 324.088520135598 1.3460456442466e-013
vertex 114.108825192396 320.088520135599 10.0000000000001
vertex 114.108825192396 320.088520135598 1.15946227519831e-013
endloop
endfacet
facet normal 1.0 -9.17653059828352e-015 -6.12323399573867e-017
outer loop
vertex 114.108825192396 320.088520135599 10.0000000000001
vertex 114.108825192396 324.088520135598 1.3460456442466e-013
vertex 114.108825192396 324.088520135599 10.0000000000001
endloop
endfacet
facet normal 9.17653059828351e-015 1.0 -8.87125489002261e-015
outer loop
vertex 100.108825192396 324.088520135599 1.35461817184064e-013
vertex 105.108825192396 324.088520135599 10.0000000000001
vertex 105.108825192396 324.088520135599 1.35155655484277e-013
endloop
endfacet
facet normal 9.17653059828351e-015 1.0 -8.87125489002261e-015
outer loop
vertex 105.108825192396 324.088520135599 10.0000000000001
vertex 100.108825192396 324.088520135599 1.35461817184064e-013
vertex 100.108825192396 324.088520135599 10.0000000000001
endloop
endfacet
facet normal -1.0 9.17653059828352e-015 6.12323399573867e-017
outer loop
vertex 100.108825192396 320.088520135599 10.0000000000001
vertex 100.108825192396 324.088520135599 1.35461817184064e-013
vertex 100.108825192396 320.088520135599 1.16803480279235e-013
endloop
endfacet
facet normal -1.0 9.17653059828352e-015 6.12323399573867e-017
outer loop
vertex 100.108825192396 324.088520135599 1.35461817184064e-013
vertex 100.108825192396 320.088520135599 10.0000000000001
vertex 100.108825192396 324.088520135599 10.0000000000001
endloop
endfacet
facet normal 9.17653059828351e-015 1.0 -8.87125489002261e-015
outer loop
vertex 109.108825192396 324.088520135598 1.34910726124447e-013
vertex 114.108825192396 324.088520135599 10.0000000000001
vertex 114.108825192396 324.088520135598 1.3460456442466e-013
endloop
endfacet
facet normal 9.17653059828351e-015 1.0 -8.87125489002261e-015
outer loop
vertex 114.108825192396 324.088520135599 10.0000000000001
vertex 109.108825192396 324.088520135598 1.34910726124447e-013
vertex 109.108825192396 324.088520135599 10.0000000000001
endloop
endfacet
facet normal 1.0 -9.24702976034724e-015 -1.75321222948612e-015
outer loop
vertex 114.458967545253 390.63682352212 9.99999999999901
vertex 114.458967545253 380.63682352212 4.99999999999909
vertex 114.458967545253 390.63682352212 4.99999999999891
endloop
endfacet
facet normal 1.0 -9.24702976034724e-015 -1.75321222948612e-015
outer loop
vertex 114.458967545253 380.63682352212 4.99999999999909
vertex 114.458967545253 390.63682352212 9.99999999999901
vertex 114.458967545253 380.63682352212 9.99999999999918
endloop
endfacet
facet normal 1.0 -9.33800359955201e-015 -9.28919953737572e-016
outer loop
vertex 119.458967545253 380.63682352212 -9.11502872665251e-013
vertex 119.458967545253 329.588520135598 9.99999999999997
vertex 119.458967545253 329.588520135598 -9.26581301944379e-015
endloop
endfacet
facet normal 1.0 -9.33800359955201e-015 -9.28919953737572e-016
outer loop
vertex 119.458967545253 329.588520135598 9.99999999999997
vertex 119.458967545253 380.63682352212 -9.11502872665251e-013
vertex 119.458967545253 380.63682352212 9.99999999999917
endloop
endfacet
facet normal -1.66789587124686e-015 -1.62003654600829e-014 -1.0
outer loop
vertex 10.0794111064594 331.887671508271 -2.11521682220864e-014
vertex 25.8911690613087 329.588520135599 -3.53643777361069e-015
vertex 10.3911690613088 329.588520135599 -2.58733650427119e-015
endloop
endfacet
facet normal -1.66789587124686e-015 -1.62003654600829e-014 -1.0
outer loop
vertex 25.8911690613087 329.588520135599 -3.53643777361069e-015
vertex 10.0794111064594 331.887671508271 -2.11521682220864e-014
vertex 29.8911690613088 329.588520135599 -3.78136713344024e-015
endloop
endfacet
facet normal -1.66789587124686e-015 -1.62003654600829e-014 -1.0
outer loop
vertex 29.8911690613088 329.588520135599 -3.78136713344024e-015
vertex 10.0794111064594 331.887671508271 -2.11521682220864e-014
vertex 47.8431554970997 329.588520135599 -4.88060926978819e-015
endloop
endfacet
facet normal -1.66789587124686e-015 -1.62003654600829e-014 -1.0
outer loop
vertex 47.8431554970997 329.588520135599 -4.88060926978819e-015
vertex 10.0794111064594 331.887671508271 -2.11521682220864e-014
vertex 48.3382304709958 336.213399704736 1.02133196786599e-013
endloop
endfacet
facet normal -1.66789587124686e-015 -1.62003654600829e-014 -1.0
outer loop
vertex 48.3382304709958 336.213399704736 1.02133196786599e-013
vertex 10.0794111064594 331.887671508271 -2.11521682220864e-014
vertex 8.96815271319362 334.484672910033 2.70838131144684e-013
endloop
endfacet
facet normal -1.66789587124686e-015 -1.62003654600829e-014 -1.0
outer loop
vertex 48.3382304709958 336.213399704736 1.02133196786599e-013
vertex 8.96815271319362 334.484672910033 2.70838131144684e-013
vertex 7.20544556435856 336.691973298472 1.86326635783207e-013
endloop
endfacet
facet normal -1.66789587124686e-015 -1.62003654600829e-014 -1.0
outer loop
vertex 48.3382304709958 336.213399704736 1.02133196786599e-013
vertex 7.20544556435856 336.691973298472 1.86326635783207e-013
vertex 50.5951673481086 342.46162861124 -2.12855566216987e-013
endloop
endfacet
facet normal -1.66789587124686e-015 -1.62003654600829e-014 -1.0
outer loop
vertex 50.5951673481086 342.46162861124 -2.12855566216987e-013
vertex 7.20544556435856 336.691973298472 1.86326635783207e-013
vertex 4.91858938455563 338.350165178278 -1.1392370548128e-013
endloop
endfacet
facet normal -1.66789587124686e-015 -1.62003654600829e-014 -1.0
outer loop
vertex 50.5951673481086 342.46162861124 -2.12855566216987e-013
vertex 4.91858938455563 338.350165178278 -1.1392370548128e-013
vertex 2.27273705359498 339.339496740551 -1.31465928117885e-013
endloop
endfacet
facet normal -1.66789587124686e-015 -1.62003654600829e-014 -1.0
outer loop
vertex 50.5951673481086 342.46162861124 -2.12855566216987e-013
vertex 2.27273705359498 339.339496740551 -1.31465928117885e-013
vertex -0.54103245474726 339.588520135599 -1.3574994484555e-013
endloop
endfacet
facet normal -1.66789587124686e-015 -1.62003654600829e-014 -1.0
outer loop
vertex 50.5951673481086 342.46162861124 -2.12855566216987e-013
vertex -0.54103245474726 339.588520135599 -1.3574994484555e-013
vertex -0.54103245474717 349.588520135599 -2.14249070023278e-014
endloop
endfacet
facet normal -1.66789587124686e-015 -1.62003654600829e-014 -1.0
outer loop
vertex 50.5951673481086 342.46162861124 -2.12855566216987e-013
vertex -0.54103245474717 349.588520135599 -2.14249070023278e-014
vertex 54.4479705723086 347.873655574489 -8.43431852774572e-014
endloop
endfacet
facet normal -1.66789587124686e-015 -1.62003654600829e-014 -1.0
outer loop
vertex 54.4479705723086 347.873655574489 -8.43431852774572e-014
vertex -0.54103245474717 349.588520135599 -2.14249070023278e-014
vertex 11.6599363375208 349.760703173979 -4.7812973623517e-014
endloop
endfacet
facet normal -1.66789587124686e-015 -1.62003654600829e-014 -1.0
outer loop
vertex 54.4479705723086 347.873655574489 -8.43431852774572e-014
vertex 11.6599363375208 349.760703173979 -4.7812973623517e-014
vertex 59.6132701387257 352.051431169769 -3.62458966459928e-013
endloop
endfacet
facet normal -1.66789587124686e-015 -1.62003654600829e-014 -1.0
outer loop
vertex 59.6132701387257 352.051431169769 -3.62458966459928e-013
vertex 11.6599363375208 349.760703173979 -4.7812973623517e-014
vertex 23.7916046820118 351.070630518482 -3.65273681468746e-013
endloop
endfacet
facet normal -1.66789587124686e-015 -1.62003654600829e-014 -1.0
outer loop
vertex 59.6132701387257 352.051431169769 -3.62458966459928e-013
vertex 23.7916046820118 351.070630518482 -3.65273681468746e-013
vertex 35.7481098612147 353.506871550953 -4.09602699207092e-013
endloop
endfacet
facet normal -1.66789587124686e-015 -1.62003654600829e-014 -1.0
outer loop
vertex 59.6132701387257 352.051431169769 -3.62458966459928e-013
vertex 35.7481098612147 353.506871550953 -4.09602699207092e-013
vertex 65.7111631875157 354.687683984061 -4.10008488032887e-013
endloop
endfacet
facet normal -1.66789587124686e-015 -1.62003654600829e-014 -1.0
outer loop
vertex 65.7111631875157 354.687683984061 -4.10008488032887e-013
vertex 35.7481098612147 353.506871550953 -4.09602699207092e-013
vertex 47.4251176570925 357.048167274783 -1.57853473466972e-013
endloop
endfacet
facet normal -1.66789587124686e-015 -1.62003654600829e-014 -1.0
outer loop
vertex 65.7111631875157 354.687683984061 -4.10008488032887e-013
vertex 47.4251176570925 357.048167274783 -1.57853473466972e-013
vertex 72.2931554971 355.588520135599 -4.03972382889169e-013
endloop
endfacet
facet normal -1.66789587124686e-015 -1.62003654600829e-014 -1.0
outer loop
vertex 72.2931554971 355.588520135599 -4.03972382889169e-013
vertex 47.4251176570925 357.048167274783 -1.57853473466972e-013
vertex 96.2853100959419 356.66385823308 -3.11886153365052e-013
endloop
endfacet
facet normal -1.66789587124686e-015 -1.62003654600829e-014 -1.0
outer loop
vertex 96.2853100959419 356.66385823308 -3.11886153365052e-013
vertex 47.4251176570925 357.048167274783 -1.57853473466972e-013
vertex 94.034783976117 358.447417097271 -3.43665397573526e-013
endloop
endfacet
facet normal -1.66789587124686e-015 -1.62003654600829e-014 -1.0
outer loop
vertex 94.034783976117 358.447417097271 -3.43665397573526e-013
vertex 47.4251176570925 357.048167274783 -1.57853473466972e-013
vertex 58.7207327867731 361.663615824028 -5.56975509644674e-013
endloop
endfacet
facet normal -1.66789587124686e-015 -1.62003654600829e-014 -1.0
outer loop
vertex 94.034783976117 358.447417097271 -3.43665397573526e-013
vertex 58.7207327867731 361.663615824028 -5.56975509644674e-013
vertex 92.3225616763538 360.75268168821 -3.84813604386284e-013
endloop
endfacet
facet normal -1.66789587124686e-015 -1.62003654600829e-014 -1.0
outer loop
vertex 92.3225616763538 360.75268168821 -3.84813604386284e-013
vertex 58.7207327867731 361.663615824028 -5.56975509644674e-013
vertex 91.2653283168002 363.422552033656 -6.13004446392728e-013
endloop
endfacet
facet normal -1.66789587124686e-015 -1.62003654600829e-014 -1.0
outer loop
vertex 91.2653283168002 363.422552033656 -6.13004446392728e-013
vertex 58.7207327867731 361.663615824028 -5.56975509644674e-013
vertex 69.5363880557347 367.31294211763 -6.5873330558261e-013
endloop
endfacet
facet normal -1.66789587124686e-015 -1.62003654600829e-014 -1.0
outer loop
vertex 91.2653283168002 363.422552033656 -6.13004446392728e-013
vertex 69.5363880557347 367.31294211763 -6.5873330558261e-013
vertex 90.9351326037488 366.275080881736 -6.6403065260371e-013
endloop
endfacet
facet normal -1.66789587124686e-015 -1.62003654600829e-014 -1.0
outer loop
vertex 90.9351326037488 366.275080881736 -6.6403065260371e-013
vertex 69.5363880557347 367.31294211763 -6.5873330558261e-013
vertex 91.35447682937 369.11587310548 -5.11855139530359e-013
endloop
endfacet
facet normal -1.66789587124686e-015 -1.62003654600829e-014 -1.0
outer loop
vertex 91.35447682937 369.11587310548 -5.11855139530359e-013
vertex 69.5363880557347 367.31294211763 -6.5873330558261e-013
vertex 79.7777044696028 373.946849305678 -7.55515422012037e-013
endloop
endfacet
facet normal -1.66789587124686e-015 -1.62003654600829e-014 -1.0
outer loop
vertex 91.35447682937 369.11587310548 -5.11855139530359e-013
vertex 79.7777044696028 373.946849305678 -7.55515422012037e-013
vertex 92.4947833776867 371.751333409471 -5.59086914392507e-013
endloop
endfacet
facet normal -1.66789587124686e-015 -1.62003654600829e-014 -1.0
outer loop
vertex 92.4947833776867 371.751333409471 -5.59086914392507e-013
vertex 79.7777044696028 373.946849305678 -7.55515422012037e-013
vertex 94.2783422418769 374.001859529296 -8.02507209787498e-013
endloop
endfacet
facet normal -1.66789587124686e-015 -1.62003654600829e-014 -1.0
outer loop
vertex 94.2783422418769 374.001859529296 -8.02507209787498e-013
vertex 79.7777044696028 373.946849305678 -7.55515422012037e-013
vertex 89.3553147990997 381.507448940953 -5.53003950274103e-013
endloop
endfacet
facet normal -1.66789587124686e-015 -1.62003654600829e-014 -1.0
outer loop
vertex 94.2783422418769 374.001859529296 -8.02507209787498e-013
vertex 89.3553147990997 381.507448940953 -5.53003950274103e-013
vertex 96.5836068328164 375.714081829059 -8.33288837369412e-013
endloop
endfacet
facet normal -1.66789587124686e-015 -1.62003654600829e-014 -1.0
outer loop
vertex 96.5836068328164 375.714081829059 -8.33288837369412e-013
vertex 89.3553147990997 381.507448940953 -5.53003950274103e-013
vertex 99.2534771782624 376.771315188613 -8.52371666831036e-013
endloop
endfacet
facet normal -1.66789587124686e-015 -1.62003654600829e-014 -1.0
outer loop
vertex 99.2534771782624 376.771315188613 -8.52371666831036e-013
vertex 89.3553147990997 381.507448940953 -5.53003950274103e-013
vertex 102.106006026342 377.101510901664 -8.8101496674081e-013
endloop
endfacet
facet normal -1.66789587124686e-015 -1.62003654600829e-014 -1.0
outer loop
vertex 102.106006026342 377.101510901664 -8.8101496674081e-013
vertex 89.3553147990997 381.507448940953 -5.53003950274103e-013
vertex 109.458967545253 380.63682352212 -8.99610683335485e-013
endloop
endfacet
facet normal -1.66789587124686e-015 -1.62003654600829e-014 -1.0
outer loop
vertex 109.458967545253 380.63682352212 -8.99610683335485e-013
vertex 89.3553147990997 381.507448940953 -5.53003950274103e-013
vertex 109.458967545253 390.63682352212 -1.07856215967724e-012
endloop
endfacet
facet normal -1.66789587124686e-015 -1.62003654600829e-014 -1.0
outer loop
vertex 109.458967545253 390.63682352212 -1.07856215967724e-012
vertex 89.3553147990997 381.507448940953 -5.53003950274103e-013
vertex 98.1856434115958 389.928766122008 -9.97521880371827e-013
endloop
endfacet
facet normal -1.66789587124686e-015 -1.62003654600829e-014 -1.0
outer loop
vertex 109.458967545253 390.63682352212 -1.07856215967724e-012
vertex 98.1856434115958 389.928766122008 -9.97521880371827e-013
vertex 106.191635564339 399.137315199839 -1.14024071938897e-012
endloop
endfacet
facet normal -1.66789587124686e-015 -1.62003654600829e-014 -1.0
outer loop
vertex 109.458967545253 390.63682352212 -1.07856215967724e-012
vertex 106.191635564339 399.137315199839 -1.14024071938897e-012
vertex 119.458967545253 390.63682352212 -1.09045434900701e-012
endloop
endfacet
facet normal -1.66789587124686e-015 -1.62003654600829e-014 -1.0
outer loop
vertex 119.458967545253 390.63682352212 -1.09045434900701e-012
vertex 106.191635564339 399.137315199839 -1.14024071938897e-012
vertex 113.303429795444 409.052741024433 -1.2729947364571e-012
endloop
endfacet
facet normal -1.66789587124686e-015 -1.62003654600829e-014 -1.0
outer loop
vertex 119.458967545253 390.63682352212 -1.09045434900701e-012
vertex 113.303429795444 409.052741024433 -1.2729947364571e-012
vertex 119.458967545253 419.588520135598 -1.46191097707259e-012
endloop
endfacet
facet normal -1.66789587124686e-015 -1.62003654600829e-014 -1.0
outer loop
vertex 96.2480805232038 336.213399704735 9.91995645608959e-014
vertex 105.108825192396 329.588520135598 -2.56544170688672e-013
vertex 96.7431554970997 329.588520135599 -7.87487069370319e-015
endloop
endfacet
facet normal -1.66789587124686e-015 -1.62003654600829e-014 -1.0
outer loop
vertex 105.108825192396 329.588520135598 -2.56544170688672e-013
vertex 96.2480805232038 336.213399704735 9.91995645608959e-014
vertex 109.108825192396 329.588520135598 -2.56789100048501e-013
endloop
endfacet
facet normal -1.66789587124686e-015 -1.62003654600829e-014 -1.0
outer loop
vertex 109.108825192396 329.588520135598 -2.56789100048501e-013
vertex 96.2480805232038 336.213399704735 9.91995645608959e-014
vertex 119.458967545253 329.588520135598 -9.26581301944379e-015
endloop
endfacet
facet normal -1.66789587124686e-015 -1.62003654600829e-014 -1.0
outer loop
vertex 119.458967545253 329.588520135598 -9.26581301944379e-015
vertex 96.2480805232038 336.213399704735 9.91995645608959e-014
vertex 111.372785272332 360.454384951336 -4.03201761869002e-013
endloop
endfacet
facet normal -1.66789587124686e-015 -1.62003654600829e-014 -1.0
outer loop
vertex 119.458967545253 329.588520135598 -9.26581301944379e-015
vertex 111.372785272332 360.454384951336 -4.03201761869002e-013
vertex 112.513091820649 363.089845255326 -6.53471123474599e-013
endloop
endfacet
facet normal -1.66789587124686e-015 -1.62003654600829e-014 -1.0
outer loop
vertex 119.458967545253 329.588520135598 -9.26581301944379e-015
vertex 112.513091820649 363.089845255326 -6.53471123474599e-013
vertex 119.458967545253 380.63682352212 -9.11502872665251e-013
endloop
endfacet
facet normal -1.66789587124686e-015 -1.62003654600829e-014 -1.0
outer loop
vertex 111.372785272332 360.454384951336 -4.03201761869002e-013
vertex 96.2480805232038 336.213399704735 9.91995645608959e-014
vertex 109.589226408142 358.203858831511 -3.6281905321746e-013
endloop
endfacet
facet normal -1.66789587124686e-015 -1.62003654600829e-014 -1.0
outer loop
vertex 109.589226408142 358.203858831511 -3.6281905321746e-013
vertex 96.2480805232038 336.213399704735 9.91995645608959e-014
vertex 93.9911436460911 342.461628611239 -2.15512803390446e-013
endloop
endfacet
facet normal -1.66789587124686e-015 -1.62003654600829e-014 -1.0
outer loop
vertex 109.589226408142 358.203858831511 -3.6281905321746e-013
vertex 93.9911436460911 342.461628611239 -2.15512803390446e-013
vertex 107.283961817203 356.491636531748 -3.32037425635545e-013
endloop
endfacet
facet normal -1.66789587124686e-015 -1.62003654600829e-014 -1.0
outer loop
vertex 107.283961817203 356.491636531748 -3.32037425635545e-013
vertex 93.9911436460911 342.461628611239 -2.15512803390446e-013
vertex 90.1383404218912 347.873655574489 -8.65285901372909e-014
endloop
endfacet
facet normal -1.66789587124686e-015 -1.62003654600829e-014 -1.0
outer loop
vertex 107.283961817203 356.491636531748 -3.32037425635545e-013
vertex 90.1383404218912 347.873655574489 -8.65285901372909e-014
vertex 104.614091471756 355.434403172194 -4.93432451056987e-013
endloop
endfacet
facet normal -1.66789587124686e-015 -1.62003654600829e-014 -1.0
outer loop
vertex 104.614091471756 355.434403172194 -4.93432451056987e-013
vertex 90.1383404218912 347.873655574489 -8.65285901372909e-014
vertex 84.9730408554742 352.051431169769 -3.64011804561697e-013
endloop
endfacet
facet normal -1.66789587124686e-015 -1.62003654600829e-014 -1.0
outer loop
vertex 104.614091471756 355.434403172194 -4.93432451056987e-013
vertex 84.9730408554742 352.051431169769 -3.64011804561697e-013
vertex 101.761562623677 355.104207459143 -4.87348883007597e-013
endloop
endfacet
facet normal -1.66789587124686e-015 -1.62003654600829e-014 -1.0
outer loop
vertex 101.761562623677 355.104207459143 -4.87348883007597e-013
vertex 84.9730408554742 352.051431169769 -3.64011804561697e-013
vertex 78.8751478066843 354.687683984061 -4.10814549614281e-013
endloop
endfacet
facet normal -1.66789587124686e-015 -1.62003654600829e-014 -1.0
outer loop
vertex 119.458967545253 380.63682352212 -9.11502872665251e-013
vertex 112.513091820649 363.089845255326 -6.53471123474599e-013
vertex 112.93243604627 365.93063747907 -7.04333197144696e-013
endloop
endfacet
facet normal -1.66789587124686e-015 -1.62003654600829e-014 -1.0
outer loop
vertex 119.458967545253 380.63682352212 -9.11502872665251e-013
vertex 112.93243604627 365.93063747907 -7.04333197144696e-013
vertex 112.602240333219 368.78316632715 -5.52321816612229e-013
endloop
endfacet
facet normal -1.66789587124686e-015 -1.62003654600829e-014 -1.0
outer loop
vertex 119.458967545253 380.63682352212 -9.11502872665251e-013
vertex 112.602240333219 368.78316632715 -5.52321816612229e-013
vertex 111.545006973665 371.453036672596 -5.77475071875225e-013
endloop
endfacet
facet normal -1.66789587124686e-015 -1.62003654600829e-014 -1.0
outer loop
vertex 119.458967545253 380.63682352212 -9.11502872665251e-013
vertex 111.545006973665 371.453036672596 -5.77475071875225e-013
vertex 109.832784673902 373.758301263536 -8.21660865431431e-013
endloop
endfacet
facet normal -1.66789587124686e-015 -1.62003654600829e-014 -1.0
outer loop
vertex 119.458967545253 380.63682352212 -9.11502872665251e-013
vertex 109.832784673902 373.758301263536 -8.21660865431431e-013
vertex 107.582258554077 375.541860127726 -8.53440109639906e-013
endloop
endfacet
facet normal -1.66789587124686e-015 -1.62003654600829e-014 -1.0
outer loop
vertex 119.458967545253 380.63682352212 -9.11502872665251e-013
vertex 107.582258554077 375.541860127726 -8.53440109639906e-013
vertex 104.946798250086 376.682166676043 -8.73684688268973e-013
endloop
endfacet
facet normal -1.66789587124686e-015 -1.62003654600829e-014 -1.0
outer loop
vertex 119.458967545253 380.63682352212 -9.11502872665251e-013
vertex 104.946798250086 376.682166676043 -8.73684688268973e-013
vertex 102.106006026342 377.101510901664 -8.8101496674081e-013
endloop
endfacet
facet normal -1.66789587124686e-015 -1.62003654600829e-014 -1.0
outer loop
vertex 119.458967545253 380.63682352212 -9.11502872665251e-013
vertex 102.106006026342 377.101510901664 -8.8101496674081e-013
vertex 109.458967545253 380.63682352212 -8.99610683335485e-013
endloop
endfacet
facet normal -1.66789587124686e-015 -1.62003654600829e-014 -1.0
outer loop
vertex 72.2931554971 355.588520135599 -4.03972382889169e-013
vertex 101.761562623677 355.104207459143 -4.87348883007597e-013
vertex 78.8751478066843 354.687683984061 -4.10814549614281e-013
endloop
endfacet
facet normal -1.66789587124686e-015 -1.62003654600829e-014 -1.0
outer loop
vertex 101.761562623677 355.104207459143 -4.87348883007597e-013
vertex 72.2931554971 355.588520135599 -4.03972382889169e-013
vertex 98.9207703999327 355.523551684764 -4.94679161479434e-013
endloop
endfacet
facet normal -1.66789587124686e-015 -1.62003654600829e-014 -1.0
outer loop
vertex 98.9207703999327 355.523551684764 -4.94679161479434e-013
vertex 72.2931554971 355.588520135599 -4.03972382889169e-013
vertex 96.2853100959419 356.66385823308 -3.11886153365052e-013
endloop
endfacet
facet normal -1.66789587124686e-015 -1.62003654600829e-014 -1.0
outer loop
vertex 105.108825192396 329.588520135598 -2.56544170688672e-013
vertex 109.108825192396 324.088520135598 1.34910726124447e-013
vertex 105.108825192396 324.088520135599 1.35155655484277e-013
endloop
endfacet
facet normal -1.66789587124686e-015 -1.62003654600829e-014 -1.0
outer loop
vertex 109.108825192396 324.088520135598 1.34910726124447e-013
vertex 105.108825192396 329.588520135598 -2.56544170688672e-013
vertex 109.108825192396 329.588520135598 -2.56789100048501e-013
endloop
endfacet
facet normal -1.66789587124686e-015 -1.62003654600829e-014 -1.0
outer loop
vertex 25.8911690613087 329.588520135599 -3.53643777361069e-015
vertex 29.8911690613087 324.088520135599 3.42798995318742e-013
vertex 25.8911690613087 324.088520135599 3.43043924678572e-013
endloop
endfacet
facet normal -1.66789587124686e-015 -1.62003654600829e-014 -1.0
outer loop
vertex 29.8911690613087 324.088520135599 3.42798995318742e-013
vertex 25.8911690613087 329.588520135599 -3.53643777361069e-015
vertex 29.8911690613088 329.588520135599 -3.78136713344024e-015
endloop
endfacet
facet normal -1.66789587124686e-015 -1.62003654600829e-014 -1.0
outer loop
vertex 100.108825192396 324.088520135599 1.35461817184064e-013
vertex 114.108825192396 320.088520135598 1.15946227519831e-013
vertex 100.108825192396 320.088520135599 1.16803480279235e-013
endloop
endfacet
facet normal -1.66789587124686e-015 -1.62003654600829e-014 -1.0
outer loop
vertex 114.108825192396 320.088520135598 1.15946227519831e-013
vertex 100.108825192396 324.088520135599 1.35461817184064e-013
vertex 114.108825192396 324.088520135598 1.3460456442466e-013
endloop
endfacet
facet normal -1.66789587124686e-015 -1.62003654600829e-014 -1.0
outer loop
vertex 114.108825192396 324.088520135598 1.3460456442466e-013
vertex 100.108825192396 324.088520135599 1.35461817184064e-013
vertex 105.108825192396 324.088520135599 1.35155655484277e-013
endloop
endfacet
facet normal -1.66789587124686e-015 -1.62003654600829e-014 -1.0
outer loop
vertex 114.108825192396 324.088520135598 1.3460456442466e-013
vertex 105.108825192396 324.088520135599 1.35155655484277e-013
vertex 109.108825192396 324.088520135598 1.34910726124447e-013
endloop
endfacet
facet normal -1.66789587124686e-015 -1.62003654600829e-014 -1.0
outer loop
vertex 20.8911690613087 324.088520135599 3.43350086378358e-013
vertex 34.8911690613087 320.088520135599 1.20796909970677e-013
vertex 20.8911690613087 320.088520135599 1.21654162730081e-013
endloop
endfacet
facet normal -1.66789587124686e-015 -1.62003654600829e-014 -1.0
outer loop
vertex 34.8911690613087 320.088520135599 1.20796909970677e-013
vertex 20.8911690613087 324.088520135599 3.43350086378358e-013
vertex 34.8911690613087 324.088520135599 3.42492833618955e-013
endloop
endfacet
facet normal -1.66789587124686e-015 -1.62003654600829e-014 -1.0
outer loop
vertex 34.8911690613087 324.088520135599 3.42492833618955e-013
vertex 20.8911690613087 324.088520135599 3.43350086378358e-013
vertex 25.8911690613087 324.088520135599 3.43043924678572e-013
endloop
endfacet
facet normal -1.66789587124686e-015 -1.62003654600829e-014 -1.0
outer loop
vertex 34.8911690613087 324.088520135599 3.42492833618955e-013
vertex 25.8911690613087 324.088520135599 3.43043924678572e-013
vertex 29.8911690613087 324.088520135599 3.42798995318742e-013
endloop
endfacet
facet normal -1.51040639763023e-015 -1.78951476341759e-014 -1.0
outer loop
vertex 109.458967545253 390.63682352212 4.99999999999892
vertex 114.458967545253 380.63682352212 4.99999999999909
vertex 109.458967545253 380.63682352212 4.9999999999991
endloop
endfacet
facet normal -1.51040639763023e-015 -1.78951476341759e-014 -1.0
outer loop
vertex 114.458967545253 380.63682352212 4.99999999999909
vertex 109.458967545253 390.63682352212 4.99999999999892
vertex 114.458967545253 390.63682352212 4.99999999999891
endloop
endfacet
facet normal -9.17653059828351e-015 -1.0 1.78951476341759e-014
outer loop
vertex 114.458967545253 390.63682352212 9.99999999999901
vertex 119.458967545253 390.63682352212 -1.09045434900701e-012
vertex 119.458967545253 390.63682352212 9.99999999999899
endloop
endfacet
facet normal -9.17653059828351e-015 -1.0 1.78951476341759e-014
outer loop
vertex 119.458967545253 390.63682352212 -1.09045434900701e-012
vertex 114.458967545253 390.63682352212 9.99999999999901
vertex 114.458967545253 390.63682352212 4.99999999999891
endloop
endfacet
facet normal -9.17653059828351e-015 -1.0 1.78951476341759e-014
outer loop
vertex 119.458967545253 390.63682352212 -1.09045434900701e-012
vertex 114.458967545253 390.63682352212 4.99999999999891
vertex 109.458967545253 390.63682352212 -1.07856215967724e-012
endloop
endfacet
facet normal -9.17653059828351e-015 -1.0 1.78951476341759e-014
outer loop
vertex 109.458967545253 390.63682352212 -1.07856215967724e-012
vertex 114.458967545253 390.63682352212 4.99999999999891
vertex 109.458967545253 390.63682352212 4.99999999999892
endloop
endfacet
facet normal 9.17653059828351e-015 1.0 -1.78951476341759e-014
outer loop
vertex 119.458967545253 380.63682352212 -9.11502872665251e-013
vertex 114.458967545253 380.63682352212 9.99999999999918
vertex 119.458967545253 380.63682352212 9.99999999999917
endloop
endfacet
facet normal 9.17653059828351e-015 1.0 -1.78951476341759e-014
outer loop
vertex 114.458967545253 380.63682352212 9.99999999999918
vertex 119.458967545253 380.63682352212 -9.11502872665251e-013
vertex 114.458967545253 380.63682352212 4.99999999999909
endloop
endfacet
facet normal 9.17653059828351e-015 1.0 -1.78951476341759e-014
outer loop
vertex 114.458967545253 380.63682352212 4.99999999999909
vertex 119.458967545253 380.63682352212 -9.11502872665251e-013
vertex 109.458967545253 380.63682352212 -8.99610683335485e-013
endloop
endfacet
facet normal 9.17653059828351e-015 1.0 -1.78951476341759e-014
outer loop
vertex 114.458967545253 380.63682352212 4.99999999999909
vertex 109.458967545253 380.63682352212 -8.99610683335485e-013
vertex 109.458967545253 380.63682352212 4.9999999999991
endloop
endfacet
facet normal 1.0 -9.17653059828354e-015 -1.51040639763006e-015
outer loop
vertex 109.458967545253 390.63682352212 4.99999999999892
vertex 109.458967545253 380.63682352212 -8.99610683335485e-013
vertex 109.458967545253 390.63682352212 -1.07856215967724e-012
endloop
endfacet
facet normal 1.0 -9.17653059828354e-015 -1.51040639763006e-015
outer loop
vertex 109.458967545253 380.63682352212 -8.99610683335485e-013
vertex 109.458967545253 390.63682352212 4.99999999999892
vertex 109.458967545253 380.63682352212 4.9999999999991
endloop
endfacet
endsolid SpoolHolder final
