solid SpoolHolder final
facet normal 4.97440503441876e-015 1.0 -2.31603637474586e-015
outer loop
vertex 32.7158120481529 295.3 9.99999999999998
vertex 24.8501423528569 295.3 2.39697151016571e-014
vertex 24.8501423528569 295.3 9.99999999999996
endloop
endfacet
facet normal 4.97440503441876e-015 1.0 -2.31603637474586e-015
outer loop
vertex 24.8501423528569 295.3 2.39697151016571e-014
vertex 32.7158120481529 295.3 9.99999999999998
vertex 32.7158120481529 295.3 2.39697151016571e-014
endloop
endfacet
facet normal 0.86343390582491 -0.504461980997519 5.55269089213555e-015
outer loop
vertex 10.0000000000002 205.3 8.98159324691505e-013
vertex 16.1555377498098 215.835779111165 10.0000000000008
vertex 10.0000000000002 205.3 10.0000000000009
endloop
endfacet
facet normal 0.838929718268269 -0.54423977051142 6.18834832999808e-015
outer loop
vertex 16.1555377498098 215.835779111165 10.0000000000008
vertex 10.0000000000002 205.3 8.98159324691505e-013
vertex 16.1555377498098 215.835779111165 8.13560330215068e-013
endloop
endfacet
facet normal 0.838929718268269 -0.54423977051142 6.18834832999808e-015
outer loop
vertex 16.1555377498098 215.835779111165 8.13560330215068e-013
vertex 23.2673319809143 225.75120493576 10.0000000000006
vertex 16.1555377498098 215.835779111165 10.0000000000008
endloop
endfacet
facet normal 0.784485360518186 -0.620147336632717 7.20884314292189e-015
outer loop
vertex 23.2673319809143 225.75120493576 10.0000000000006
vertex 16.1555377498098 215.835779111165 8.13560330215068e-013
vertex 23.2673319809143 225.75120493576 6.89481804982961e-013
endloop
endfacet
facet normal 0.0607977109348918 -0.99815010812256 1.11898312554675e-014
outer loop
vertex 117.799031207732 275.12781696162 2.10087502949818e-013
vertex 105.667362863241 273.817889617117 10.0000000000002
vertex 105.667362863241 273.817889617117 2.01627603502175e-013
endloop
endfacet
facet normal 0.153671726969272 -0.988121956202918 1.09702993498946e-014
outer loop
vertex 105.667362863241 273.817889617117 10.0000000000002
vertex 117.799031207732 275.12781696162 2.10087502949818e-013
vertex 117.799031207732 275.12781696162 10.0000000000002
endloop
endfacet
facet normal 0.153671726969273 -0.988121956202918 1.09702993498946e-014
outer loop
vertex 105.667362863241 273.817889617117 2.01627603502175e-013
vertex 93.7108576840383 271.381648584646 10.0000000000002
vertex 93.7108576840383 271.381648584646 2.25597318603832e-013
endloop
endfacet
facet normal 0.245204780972739 -0.969471307150506 1.08076865836781e-014
outer loop
vertex 93.7108576840383 271.381648584646 10.0000000000002
vertex 105.667362863241 273.817889617117 2.01627603502175e-013
vertex 105.667362863241 273.817889617117 10.0000000000002
endloop
endfacet
facet normal 0.728487827657072 0.685058745623673 -5.11035328824867e-015
outer loop
vertex 39.3206271233617 277.01486456111 10.0000000000001
vertex 35.4678238991617 282.426891524359 1.33948407921025e-013
vertex 35.4678238991617 282.426891524359 10.0000000000001
endloop
endfacet
facet normal 0.885769484474668 0.464125436033709 -3.40241190910821e-015
outer loop
vertex 35.4678238991617 282.426891524359 1.33948407921025e-013
vertex 39.3206271233617 277.01486456111 10.0000000000001
vertex 39.3206271233617 277.01486456111 1.677880057116e-013
endloop
endfacet
facet normal 0.517626585467888 0.85560663743151 -6.44243305393252e-015
outer loop
vertex 44.4859266897787 272.83708896583 10.0000000000002
vertex 39.3206271233617 277.01486456111 1.677880057116e-013
vertex 39.3206271233617 277.01486456111 10.0000000000001
endloop
endfacet
facet normal 0.728487827657072 0.685058745623674 -5.11035328824867e-015
outer loop
vertex 39.3206271233617 277.01486456111 1.677880057116e-013
vertex 44.4859266897787 272.83708896583 10.0000000000002
vertex 44.4859266897787 272.83708896583 2.10087502949818e-013
endloop
endfacet
facet normal 0.723195468439768 -0.690643406128072 7.95749289313771e-015
outer loop
vertex 31.2733241336576 234.95975401359 5.95012927817606e-013
vertex 40.1036527461535 243.381071194646 10.0000000000004
vertex 31.2733241336576 234.95975401359 10.0000000000006
endloop
endfacet
facet normal 0.655594866621617 -0.755112819954332 8.63670439312095e-015
outer loop
vertex 40.1036527461535 243.381071194646 10.0000000000004
vertex 31.2733241336576 234.95975401359 5.95012927817606e-013
vertex 40.1036527461535 243.381071194646 4.87854201480786e-013
endloop
endfacet
facet normal 0.268694401289354 0.963225476571169 -7.30067800905532e-015
outer loop
vertex 50.5838197385687 270.200836151538 10.0000000000002
vertex 44.4859266897787 272.83708896583 2.10087502949818e-013
vertex 44.4859266897787 272.83708896583 10.0000000000002
endloop
endfacet
facet normal 0.517626585467888 0.85560663743151 -6.44243305393252e-015
outer loop
vertex 44.4859266897787 272.83708896583 2.10087502949818e-013
vertex 50.5838197385687 270.200836151538 10.0000000000002
vertex 50.5838197385687 270.200836151538 2.1431745267364e-013
endloop
endfacet
facet normal 0.977903639973549 0.209056143001068 -1.66016737189174e-015
outer loop
vertex 33.210887022049 288.675120430863 10.0
vertex 32.7158120481529 295.3 2.39697151016571e-014
vertex 32.7158120481529 295.3 9.99999999999998
endloop
endfacet
facet normal 0.997219380145901 0.0745218616341841 -8.43756916436477e-016
outer loop
vertex 32.7158120481529 295.3 2.39697151016571e-014
vertex 33.210887022049 288.675120430863 10.0
vertex 33.210887022049 288.675120430863 6.90891788224235e-014
endloop
endfacet
facet normal 0.885769484474668 0.464125436033709 -3.40241190910821e-015
outer loop
vertex 35.4678238991617 282.426891524359 1.33948407921025e-013
vertex 33.210887022049 288.675120430863 10.0
vertex 35.4678238991617 282.426891524359 10.0000000000001
endloop
endfacet
facet normal 0.977903639973549 0.209056143001068 -1.66016737189174e-015
outer loop
vertex 33.210887022049 288.675120430863 10.0
vertex 35.4678238991617 282.426891524359 1.33948407921025e-013
vertex 33.210887022049 288.675120430863 6.90891788224235e-014
endloop
endfacet
facet normal 0.866025403784437 0.500000000000002 -5.08193422936021e-015
outer loop
vertex 18.1711254799476 252.822648353149 5.93602944576332e-013
vertex 17.0722208323966 255.475638857021 10.0000000000004
vertex 18.1711254799476 252.822648353149 10.0000000000004
endloop
endfacet
facet normal 0.965925826289068 0.258819045102523 -2.61623538587943e-015
outer loop
vertex 17.0722208323966 255.475638857021 10.0000000000004
vertex 18.1711254799476 252.822648353149 5.93602944576332e-013
vertex 17.0722208323966 255.475638857021 5.66813262992127e-013
endloop
endfacet
facet normal 0.707106781186546 0.707106781186549 -7.20130765340349e-015
outer loop
vertex 19.9192303285244 250.544473760097 6.16162676436716e-013
vertex 18.1711254799476 252.822648353149 10.0000000000004
vertex 19.9192303285244 250.544473760097 10.0000000000005
endloop
endfacet
facet normal 0.866025403784437 0.500000000000002 -5.08193422936021e-015
outer loop
vertex 18.1711254799476 252.822648353149 10.0000000000004
vertex 19.9192303285244 250.544473760097 6.16162676436716e-013
vertex 18.1711254799476 252.822648353149 5.93602944576332e-013
endloop
endfacet
facet normal 0.655594866621617 -0.755112819954332 8.63670439312095e-015
outer loop
vertex 40.1036527461535 243.381071194646 4.87854201480786e-013
vertex 49.6812630756503 250.941670829921 10.0000000000004
vertex 40.1036527461535 243.381071194646 10.0000000000004
endloop
endfacet
facet normal 0.582273447831211 -0.812993008549738 9.24055074369245e-015
outer loop
vertex 49.6812630756503 250.941670829921 10.0000000000004
vertex 40.1036527461535 243.381071194646 4.87854201480786e-013
vertex 49.6812630756503 250.94167082992 4.10305123210719e-013
endloop
endfacet
facet normal 0.784485360518186 -0.620147336632717 7.20884314292189e-015
outer loop
vertex 23.2673319809143 225.75120493576 6.89481804982961e-013
vertex 31.2733241336576 234.95975401359 10.0000000000006
vertex 23.2673319809143 225.75120493576 10.0000000000006
endloop
endfacet
facet normal 0.723195468439768 -0.690643406128071 7.95749289313771e-015
outer loop
vertex 31.2733241336576 234.95975401359 10.0000000000006
vertex 23.2673319809143 225.75120493576 6.89481804982961e-013
vertex 31.2733241336576 234.95975401359 5.95012927817606e-013
endloop
endfacet
facet normal 0.582273447831211 -0.812993008549738 9.24055074369245e-015
outer loop
vertex 49.6812630756503 250.94167082992 4.10305123210719e-013
vertex 59.9225794895184 257.575578017969 10.0000000000003
vertex 49.6812630756503 250.941670829921 10.0000000000004
endloop
endfacet
facet normal 0.503871025524088 -0.863778900898432 9.76376269302171e-015
outer loop
vertex 59.9225794895184 257.575578017969 10.0000000000003
vertex 49.6812630756503 250.94167082992 4.10305123210719e-013
vertex 59.9225794895184 257.575578017969 3.4262592762957e-013
endloop
endfacet
facet normal -1.93748781035701e-015 1.0 -1.021194252588e-014
outer loop
vertex 27.6974049215764 247.322648353149 10.0000000000005
vertex 24.8503954254487 247.697464263969 6.45772324503468e-013
vertex 24.8503954254487 247.69746426397 10.0000000000005
endloop
endfacet
facet normal 0.258819045102519 0.965925826289069 -9.85679535075001e-015
outer loop
vertex 24.8503954254487 247.697464263969 6.45772324503468e-013
vertex 27.6974049215764 247.322648353149 10.0000000000005
vertex 27.6974049215764 247.322648353149 6.5000227422729e-013
endloop
endfacet
facet normal 0.499999999999998 0.86602540378444 -8.8299238615909e-015
outer loop
vertex 22.1974049215764 248.79636891152 10.0000000000005
vertex 19.9192303285244 250.544473760097 6.16162676436716e-013
vertex 19.9192303285244 250.544473760097 10.0000000000005
endloop
endfacet
facet normal 0.707106781186546 0.707106781186549 -7.20130765340349e-015
outer loop
vertex 19.9192303285244 250.544473760097 6.16162676436716e-013
vertex 22.1974049215764 248.79636891152 10.0000000000005
vertex 22.1974049215764 248.79636891152 6.34492458573277e-013
endloop
endfacet
facet normal -0.500000000000003 0.866025403784437 -8.85767943720652e-015
outer loop
vertex 33.1974049215764 248.79636891152 10.0000000000005
vertex 30.5444144177042 247.697464263969 6.45772324503468e-013
vertex 30.5444144177042 247.69746426397 10.0000000000005
endloop
endfacet
facet normal -0.258819045102523 0.965925826289068 -9.87116269390423e-015
outer loop
vertex 30.5444144177042 247.697464263969 6.45772324503468e-013
vertex 33.1974049215764 248.79636891152 10.0000000000005
vertex 33.1974049215764 248.79636891152 6.34492458573277e-013
endloop
endfacet
facet normal -0.866025403784437 -0.500000000000002 5.08193422936021e-015
outer loop
vertex 37.2236843632052 263.822648353149 4.8221426851569e-013
vertex 38.3225890107561 261.169657849277 10.0000000000004
vertex 37.2236843632052 263.822648353149 10.0000000000003
endloop
endfacet
facet normal -0.965925826289068 -0.258819045102524 2.61623538587944e-015
outer loop
vertex 38.3225890107561 261.169657849277 10.0000000000004
vertex 37.2236843632052 263.822648353149 4.8221426851569e-013
vertex 38.3225890107561 261.169657849277 5.09003950099896e-013
endloop
endfacet
facet normal 0.258819045102519 0.965925826289069 -9.85679535075001e-015
outer loop
vertex 24.8503954254487 247.69746426397 10.0000000000005
vertex 22.1974049215764 248.79636891152 6.34492458573277e-013
vertex 22.1974049215764 248.79636891152 10.0000000000005
endloop
endfacet
facet normal 0.499999999999998 0.86602540378444 -8.8299238615909e-015
outer loop
vertex 22.1974049215764 248.79636891152 6.34492458573277e-013
vertex 24.8503954254487 247.69746426397 10.0000000000005
vertex 24.8503954254487 247.697464263969 6.45772324503468e-013
endloop
endfacet
facet normal -0.86602540378444 0.499999999999998 -5.13000829651979e-015
outer loop
vertex 37.2236843632052 252.822648353149 5.95012927817606e-013
vertex 35.4755795146284 250.544473760097 10.0000000000005
vertex 37.2236843632052 252.822648353149 10.0000000000004
endloop
endfacet
facet normal -0.70710678118655 0.707106781186546 -7.24055996487058e-015
outer loop
vertex 35.4755795146284 250.544473760097 10.0000000000005
vertex 37.2236843632052 252.822648353149 5.95012927817606e-013
vertex 35.4755795146284 250.544473760097 6.1757265967799e-013
endloop
endfacet
facet normal -0.707106781186545 -0.70710678118655 7.20130765340349e-015
outer loop
vertex 35.4755795146284 266.100822946201 4.59654536655307e-013
vertex 37.2236843632052 263.822648353149 10.0000000000003
vertex 35.4755795146284 266.100822946201 10.0000000000003
endloop
endfacet
facet normal -0.866025403784437 -0.500000000000002 5.08193422936021e-015
outer loop
vertex 37.2236843632052 263.822648353149 10.0000000000003
vertex 35.4755795146284 266.100822946201 4.59654536655307e-013
vertex 37.2236843632052 263.822648353149 4.8221426851569e-013
endloop
endfacet
facet normal -0.258819045102523 0.965925826289068 -9.87116269390423e-015
outer loop
vertex 30.5444144177042 247.69746426397 10.0000000000005
vertex 27.6974049215764 247.322648353149 6.5000227422729e-013
vertex 27.6974049215764 247.322648353149 10.0000000000005
endloop
endfacet
facet normal -1.93748781035701e-015 1.0 -1.021194252588e-014
outer loop
vertex 27.6974049215764 247.322648353149 6.5000227422729e-013
vertex 30.5444144177042 247.69746426397 10.0000000000005
vertex 30.5444144177042 247.697464263969 6.45772324503468e-013
endloop
endfacet
facet normal -0.26869440128936 0.963225476571167 -7.3826638363473e-015
outer loop
vertex 63.7478043577373 270.200836151538 10.0000000000002
vertex 57.165812048153 269.3 2.22777352121284e-013
vertex 57.165812048153 269.3 10.0000000000002
endloop
endfacet
facet normal -3.16788874898029e-015 1.0 -7.6219650551974e-015
outer loop
vertex 57.165812048153 269.3 2.22777352121284e-013
vertex 63.7478043577373 270.200836151538 10.0000000000002
vertex 63.7478043577373 270.200836151538 2.1431745267364e-013
endloop
endfacet
facet normal -3.15897151272662e-015 1.0 -7.6219650551974e-015
outer loop
vertex 57.165812048153 269.3 10.0000000000002
vertex 50.5838197385687 270.200836151538 2.1431745267364e-013
vertex 50.5838197385687 270.200836151538 10.0000000000002
endloop
endfacet
facet normal 0.268694401289354 0.963225476571169 -7.30067800905532e-015
outer loop
vertex 50.5838197385687 270.200836151538 2.1431745267364e-013
vertex 57.165812048153 269.3 10.0000000000002
vertex 57.165812048153 269.3 2.22777352121284e-013
endloop
endfacet
facet normal -0.70710678118655 0.707106781186546 -7.24055996487058e-015
outer loop
vertex 35.4755795146284 250.544473760097 10.0000000000005
vertex 33.1974049215764 248.79636891152 6.34492458573277e-013
vertex 33.1974049215764 248.79636891152 10.0000000000005
endloop
endfacet
facet normal -0.500000000000003 0.866025403784437 -8.85767943720652e-015
outer loop
vertex 33.1974049215764 248.79636891152 6.34492458573277e-013
vertex 35.4755795146284 250.544473760097 10.0000000000005
vertex 35.4755795146284 250.544473760097 6.1757265967799e-013
endloop
endfacet
facet normal -0.517626585467893 0.855606637431507 -6.60037472906331e-015
outer loop
vertex 69.8456974065273 272.83708896583 10.0000000000002
vertex 63.7478043577373 270.200836151538 2.1431745267364e-013
vertex 63.7478043577373 270.200836151538 10.0000000000002
endloop
endfacet
facet normal -0.26869440128936 0.963225476571167 -7.3826638363473e-015
outer loop
vertex 63.7478043577373 270.200836151538 2.1431745267364e-013
vertex 69.8456974065273 272.83708896583 10.0000000000002
vertex 69.8456974065273 272.83708896583 2.10087502949818e-013
endloop
endfacet
facet normal -0.728487827657075 0.685058745623669 -5.33263435155331e-015
outer loop
vertex 75.0109969729443 277.01486456111 10.0000000000001
vertex 69.8456974065273 272.83708896583 2.10087502949818e-013
vertex 69.8456974065273 272.83708896583 10.0000000000002
endloop
endfacet
facet normal -0.517626585467893 0.855606637431507 -6.60037472906331e-015
outer loop
vertex 69.8456974065273 272.83708896583 2.10087502949818e-013
vertex 75.0109969729443 277.01486456111 10.0000000000001
vertex 75.0109969729443 277.01486456111 1.677880057116e-013
endloop
endfacet
facet normal -0.707106781186545 -0.70710678118655 7.20130765340349e-015
outer loop
vertex 35.4755795146284 266.100822946201 4.59654536655307e-013
vertex 33.1974049215764 267.848927794778 10.0000000000003
vertex 33.1974049215764 267.848927794778 4.39914771277472e-013
endloop
endfacet
facet normal -0.499999999999998 -0.86602540378444 8.8299238615909e-015
outer loop
vertex 33.1974049215764 267.848927794778 10.0000000000003
vertex 35.4755795146284 266.100822946201 4.59654536655307e-013
vertex 35.4755795146284 266.100822946201 10.0000000000003
endloop
endfacet
facet normal 0.965925826289069 -0.258819045102519 2.66985504050074e-015
outer loop
vertex 17.0722208323966 261.169657849277 5.07593966858622e-013
vertex 18.1711254799475 263.822648353149 10.0000000000003
vertex 17.0722208323966 261.169657849277 10.0000000000004
endloop
endfacet
facet normal 0.86602540378444 -0.499999999999998 5.1300082965198e-015
outer loop
vertex 18.1711254799475 263.822648353149 10.0000000000003
vertex 17.0722208323966 261.169657849277 5.07593966858622e-013
vertex 18.1711254799475 263.822648353149 4.80804285274417e-013
endloop
endfacet
facet normal 0.86602540378444 -0.499999999999998 5.1300082965198e-015
outer loop
vertex 18.1711254799475 263.822648353149 4.80804285274417e-013
vertex 19.9192303285243 266.100822946201 10.0000000000003
vertex 18.1711254799475 263.822648353149 10.0000000000003
endloop
endfacet
facet normal 0.707106781186549 -0.707106781186546 7.24055996487058e-015
outer loop
vertex 19.9192303285243 266.100822946201 10.0000000000003
vertex 18.1711254799475 263.822648353149 4.80804285274417e-013
vertex 19.9192303285243 266.100822946201 4.58244553414033e-013
endloop
endfacet
facet normal -0.965925826289069 0.258819045102518 -2.66985504050074e-015
outer loop
vertex 38.3225890107561 255.475638857021 5.68223246233401e-013
vertex 37.2236843632052 252.822648353149 10.0000000000004
vertex 38.3225890107561 255.475638857022 10.0000000000004
endloop
endfacet
facet normal -0.86602540378444 0.499999999999998 -5.13000829651979e-015
outer loop
vertex 37.2236843632052 252.822648353149 10.0000000000004
vertex 38.3225890107561 255.475638857021 5.68223246233401e-013
vertex 37.2236843632052 252.822648353149 5.95012927817606e-013
endloop
endfacet
facet normal -1.0 -1.81273227181795e-015 -2.77555756156328e-017
outer loop
vertex 38.6974049215764 258.322648353149 5.38613598166648e-013
vertex 38.3225890107561 255.475638857022 10.0000000000004
vertex 38.6974049215764 258.322648353149 10.0000000000004
endloop
endfacet
facet normal -0.965925826289069 0.258819045102518 -2.66985504050074e-015
outer loop
vertex 38.3225890107561 255.475638857022 10.0000000000004
vertex 38.6974049215764 258.322648353149 5.38613598166648e-013
vertex 38.3225890107561 255.475638857021 5.68223246233401e-013
endloop
endfacet
facet normal -0.499999999999998 -0.86602540378444 8.8299238615909e-015
outer loop
vertex 33.1974049215764 267.848927794778 4.39914771277472e-013
vertex 30.5444144177041 268.947832442329 10.0000000000003
vertex 30.5444144177041 268.947832442329 4.2863490534728e-013
endloop
endfacet
facet normal -0.258819045102519 -0.965925826289069 9.85679535075001e-015
outer loop
vertex 30.5444144177041 268.947832442329 10.0000000000003
vertex 33.1974049215764 267.848927794778 4.39914771277472e-013
vertex 33.1974049215764 267.848927794778 10.0000000000003
endloop
endfacet
facet normal -6.20392626160538e-015 1.0 -4.00801626427462e-015
outer loop
vertex 19.8501423528569 295.3 9.99999999999998
vertex 10.0 295.3 1.40998324127395e-015
vertex 10.0 295.3 9.99999999999998
endloop
endfacet
facet normal -6.20392626160538e-015 1.0 -4.00801626427462e-015
outer loop
vertex 10.0 295.3 1.40998324127395e-015
vertex 19.8501423528569 295.3 9.99999999999998
vertex 19.8501423528569 295.3 2.39697151016571e-014
endloop
endfacet
facet normal -0.997219380145902 0.0745218616341781 -6.21885476420629e-016
outer loop
vertex 81.6158120481529 295.3 2.53796983429311e-014
vertex 81.120737074257 288.675120430863 10.0000000000001
vertex 81.6158120481529 295.3 9.99999999999999
endloop
endfacet
facet normal -0.97790363997355 0.209056143001063 -1.69302453157342e-015
outer loop
vertex 81.120737074257 288.675120430863 10.0000000000001
vertex 81.6158120481529 295.3 2.53796983429311e-014
vertex 81.120737074257 288.675120430863 9.30588939240806e-014
endloop
endfacet
facet normal 4.02268752593839e-015 -1.0 1.021194252588e-014
outer loop
vertex 27.6974049215764 269.322648353149 4.24404955623459e-013
vertex 24.8503954254486 268.947832442329 10.0000000000003
vertex 24.8503954254486 268.947832442329 4.2863490534728e-013
endloop
endfacet
facet normal 0.258819045102523 -0.965925826289068 9.87116269390423e-015
outer loop
vertex 24.8503954254486 268.947832442329 10.0000000000003
vertex 27.6974049215764 269.322648353149 4.24404955623459e-013
vertex 27.6974049215764 269.322648353149 10.0000000000003
endloop
endfacet
facet normal -0.965925826289068 -0.258819045102524 2.61623538587944e-015
outer loop
vertex 38.3225890107561 261.169657849277 5.09003950099896e-013
vertex 38.6974049215764 258.322648353149 10.0000000000004
vertex 38.3225890107561 261.169657849277 10.0000000000004
endloop
endfacet
facet normal -1.0 -1.81273227181795e-015 -2.77555756156328e-017
outer loop
vertex 38.6974049215764 258.322648353149 10.0000000000004
vertex 38.3225890107561 261.169657849277 5.09003950099896e-013
vertex 38.6974049215764 258.322648353149 5.38613598166648e-013
endloop
endfacet
facet normal 0.500000000000002 -0.866025403784438 8.85767943720653e-015
outer loop
vertex 22.1974049215764 267.848927794778 4.39914771277472e-013
vertex 19.9192303285243 266.100822946201 10.0000000000003
vertex 19.9192303285243 266.100822946201 4.58244553414033e-013
endloop
endfacet
facet normal 0.707106781186549 -0.707106781186546 7.24055996487058e-015
outer loop
vertex 19.9192303285243 266.100822946201 10.0000000000003
vertex 22.1974049215764 267.848927794778 4.39914771277472e-013
vertex 22.1974049215764 267.848927794778 10.0000000000003
endloop
endfacet
facet normal -0.258819045102519 -0.965925826289069 9.85679535075001e-015
outer loop
vertex 30.5444144177041 268.947832442329 4.2863490534728e-013
vertex 27.6974049215764 269.322648353149 10.0000000000003
vertex 27.6974049215764 269.322648353149 4.24404955623459e-013
endloop
endfacet
facet normal 4.02268752593839e-015 -1.0 1.021194252588e-014
outer loop
vertex 27.6974049215764 269.322648353149 10.0000000000003
vertex 30.5444144177041 268.947832442329 4.2863490534728e-013
vertex 30.5444144177041 268.947832442329 10.0000000000003
endloop
endfacet
facet normal 0.258819045102523 -0.965925826289068 9.87116269390423e-015
outer loop
vertex 24.8503954254486 268.947832442329 4.2863490534728e-013
vertex 22.1974049215764 267.848927794778 10.0000000000003
vertex 22.1974049215764 267.848927794778 4.39914771277472e-013
endloop
endfacet
facet normal 0.500000000000002 -0.866025403784438 8.85767943720653e-015
outer loop
vertex 22.1974049215764 267.848927794778 10.0000000000003
vertex 24.8503954254486 268.947832442329 4.2863490534728e-013
vertex 24.8503954254486 268.947832442329 10.0000000000003
endloop
endfacet
facet normal -0.885769484474671 0.464125436033704 -3.67268380024613e-015
outer loop
vertex 78.8638001971442 282.426891524359 1.33948407921025e-013
vertex 75.0109969729443 277.01486456111 10.0000000000001
vertex 78.8638001971442 282.426891524359 10.0000000000001
endloop
endfacet
facet normal -0.728487827657075 0.685058745623669 -5.33263435155331e-015
outer loop
vertex 75.0109969729443 277.01486456111 10.0000000000001
vertex 78.8638001971442 282.426891524359 1.33948407921025e-013
vertex 75.0109969729443 277.01486456111 1.677880057116e-013
endloop
endfacet
facet normal -2.19590999733077e-015 1.0 -1.021194252588e-014
outer loop
vertex 119.067798483944 295.3 9.99999999999999
vertex 104.067798483944 295.3 4.22994972382185e-015
vertex 104.067798483944 295.3 9.99999999999999
endloop
endfacet
facet normal -2.19590999733077e-015 1.0 -1.021194252588e-014
outer loop
vertex 104.067798483944 295.3 4.22994972382185e-015
vertex 119.067798483944 295.3 9.99999999999999
vertex 119.067798483944 295.3 4.22994972382185e-015
endloop
endfacet
facet normal -2.19590999733077e-015 1.0 -1.021194252588e-014
outer loop
vertex 119.067798483944 295.3 4.22994972382185e-015
vertex 119.067798483944 295.3 9.99999999999999
vertex 121.079162120308 295.3 5.00000000000002
endloop
endfacet
facet normal -2.19590999733077e-015 1.0 -1.021194252588e-014
outer loop
vertex 109.067798483944 285.3 10.0000000000001
vertex 94.0677984839439 285.3 1.0715872633682e-013
vertex 94.0677984839439 285.3 10.0000000000001
endloop
endfacet
facet normal -2.19590999733077e-015 1.0 -1.021194252588e-014
outer loop
vertex 94.0677984839439 285.3 1.0715872633682e-013
vertex 109.067798483944 285.3 10.0000000000001
vertex 109.067798483944 285.3 1.0715872633682e-013
endloop
endfacet
facet normal 2.19590999733077e-015 -1.0 1.021194252588e-014
outer loop
vertex 109.067798483944 290.3 5.4989346409684e-014
vertex 104.067798483944 290.3 10.0
vertex 104.067798483944 290.3 5.4989346409684e-014
endloop
endfacet
facet normal 2.19590999733077e-015 -1.0 1.021194252588e-014
outer loop
vertex 104.067798483944 290.3 10.0
vertex 109.067798483944 290.3 5.4989346409684e-014
vertex 109.067798483944 290.3 10.0
endloop
endfacet
facet normal 1.0 2.05333223900042e-015 2.77555756156304e-017
outer loop
vertex 16.6974049215764 258.322648353149 5.37203614925374e-013
vertex 17.0722208323966 261.169657849277 10.0000000000004
vertex 16.6974049215764 258.322648353149 10.0000000000004
endloop
endfacet
facet normal 0.965925826289069 -0.258819045102519 2.66985504050074e-015
outer loop
vertex 17.0722208323966 261.169657849277 10.0000000000004
vertex 16.6974049215764 258.322648353149 5.37203614925374e-013
vertex 17.0722208323966 261.169657849277 5.07593966858622e-013
endloop
endfacet
facet normal 0.965925826289068 0.258819045102523 -2.61623538587943e-015
outer loop
vertex 17.0722208323966 255.475638857021 5.66813262992127e-013
vertex 16.6974049215764 258.322648353149 10.0000000000004
vertex 17.0722208323966 255.475638857021 10.0000000000004
endloop
endfacet
facet normal 1.0 2.05333223900042e-015 2.77555756156304e-017
outer loop
vertex 16.6974049215764 258.322648353149 10.0000000000004
vertex 17.0722208323966 255.475638857021 5.66813262992127e-013
vertex 16.6974049215764 258.322648353149 5.37203614925374e-013
endloop
endfacet
facet normal 1.0 2.19590999733077e-015 2.77555756156289e-017
outer loop
vertex 99.0677984839439 290.3 5.4989346409684e-014
vertex 99.0677984839439 295.3 9.99999999999999
vertex 99.0677984839439 290.3 10.0
endloop
endfacet
facet normal 1.0 2.19590999733077e-015 2.77555756156289e-017
outer loop
vertex 99.0677984839439 295.3 9.99999999999999
vertex 99.0677984839439 290.3 5.4989346409684e-014
vertex 99.0677984839439 295.3 4.22994972382185e-015
endloop
endfacet
facet normal -0.97790363997355 0.209056143001063 -1.69302453157341e-015
outer loop
vertex 81.120737074257 288.675120430863 9.30588939240806e-014
vertex 78.8638001971442 282.426891524359 10.0000000000001
vertex 81.120737074257 288.675120430863 10.0000000000001
endloop
endfacet
facet normal -0.885769484474671 0.464125436033704 -3.67268380024613e-015
outer loop
vertex 78.8638001971442 282.426891524359 10.0000000000001
vertex 81.120737074257 288.675120430863 9.30588939240806e-014
vertex 78.8638001971442 282.426891524359 1.33948407921025e-013
endloop
endfacet
facet normal -1.0 -2.19590999733077e-015 -2.77555756156289e-017
outer loop
vertex 109.067798483944 290.3 5.4989346409684e-014
vertex 109.067798483944 285.3 10.0000000000001
vertex 109.067798483944 290.3 10.0
endloop
endfacet
facet normal -1.0 -2.19590999733077e-015 -2.77555756156289e-017
outer loop
vertex 109.067798483944 285.3 10.0000000000001
vertex 109.067798483944 290.3 5.4989346409684e-014
vertex 109.067798483944 285.3 1.0715872633682e-013
endloop
endfacet
facet normal -1.0 -2.19590999733077e-015 -2.77555756156289e-017
outer loop
vertex 104.067798483944 295.3 4.22994972382185e-015
vertex 104.067798483944 290.3 10.0
vertex 104.067798483944 295.3 9.99999999999999
endloop
endfacet
facet normal -1.0 -2.19590999733077e-015 -2.77555756156289e-017
outer loop
vertex 104.067798483944 290.3 10.0
vertex 104.067798483944 295.3 4.22994972382185e-015
vertex 104.067798483944 290.3 5.4989346409684e-014
endloop
endfacet
facet normal -2.19590999733077e-015 1.0 -9.08395593286084e-015
outer loop
vertex 99.0677984839439 295.3 9.99999999999999
vertex 81.6158120481529 295.3 2.53796983429311e-014
vertex 81.6158120481529 295.3 9.99999999999999
endloop
endfacet
facet normal -2.19590999733077e-015 1.0 -9.08395593286084e-015
outer loop
vertex 81.6158120481529 295.3 2.53796983429311e-014
vertex 99.0677984839439 295.3 9.99999999999999
vertex 99.0677984839439 295.3 4.22994972382185e-015
endloop
endfacet
facet normal 1.0 2.19590999733077e-015 2.77555756156289e-017
outer loop
vertex 94.0677984839439 285.3 1.0715872633682e-013
vertex 94.0677984839439 290.3 10.0
vertex 94.0677984839439 285.3 10.0000000000001
endloop
endfacet
facet normal 1.0 2.19590999733077e-015 2.77555756156289e-017
outer loop
vertex 94.0677984839439 290.3 10.0
vertex 94.0677984839439 285.3 1.0715872633682e-013
vertex 94.0677984839439 290.3 5.4989346409684e-014
endloop
endfacet
facet normal 2.19590999733077e-015 -1.0 1.021194252588e-014
outer loop
vertex 99.0677984839439 290.3 5.4989346409684e-014
vertex 94.0677984839439 290.3 10.0
vertex 94.0677984839439 290.3 5.4989346409684e-014
endloop
endfacet
facet normal 2.19590999733077e-015 -1.0 1.021194252588e-014
outer loop
vertex 94.0677984839439 290.3 10.0
vertex 99.0677984839439 290.3 5.4989346409684e-014
vertex 99.0677984839439 290.3 10.0
endloop
endfacet
facet normal 0.503871025524088 -0.863778900898432 9.76376269302171e-015
outer loop
vertex 59.9225794895184 257.575578017969 3.4262592762957e-013
vertex 70.7382347584799 263.224904311571 10.0000000000002
vertex 59.9225794895184 257.575578017969 10.0000000000003
endloop
endfacet
facet normal 0.42107175073778 -0.907027331854239 1.02017746168914e-014
outer loop
vertex 70.7382347584799 263.224904311571 10.0000000000002
vertex 59.9225794895184 257.575578017969 3.4262592762957e-013
vertex 70.7382347584799 263.224904311571 2.84816614737338e-013
endloop
endfacet
facet normal 0.334598142089507 -0.942360909264731 1.0550764359004e-014
outer loop
vertex 82.0338498881605 267.840352860816 2.38287167775297e-013
vertex 70.7382347584799 263.224904311571 10.0000000000002
vertex 70.7382347584799 263.224904311571 2.84816614737338e-013
endloop
endfacet
facet normal 0.42107175073778 -0.907027331854239 1.02017746168914e-014
outer loop
vertex 70.7382347584799 263.224904311571 10.0000000000002
vertex 82.0338498881605 267.840352860816 2.38287167775297e-013
vertex 82.0338498881605 267.840352860817 10.0000000000002
endloop
endfacet
facet normal 0.245204780972739 -0.969471307150506 1.08076865836781e-014
outer loop
vertex 93.7108576840383 271.381648584646 2.25597318603832e-013
vertex 82.0338498881605 267.840352860817 10.0000000000002
vertex 82.0338498881605 267.840352860816 2.38287167775297e-013
endloop
endfacet
facet normal 0.334598142089507 -0.942360909264731 1.0550764359004e-014
outer loop
vertex 82.0338498881605 267.840352860817 10.0000000000002
vertex 93.7108576840383 271.381648584646 2.25597318603832e-013
vertex 93.7108576840383 271.381648584646 10.0000000000002
endloop
endfacet
facet normal 7.51589851870975e-019 -9.52580948100294e-015 -1.0
outer loop
vertex 27.6974049215764 269.322648353149 4.24404955623459e-013
vertex 57.165812048153 269.3 2.22777352121284e-013
vertex 30.5444144177041 268.947832442329 4.2863490534728e-013
endloop
endfacet
facet normal 7.51589851870975e-019 -9.52580948100294e-015 -1.0
outer loop
vertex 57.165812048153 269.3 2.22777352121284e-013
vertex 27.6974049215764 269.322648353149 4.24404955623459e-013
vertex 50.5838197385687 270.200836151538 2.1431745267364e-013
endloop
endfacet
facet normal 7.51589851870975e-019 -9.52580948100294e-015 -1.0
outer loop
vertex 81.120737074257 288.675120430863 9.30588939240806e-014
vertex 94.0677984839439 285.3 1.0715872633682e-013
vertex 78.8638001971442 282.426891524359 1.33948407921025e-013
endloop
endfacet
facet normal 7.51589851870975e-019 -9.52580948100294e-015 -1.0
outer loop
vertex 94.0677984839439 285.3 1.0715872633682e-013
vertex 81.120737074257 288.675120430863 9.30588939240806e-014
vertex 94.0677984839439 290.3 5.4989346409684e-014
endloop
endfacet
facet normal 7.51589851870975e-019 -9.52580948100294e-015 -1.0
outer loop
vertex 94.0677984839439 290.3 5.4989346409684e-014
vertex 81.120737074257 288.675120430863 9.30588939240806e-014
vertex 81.6158120481529 295.3 2.53796983429311e-014
endloop
endfacet
facet normal 7.51589851870975e-019 -9.52580948100294e-015 -1.0
outer loop
vertex 94.0677984839439 290.3 5.4989346409684e-014
vertex 81.6158120481529 295.3 2.53796983429311e-014
vertex 99.0677984839439 290.3 5.4989346409684e-014
endloop
endfacet
facet normal 7.51589851870975e-019 -9.52580948100294e-015 -1.0
outer loop
vertex 99.0677984839439 290.3 5.4989346409684e-014
vertex 81.6158120481529 295.3 2.53796983429311e-014
vertex 99.0677984839439 295.3 4.22994972382185e-015
endloop
endfacet
facet normal 7.51589851870975e-019 -9.52580948100294e-015 -1.0
outer loop
vertex 104.067798483944 295.3 4.22994972382185e-015
vertex 109.067798483944 290.3 5.4989346409684e-014
vertex 104.067798483944 290.3 5.4989346409684e-014
endloop
endfacet
facet normal 7.51589851870975e-019 -9.52580948100294e-015 -1.0
outer loop
vertex 109.067798483944 290.3 5.4989346409684e-014
vertex 104.067798483944 295.3 4.22994972382185e-015
vertex 120.490814832059 290.403847225567 7.75490782700672e-014
endloop
endfacet
facet normal 7.51589851870975e-019 -9.52580948100294e-015 -1.0
outer loop
vertex 120.490814832059 290.403847225567 7.75490782700672e-014
vertex 104.067798483944 295.3 4.22994972382185e-015
vertex 119.379556438793 293.000848627329 5.07593966858622e-014
endloop
endfacet
facet normal 7.51589851870975e-019 -9.52580948100294e-015 -1.0
outer loop
vertex 119.379556438793 293.000848627329 5.07593966858622e-014
vertex 104.067798483944 295.3 4.22994972382185e-015
vertex 119.067798483944 295.3 4.22994972382185e-015
endloop
endfacet
facet normal 7.51589851870975e-019 -9.52580948100294e-015 -1.0
outer loop
vertex 10.0000000000001 234.3263171211 5.9642291105888e-013
vertex 16.1555377498098 215.835779111165 8.13560330215068e-013
vertex 10.0000000000002 205.3 8.98159324691505e-013
endloop
endfacet
facet normal 7.51589851870975e-019 -9.52580948100294e-015 -1.0
outer loop
vertex 16.1555377498098 215.835779111165 8.13560330215068e-013
vertex 10.0000000000001 234.3263171211 5.9642291105888e-013
vertex 23.2673319809143 225.75120493576 6.89481804982961e-013
endloop
endfacet
facet normal 7.51589851870975e-019 -9.52580948100294e-015 -1.0
outer loop
vertex 23.2673319809143 225.75120493576 6.89481804982961e-013
vertex 10.0000000000001 234.3263171211 5.9642291105888e-013
vertex 15.0000000000001 234.3263171211 5.9642291105888e-013
endloop
endfacet
facet normal 7.51589851870975e-019 -9.52580948100294e-015 -1.0
outer loop
vertex 23.2673319809143 225.75120493576 6.89481804982961e-013
vertex 15.0000000000001 234.3263171211 5.9642291105888e-013
vertex 31.2733241336576 234.95975401359 5.95012927817606e-013
endloop
endfacet
facet normal 7.51589851870975e-019 -9.52580948100294e-015 -1.0
outer loop
vertex 31.2733241336576 234.95975401359 5.95012927817606e-013
vertex 15.0000000000001 234.3263171211 5.9642291105888e-013
vertex 15.0000000000001 244.3263171211 4.97724084169704e-013
endloop
endfacet
facet normal 7.51589851870975e-019 -9.52580948100294e-015 -1.0
outer loop
vertex 31.2733241336576 234.95975401359 5.95012927817606e-013
vertex 15.0000000000001 244.3263171211 4.97724084169704e-013
vertex 40.1036527461535 243.381071194646 4.87854201480786e-013
endloop
endfacet
facet normal 7.51589851870975e-019 -9.52580948100294e-015 -1.0
outer loop
vertex 40.1036527461535 243.381071194646 4.87854201480786e-013
vertex 15.0000000000001 244.3263171211 4.97724084169704e-013
vertex 49.6812630756503 250.94167082992 4.10305123210719e-013
endloop
endfacet
facet normal 7.51589851870975e-019 -9.52580948100294e-015 -1.0
outer loop
vertex 49.6812630756503 250.94167082992 4.10305123210719e-013
vertex 15.0000000000001 244.3263171211 4.97724084169704e-013
vertex 30.5444144177042 247.697464263969 6.45772324503468e-013
endloop
endfacet
facet normal 7.51589851870975e-019 -9.52580948100294e-015 -1.0
outer loop
vertex 30.5444144177042 247.697464263969 6.45772324503468e-013
vertex 15.0000000000001 244.3263171211 4.97724084169704e-013
vertex 27.6974049215764 247.322648353149 6.5000227422729e-013
endloop
endfacet
facet normal 7.51589851870975e-019 -9.52580948100294e-015 -1.0
outer loop
vertex 49.6812630756503 250.94167082992 4.10305123210719e-013
vertex 30.5444144177042 247.697464263969 6.45772324503468e-013
vertex 33.1974049215764 248.79636891152 6.34492458573277e-013
endloop
endfacet
facet normal 7.51589851870975e-019 -9.52580948100294e-015 -1.0
outer loop
vertex 49.6812630756503 250.94167082992 4.10305123210719e-013
vertex 33.1974049215764 248.79636891152 6.34492458573277e-013
vertex 35.4755795146284 250.544473760097 6.1757265967799e-013
endloop
endfacet
facet normal 7.51589851870975e-019 -9.52580948100294e-015 -1.0
outer loop
vertex 49.6812630756503 250.94167082992 4.10305123210719e-013
vertex 35.4755795146284 250.544473760097 6.1757265967799e-013
vertex 37.2236843632052 252.822648353149 5.95012927817606e-013
endloop
endfacet
facet normal 7.51589851870975e-019 -9.52580948100294e-015 -1.0
outer loop
vertex 49.6812630756503 250.94167082992 4.10305123210719e-013
vertex 37.2236843632052 252.822648353149 5.95012927817606e-013
vertex 59.9225794895184 257.575578017969 3.4262592762957e-013
endloop
endfacet
facet normal 7.51589851870975e-019 -9.52580948100294e-015 -1.0
outer loop
vertex 59.9225794895184 257.575578017969 3.4262592762957e-013
vertex 37.2236843632052 252.822648353149 5.95012927817606e-013
vertex 38.3225890107561 255.475638857021 5.68223246233401e-013
endloop
endfacet
facet normal 7.51589851870975e-019 -9.52580948100294e-015 -1.0
outer loop
vertex 59.9225794895184 257.575578017969 3.4262592762957e-013
vertex 38.3225890107561 255.475638857021 5.68223246233401e-013
vertex 38.6974049215764 258.322648353149 5.38613598166648e-013
endloop
endfacet
facet normal 7.51589851870975e-019 -9.52580948100294e-015 -1.0
outer loop
vertex 59.9225794895184 257.575578017969 3.4262592762957e-013
vertex 38.6974049215764 258.322648353149 5.38613598166648e-013
vertex 70.7382347584799 263.224904311571 2.84816614737338e-013
endloop
endfacet
facet normal 7.51589851870975e-019 -9.52580948100294e-015 -1.0
outer loop
vertex 70.7382347584799 263.224904311571 2.84816614737338e-013
vertex 38.6974049215764 258.322648353149 5.38613598166648e-013
vertex 38.3225890107561 261.169657849277 5.09003950099896e-013
endloop
endfacet
facet normal 7.51589851870975e-019 -9.52580948100294e-015 -1.0
outer loop
vertex 70.7382347584799 263.224904311571 2.84816614737338e-013
vertex 38.3225890107561 261.169657849277 5.09003950099896e-013
vertex 37.2236843632052 263.822648353149 4.8221426851569e-013
endloop
endfacet
facet normal 7.51589851870975e-019 -9.52580948100294e-015 -1.0
outer loop
vertex 70.7382347584799 263.224904311571 2.84816614737338e-013
vertex 37.2236843632052 263.822648353149 4.8221426851569e-013
vertex 82.0338498881605 267.840352860816 2.38287167775297e-013
endloop
endfacet
facet normal 7.51589851870975e-019 -9.52580948100294e-015 -1.0
outer loop
vertex 82.0338498881605 267.840352860816 2.38287167775297e-013
vertex 37.2236843632052 263.822648353149 4.8221426851569e-013
vertex 35.4755795146284 266.100822946201 4.59654536655307e-013
endloop
endfacet
facet normal 7.51589851870975e-019 -9.52580948100294e-015 -1.0
outer loop
vertex 82.0338498881605 267.840352860816 2.38287167775297e-013
vertex 35.4755795146284 266.100822946201 4.59654536655307e-013
vertex 33.1974049215764 267.848927794778 4.39914771277472e-013
endloop
endfacet
facet normal 7.51589851870975e-019 -9.52580948100294e-015 -1.0
outer loop
vertex 82.0338498881605 267.840352860816 2.38287167775297e-013
vertex 33.1974049215764 267.848927794778 4.39914771277472e-013
vertex 93.7108576840383 271.381648584646 2.25597318603832e-013
endloop
endfacet
facet normal 7.51589851870975e-019 -9.52580948100294e-015 -1.0
outer loop
vertex 93.7108576840383 271.381648584646 2.25597318603832e-013
vertex 33.1974049215764 267.848927794778 4.39914771277472e-013
vertex 57.165812048153 269.3 2.22777352121284e-013
endloop
endfacet
facet normal 7.51589851870975e-019 -9.52580948100294e-015 -1.0
outer loop
vertex 57.165812048153 269.3 2.22777352121284e-013
vertex 33.1974049215764 267.848927794778 4.39914771277472e-013
vertex 30.5444144177041 268.947832442329 4.2863490534728e-013
endloop
endfacet
facet normal 7.51589851870975e-019 -9.52580948100294e-015 -1.0
outer loop
vertex 93.7108576840383 271.381648584646 2.25597318603832e-013
vertex 57.165812048153 269.3 2.22777352121284e-013
vertex 63.7478043577373 270.200836151538 2.1431745267364e-013
endloop
endfacet
facet normal 7.51589851870975e-019 -9.52580948100294e-015 -1.0
outer loop
vertex 93.7108576840383 271.381648584646 2.25597318603832e-013
vertex 63.7478043577373 270.200836151538 2.1431745267364e-013
vertex 69.8456974065273 272.83708896583 2.10087502949818e-013
endloop
endfacet
facet normal 7.51589851870975e-019 -9.52580948100294e-015 -1.0
outer loop
vertex 93.7108576840383 271.381648584646 2.25597318603832e-013
vertex 69.8456974065273 272.83708896583 2.10087502949818e-013
vertex 105.667362863241 273.817889617117 2.01627603502175e-013
endloop
endfacet
facet normal 7.51589851870975e-019 -9.52580948100294e-015 -1.0
outer loop
vertex 105.667362863241 273.817889617117 2.01627603502175e-013
vertex 69.8456974065273 272.83708896583 2.10087502949818e-013
vertex 75.0109969729443 277.01486456111 1.677880057116e-013
endloop
endfacet
facet normal 7.51589851870975e-019 -9.52580948100294e-015 -1.0
outer loop
vertex 105.667362863241 273.817889617117 2.01627603502175e-013
vertex 75.0109969729443 277.01486456111 1.677880057116e-013
vertex 117.799031207732 275.12781696162 2.10087502949818e-013
endloop
endfacet
facet normal 7.51589851870975e-019 -9.52580948100294e-015 -1.0
outer loop
vertex 117.799031207732 275.12781696162 2.10087502949818e-013
vertex 75.0109969729443 277.01486456111 1.677880057116e-013
vertex 130.0 275.3 2.31237251568928e-013
endloop
endfacet
facet normal 7.51589851870975e-019 -9.52580948100294e-015 -1.0
outer loop
vertex 130.0 275.3 2.31237251568928e-013
vertex 75.0109969729443 277.01486456111 1.677880057116e-013
vertex 130.0 285.3 1.29718458197203e-013
endloop
endfacet
facet normal 7.51589851870975e-019 -9.52580948100294e-015 -1.0
outer loop
vertex 130.0 285.3 1.29718458197203e-013
vertex 75.0109969729443 277.01486456111 1.677880057116e-013
vertex 78.8638001971442 282.426891524359 1.33948407921025e-013
endloop
endfacet
facet normal 7.51589851870975e-019 -9.52580948100294e-015 -1.0
outer loop
vertex 130.0 285.3 1.29718458197203e-013
vertex 78.8638001971442 282.426891524359 1.33948407921025e-013
vertex 94.0677984839439 285.3 1.0715872633682e-013
endloop
endfacet
facet normal 7.51589851870975e-019 -9.52580948100294e-015 -1.0
outer loop
vertex 130.0 285.3 1.29718458197203e-013
vertex 94.0677984839439 285.3 1.0715872633682e-013
vertex 109.067798483944 285.3 1.0715872633682e-013
endloop
endfacet
facet normal 7.51589851870975e-019 -9.52580948100294e-015 -1.0
outer loop
vertex 130.0 285.3 1.29718458197203e-013
vertex 109.067798483944 285.3 1.0715872633682e-013
vertex 127.186230491658 285.549023395049 1.26898491714655e-013
endloop
endfacet
facet normal 7.51589851870975e-019 -9.52580948100294e-015 -1.0
outer loop
vertex 127.186230491658 285.549023395049 1.26898491714655e-013
vertex 109.067798483944 285.3 1.0715872633682e-013
vertex 109.067798483944 290.3 5.4989346409684e-014
endloop
endfacet
facet normal 7.51589851870975e-019 -9.52580948100294e-015 -1.0
outer loop
vertex 127.186230491658 285.549023395049 1.26898491714655e-013
vertex 109.067798483944 290.3 5.4989346409684e-014
vertex 124.540378160697 286.538354957321 1.17028609025738e-013
endloop
endfacet
facet normal 7.51589851870975e-019 -9.52580948100294e-015 -1.0
outer loop
vertex 124.540378160697 286.538354957321 1.17028609025738e-013
vertex 109.067798483944 290.3 5.4989346409684e-014
vertex 122.253521980894 288.196546837127 1.0010881013045e-013
endloop
endfacet
facet normal 7.51589851870975e-019 -9.52580948100294e-015 -1.0
outer loop
vertex 122.253521980894 288.196546837127 1.0010881013045e-013
vertex 109.067798483944 290.3 5.4989346409684e-014
vertex 120.490814832059 290.403847225567 7.75490782700672e-014
endloop
endfacet
facet normal 7.51589851870975e-019 -9.52580948100294e-015 -1.0
outer loop
vertex 10.0 295.3 1.40998324127395e-015
vertex 15.0000000000001 244.3263171211 4.97724084169704e-013
vertex 10.0000000000001 244.3263171211 4.97724084169704e-013
endloop
endfacet
facet normal 7.51589851870975e-019 -9.52580948100294e-015 -1.0
outer loop
vertex 15.0000000000001 244.3263171211 4.97724084169704e-013
vertex 10.0 295.3 1.40998324127395e-015
vertex 17.0722208323966 255.475638857021 5.66813262992127e-013
endloop
endfacet
facet normal 7.51589851870975e-019 -9.52580948100294e-015 -1.0
outer loop
vertex 15.0000000000001 244.3263171211 4.97724084169704e-013
vertex 17.0722208323966 255.475638857021 5.66813262992127e-013
vertex 18.1711254799476 252.822648353149 5.93602944576332e-013
endloop
endfacet
facet normal 7.51589851870975e-019 -9.52580948100294e-015 -1.0
outer loop
vertex 15.0000000000001 244.3263171211 4.97724084169704e-013
vertex 18.1711254799476 252.822648353149 5.93602944576332e-013
vertex 19.9192303285244 250.544473760097 6.16162676436716e-013
endloop
endfacet
facet normal 7.51589851870975e-019 -9.52580948100294e-015 -1.0
outer loop
vertex 15.0000000000001 244.3263171211 4.97724084169704e-013
vertex 19.9192303285244 250.544473760097 6.16162676436716e-013
vertex 22.1974049215764 248.79636891152 6.34492458573277e-013
endloop
endfacet
facet normal 7.51589851870975e-019 -9.52580948100294e-015 -1.0
outer loop
vertex 15.0000000000001 244.3263171211 4.97724084169704e-013
vertex 22.1974049215764 248.79636891152 6.34492458573277e-013
vertex 24.8503954254487 247.697464263969 6.45772324503468e-013
endloop
endfacet
facet normal 7.51589851870975e-019 -9.52580948100294e-015 -1.0
outer loop
vertex 15.0000000000001 244.3263171211 4.97724084169704e-013
vertex 24.8503954254487 247.697464263969 6.45772324503468e-013
vertex 27.6974049215764 247.322648353149 6.5000227422729e-013
endloop
endfacet
facet normal 7.51589851870975e-019 -9.52580948100294e-015 -1.0
outer loop
vertex 17.0722208323966 255.475638857021 5.66813262992127e-013
vertex 10.0 295.3 1.40998324127395e-015
vertex 16.6974049215764 258.322648353149 5.37203614925374e-013
endloop
endfacet
facet normal 7.51589851870975e-019 -9.52580948100294e-015 -1.0
outer loop
vertex 16.6974049215764 258.322648353149 5.37203614925374e-013
vertex 10.0 295.3 1.40998324127395e-015
vertex 17.0722208323966 261.169657849277 5.07593966858622e-013
endloop
endfacet
facet normal 7.51589851870975e-019 -9.52580948100294e-015 -1.0
outer loop
vertex 17.0722208323966 261.169657849277 5.07593966858622e-013
vertex 10.0 295.3 1.40998324127395e-015
vertex 18.1711254799475 263.822648353149 4.80804285274417e-013
endloop
endfacet
facet normal 7.51589851870975e-019 -9.52580948100294e-015 -1.0
outer loop
vertex 18.1711254799475 263.822648353149 4.80804285274417e-013
vertex 10.0 295.3 1.40998324127395e-015
vertex 19.9192303285243 266.100822946201 4.58244553414033e-013
endloop
endfacet
facet normal 7.51589851870975e-019 -9.52580948100294e-015 -1.0
outer loop
vertex 19.9192303285243 266.100822946201 4.58244553414033e-013
vertex 10.0 295.3 1.40998324127395e-015
vertex 22.1974049215764 267.848927794778 4.39914771277472e-013
endloop
endfacet
facet normal 7.51589851870975e-019 -9.52580948100294e-015 -1.0
outer loop
vertex 22.1974049215764 267.848927794778 4.39914771277472e-013
vertex 10.0 295.3 1.40998324127395e-015
vertex 14.8501423528569 285.3 1.04338759854272e-013
endloop
endfacet
facet normal 7.51589851870975e-019 -9.52580948100294e-015 -1.0
outer loop
vertex 22.1974049215764 267.848927794778 4.39914771277472e-013
vertex 14.8501423528569 285.3 1.04338759854272e-013
vertex 24.8503954254486 268.947832442329 4.2863490534728e-013
endloop
endfacet
facet normal 7.51589851870975e-019 -9.52580948100294e-015 -1.0
outer loop
vertex 24.8503954254486 268.947832442329 4.2863490534728e-013
vertex 14.8501423528569 285.3 1.04338759854272e-013
vertex 27.6974049215764 269.322648353149 4.24404955623459e-013
endloop
endfacet
facet normal 7.51589851870975e-019 -9.52580948100294e-015 -1.0
outer loop
vertex 27.6974049215764 269.322648353149 4.24404955623459e-013
vertex 14.8501423528569 285.3 1.04338759854272e-013
vertex 50.5838197385687 270.200836151538 2.1431745267364e-013
endloop
endfacet
facet normal 7.51589851870975e-019 -9.52580948100294e-015 -1.0
outer loop
vertex 50.5838197385687 270.200836151538 2.1431745267364e-013
vertex 14.8501423528569 285.3 1.04338759854272e-013
vertex 44.4859266897787 272.83708896583 2.10087502949818e-013
endloop
endfacet
facet normal 7.51589851870975e-019 -9.52580948100294e-015 -1.0
outer loop
vertex 44.4859266897787 272.83708896583 2.10087502949818e-013
vertex 14.8501423528569 285.3 1.04338759854272e-013
vertex 39.3206271233617 277.01486456111 1.677880057116e-013
endloop
endfacet
facet normal 7.51589851870975e-019 -9.52580948100294e-015 -1.0
outer loop
vertex 39.3206271233617 277.01486456111 1.677880057116e-013
vertex 14.8501423528569 285.3 1.04338759854272e-013
vertex 35.4678238991617 282.426891524359 1.33948407921025e-013
endloop
endfacet
facet normal 7.51589851870975e-019 -9.52580948100294e-015 -1.0
outer loop
vertex 14.8501423528569 285.3 1.04338759854272e-013
vertex 10.0 295.3 1.40998324127395e-015
vertex 14.8501423528569 290.3 7.47291117875193e-014
endloop
endfacet
facet normal 7.51589851870975e-019 -9.52580948100294e-015 -1.0
outer loop
vertex 14.8501423528569 290.3 7.47291117875193e-014
vertex 10.0 295.3 1.40998324127395e-015
vertex 19.8501423528569 290.3 7.47291117875193e-014
endloop
endfacet
facet normal 7.51589851870975e-019 -9.52580948100294e-015 -1.0
outer loop
vertex 19.8501423528569 290.3 7.47291117875193e-014
vertex 10.0 295.3 1.40998324127395e-015
vertex 19.8501423528569 295.3 2.39697151016571e-014
endloop
endfacet
facet normal 7.51589851870975e-019 -9.52580948100294e-015 -1.0
outer loop
vertex 24.8501423528569 295.3 2.39697151016571e-014
vertex 29.8501423528569 290.3 7.47291117875193e-014
vertex 24.8501423528569 290.3 7.47291117875193e-014
endloop
endfacet
facet normal 7.51589851870975e-019 -9.52580948100294e-015 -1.0
outer loop
vertex 29.8501423528569 290.3 7.47291117875193e-014
vertex 24.8501423528569 295.3 2.39697151016571e-014
vertex 32.7158120481529 295.3 2.39697151016571e-014
endloop
endfacet
facet normal 7.51589851870975e-019 -9.52580948100294e-015 -1.0
outer loop
vertex 35.4678238991617 282.426891524359 1.33948407921025e-013
vertex 29.8501423528569 285.3 1.26898491714655e-013
vertex 33.210887022049 288.675120430863 6.90891788224235e-014
endloop
endfacet
facet normal 7.51589851870975e-019 -9.52580948100294e-015 -1.0
outer loop
vertex 29.8501423528569 285.3 1.26898491714655e-013
vertex 35.4678238991617 282.426891524359 1.33948407921025e-013
vertex 14.8501423528569 285.3 1.04338759854272e-013
endloop
endfacet
facet normal 7.51589851870975e-019 -9.52580948100294e-015 -1.0
outer loop
vertex 33.210887022049 288.675120430863 6.90891788224235e-014
vertex 29.8501423528569 285.3 1.26898491714655e-013
vertex 29.8501423528569 290.3 7.47291117875193e-014
endloop
endfacet
facet normal 7.51589851870975e-019 -9.52580948100294e-015 -1.0
outer loop
vertex 33.210887022049 288.675120430863 6.90891788224235e-014
vertex 29.8501423528569 290.3 7.47291117875193e-014
vertex 32.7158120481529 295.3 2.39697151016571e-014
endloop
endfacet
facet normal -1.0 -2.19165335590516e-015 -4.9453244631438e-017
outer loop
vertex 10.0 295.3 9.99999999999998
vertex 10.0000000000001 244.3263171211 4.97724084169704e-013
vertex 10.0000000000001 244.3263171211 10.0000000000005
endloop
endfacet
facet normal -1.0 -2.19165335590516e-015 -4.9453244631438e-017
outer loop
vertex 10.0000000000001 244.3263171211 4.97724084169704e-013
vertex 10.0 295.3 9.99999999999998
vertex 10.0 295.3 1.40998324127395e-015
endloop
endfacet
facet normal -2.19590999733077e-015 1.0 -1.021194252588e-014
outer loop
vertex 29.8501423528569 285.3 10.0000000000001
vertex 14.8501423528569 285.3 1.04338759854272e-013
vertex 14.8501423528569 285.3 10.0000000000001
endloop
endfacet
facet normal -2.19590999733077e-015 1.0 -1.021194252588e-014
outer loop
vertex 14.8501423528569 285.3 1.04338759854272e-013
vertex 29.8501423528569 285.3 10.0000000000001
vertex 29.8501423528569 285.3 1.26898491714655e-013
endloop
endfacet
facet normal 1.0 2.19590999733078e-015 1.15574216863479e-015
outer loop
vertex 19.8501423528569 290.3 10.0
vertex 19.8501423528569 295.3 2.39697151016571e-014
vertex 19.8501423528569 295.3 9.99999999999998
endloop
endfacet
facet normal 1.0 2.19590999733078e-015 1.15574216863479e-015
outer loop
vertex 19.8501423528569 295.3 2.39697151016571e-014
vertex 19.8501423528569 290.3 10.0
vertex 19.8501423528569 290.3 7.47291117875193e-014
endloop
endfacet
facet normal 2.19590999733077e-015 -1.0 1.021194252588e-014
outer loop
vertex 19.8501423528569 290.3 7.47291117875193e-014
vertex 14.8501423528569 290.3 10.0
vertex 14.8501423528569 290.3 7.47291117875193e-014
endloop
endfacet
facet normal 2.19590999733077e-015 -1.0 1.021194252588e-014
outer loop
vertex 14.8501423528569 290.3 10.0
vertex 19.8501423528569 290.3 7.47291117875193e-014
vertex 19.8501423528569 290.3 10.0
endloop
endfacet
facet normal -1.0 -2.19590999733077e-015 -2.77555756156289e-017
outer loop
vertex 24.8501423528569 295.3 2.39697151016571e-014
vertex 24.8501423528569 290.3 10.0
vertex 24.8501423528569 295.3 9.99999999999996
endloop
endfacet
facet normal -1.0 -2.19590999733077e-015 -2.77555756156289e-017
outer loop
vertex 24.8501423528569 290.3 10.0
vertex 24.8501423528569 295.3 2.39697151016571e-014
vertex 24.8501423528569 290.3 7.47291117875193e-014
endloop
endfacet
facet normal 4.45188318336909e-015 -1.0 1.13399291188992e-014
outer loop
vertex 29.8501423528569 290.3 7.47291117875193e-014
vertex 24.8501423528569 290.3 10.0
vertex 24.8501423528569 290.3 7.47291117875193e-014
endloop
endfacet
facet normal 4.45188318336909e-015 -1.0 1.13399291188992e-014
outer loop
vertex 24.8501423528569 290.3 10.0
vertex 29.8501423528569 290.3 7.47291117875193e-014
vertex 29.8501423528569 290.3 10.0
endloop
endfacet
facet normal 1.0 2.19590999733077e-015 2.77555756156289e-017
outer loop
vertex 14.8501423528569 285.3 1.04338759854272e-013
vertex 14.8501423528569 290.3 10.0
vertex 14.8501423528569 285.3 10.0000000000001
endloop
endfacet
facet normal 1.0 2.19590999733077e-015 2.77555756156289e-017
outer loop
vertex 14.8501423528569 290.3 10.0
vertex 14.8501423528569 285.3 1.04338759854272e-013
vertex 14.8501423528569 290.3 7.47291117875193e-014
endloop
endfacet
facet normal -1.0 -2.19590999733077e-015 -2.77555756156289e-017
outer loop
vertex 29.8501423528569 290.3 7.47291117875193e-014
vertex 29.8501423528569 285.3 10.0000000000001
vertex 29.8501423528569 290.3 10.0
endloop
endfacet
facet normal -1.0 -2.19590999733077e-015 -2.77555756156289e-017
outer loop
vertex 29.8501423528569 285.3 10.0000000000001
vertex 29.8501423528569 290.3 7.47291117875193e-014
vertex 29.8501423528569 285.3 1.26898491714655e-013
endloop
endfacet
facet normal 0.796166408752367 0.476272083739499 0.37320765241993
outer loop
vertex 122.216909035694 291.436408351053 5.00000000000006
vertex 119.379556438793 293.000848627329 10.0
vertex 120.490814832059 290.403847225567 10.0
endloop
endfacet
facet normal 0.89424764786059 0.247057063187854 0.373207652419932
outer loop
vertex 119.379556438793 293.000848627329 10.0
vertex 122.216909035694 291.436408351053 5.00000000000006
vertex 121.31829143768 293.536470025126 5.00000000000004
endloop
endfacet
facet normal 0.0818906165654798 0.925299889458965 0.370289132281454
outer loop
vertex 130.0 285.3 10.0000000000001
vertex 127.631147860969 287.510561621078 5.0000000000001
vertex 127.186230491658 285.549023395049 10.0000000000001
endloop
endfacet
facet normal 0.205219543273039 0.904765708475964 0.373207652419926
outer loop
vertex 127.631147860969 287.510561621078 5.0000000000001
vertex 130.0 285.3 10.0000000000001
vertex 129.906498771499 287.309189189189 5.0000000000001
endloop
endfacet
facet normal 0.438746215998851 0.817445904095126 0.373207652419926
outer loop
vertex 124.540378160697 286.538354957321 10.0000000000001
vertex 123.642319789562 289.65147787478 5.00000000000008
vertex 122.253521980894 288.196546837128 10.0000000000001
endloop
endfacet
facet normal 0.640587380157073 0.671091541116936 0.373207652419928
outer loop
vertex 123.642319789562 289.65147787478 5.00000000000008
vertex 124.540378160697 286.538354957321 10.0000000000001
vertex 125.491582949014 288.310583251974 5.00000000000009
endloop
endfacet
facet normal 0.640587380157073 0.671091541116936 0.373207652419928
outer loop
vertex 123.642319789562 289.65147787478 5.00000000000008
vertex 120.490814832059 290.403847225567 10.0
vertex 122.253521980894 288.196546837128 10.0000000000001
endloop
endfacet
facet normal 0.796166408752367 0.476272083739499 0.37320765241993
outer loop
vertex 120.490814832059 290.403847225567 10.0
vertex 123.642319789562 289.65147787478 5.00000000000008
vertex 122.216909035694 291.436408351053 5.00000000000006
endloop
endfacet
facet normal 0.20521954327304 0.904765708475964 0.373207652419926
outer loop
vertex 127.186230491658 285.549023395049 10.0000000000001
vertex 125.491582949014 288.310583251974 5.00000000000009
vertex 124.540378160697 286.538354957321 10.0000000000001
endloop
endfacet
facet normal 0.438746215998852 0.817445904095126 0.373207652419926
outer loop
vertex 125.491582949014 288.310583251974 5.00000000000009
vertex 127.186230491658 285.549023395049 10.0000000000001
vertex 127.631147860969 287.510561621078 5.0000000000001
endloop
endfacet
facet normal 0.894247647860589 0.247057063187854 0.373207652419931
outer loop
vertex 121.31829143768 293.536470025126 5.00000000000004
vertex 119.067798483944 295.3 9.99999999999999
vertex 119.379556438793 293.000848627329 10.0
endloop
endfacet
facet normal 0.920492758213801 0.124816026976482 0.370289132281459
outer loop
vertex 119.067798483944 295.3 9.99999999999999
vertex 121.31829143768 293.536470025126 5.00000000000004
vertex 121.079162120308 295.3 5.00000000000002
endloop
endfacet
facet normal 0.894247647860591 0.247057063187845 -0.373207652419935
outer loop
vertex 119.379556438793 293.000848627329 5.07593966858622e-014
vertex 121.079162120308 295.3 5.00000000000002
vertex 121.31829143768 293.536470025126 5.00000000000004
endloop
endfacet
facet normal 0.920492758213802 0.124816026976472 -0.370289132281459
outer loop
vertex 121.079162120308 295.3 5.00000000000002
vertex 119.379556438793 293.000848627329 5.07593966858622e-014
vertex 119.067798483944 295.3 4.22994972382185e-015
endloop
endfacet
facet normal 0.205219543273039 0.904765708475957 -0.373207652419943
outer loop
vertex 127.631147860969 287.510561621078 5.0000000000001
vertex 130.0 285.3 1.29718458197203e-013
vertex 127.186230491658 285.549023395049 1.26898491714655e-013
endloop
endfacet
facet normal 0.0818906165654799 0.925299889458958 -0.370289132281471
outer loop
vertex 130.0 285.3 1.29718458197203e-013
vertex 127.631147860969 287.510561621078 5.0000000000001
vertex 129.906498771499 287.309189189189 5.0000000000001
endloop
endfacet
facet normal 0.796166408752368 0.476272083739491 -0.373207652419938
outer loop
vertex 120.490814832059 290.403847225567 7.75490782700672e-014
vertex 121.31829143768 293.536470025126 5.00000000000004
vertex 122.216909035694 291.436408351053 5.00000000000006
endloop
endfacet
facet normal 0.89424764786059 0.247057063187845 -0.373207652419935
outer loop
vertex 121.31829143768 293.536470025126 5.00000000000004
vertex 120.490814832059 290.403847225567 7.75490782700672e-014
vertex 119.379556438793 293.000848627329 5.07593966858622e-014
endloop
endfacet
facet normal 0.438746215998852 0.817445904095118 -0.373207652419941
outer loop
vertex 125.491582949014 288.310583251974 5.00000000000009
vertex 127.186230491658 285.549023395049 1.26898491714655e-013
vertex 124.540378160697 286.538354957321 1.17028609025738e-013
endloop
endfacet
facet normal 0.20521954327304 0.904765708475957 -0.373207652419943
outer loop
vertex 127.186230491658 285.549023395049 1.26898491714655e-013
vertex 125.491582949014 288.310583251974 5.00000000000009
vertex 127.631147860969 287.510561621078 5.0000000000001
endloop
endfacet
facet normal 0.640587380157073 0.671091541116929 -0.37320765241994
outer loop
vertex 122.253521980894 288.196546837127 1.0010881013045e-013
vertex 122.216909035694 291.436408351053 5.00000000000006
vertex 123.642319789562 289.65147787478 5.00000000000008
endloop
endfacet
facet normal 0.796166408752367 0.476272083739491 -0.373207652419938
outer loop
vertex 122.216909035694 291.436408351053 5.00000000000006
vertex 122.253521980894 288.196546837127 1.0010881013045e-013
vertex 120.490814832059 290.403847225567 7.75490782700672e-014
endloop
endfacet
facet normal 0.640587380157073 0.671091541116929 -0.37320765241994
outer loop
vertex 123.642319789562 289.65147787478 5.00000000000008
vertex 124.540378160697 286.538354957321 1.17028609025738e-013
vertex 122.253521980894 288.196546837127 1.0010881013045e-013
endloop
endfacet
facet normal 0.438746215998852 0.817445904095118 -0.373207652419941
outer loop
vertex 124.540378160697 286.538354957321 1.17028609025738e-013
vertex 123.642319789562 289.65147787478 5.00000000000008
vertex 125.491582949014 288.310583251974 5.00000000000009
endloop
endfacet
facet normal 0.999822097044209 0.0133374334510081 -0.0133374334510062
outer loop
vertex 130.0 275.3 2.31237251568928e-013
vertex 129.906498771499 287.309189189189 5.0000000000001
vertex 130.0 285.3 10.0000000000001
endloop
endfacet
facet normal 0.999825196250587 2.38815059728664e-015 0.0186969768271852
outer loop
vertex 130.0 285.3 1.29718458197203e-013
vertex 129.906498771499 287.309189189189 5.0000000000001
vertex 130.0 275.3 2.31237251568928e-013
endloop
endfacet
facet normal 0.014110838104756 -0.999900437167612 1.13394744368687e-014
outer loop
vertex 130.0 275.3 2.31237251568928e-013
vertex 117.799031207732 275.12781696162 10.0000000000002
vertex 117.799031207732 275.12781696162 2.10087502949818e-013
endloop
endfacet
facet normal 0.0607977109348917 -0.99815010812256 1.11898312554675e-014
outer loop
vertex 117.799031207732 275.12781696162 10.0000000000002
vertex 130.0 275.3 2.31237251568928e-013
vertex 130.0 275.3 10.0000000000002
endloop
endfacet
facet normal 1.0 2.19590999733077e-015 2.77555756156289e-017
outer loop
vertex 130.0 275.3 2.31237251568928e-013
vertex 130.0 285.3 10.0000000000001
vertex 130.0 275.3 10.0000000000002
endloop
endfacet
facet normal -9.18810387631878e-017 9.92707860643124e-015 1.0
outer loop
vertex 16.1555377498098 215.835779111165 10.0000000000008
vertex 10.0000000000001 234.3263171211 10.0000000000006
vertex 10.0000000000002 205.3 10.0000000000009
endloop
endfacet
facet normal -9.18810387631878e-017 9.92707860643124e-015 1.0
outer loop
vertex 10.0000000000001 234.3263171211 10.0000000000006
vertex 16.1555377498098 215.835779111165 10.0000000000008
vertex 23.2673319809143 225.75120493576 10.0000000000006
endloop
endfacet
facet normal -9.18810387631878e-017 9.92707860643124e-015 1.0
outer loop
vertex 10.0000000000001 234.3263171211 10.0000000000006
vertex 23.2673319809143 225.75120493576 10.0000000000006
vertex 20.0000000000001 234.3263171211 10.0000000000006
endloop
endfacet
facet normal -9.18810387631878e-017 9.92707860643124e-015 1.0
outer loop
vertex 127.186230491658 285.549023395049 10.0000000000001
vertex 109.067798483944 285.3 10.0000000000001
vertex 130.0 285.3 10.0000000000001
endloop
endfacet
facet normal -9.18810387631878e-017 9.92707860643124e-015 1.0
outer loop
vertex 109.067798483944 285.3 10.0000000000001
vertex 127.186230491658 285.549023395049 10.0000000000001
vertex 109.067798483944 290.3 10.0
endloop
endfacet
facet normal -9.18810387631878e-017 9.92707860643124e-015 1.0
outer loop
vertex 109.067798483944 290.3 10.0
vertex 127.186230491658 285.549023395049 10.0000000000001
vertex 124.540378160697 286.538354957321 10.0000000000001
endloop
endfacet
facet normal -9.18810387631878e-017 9.92707860643124e-015 1.0
outer loop
vertex 109.067798483944 290.3 10.0
vertex 124.540378160697 286.538354957321 10.0000000000001
vertex 122.253521980894 288.196546837128 10.0000000000001
endloop
endfacet
facet normal -9.18810387631878e-017 9.92707860643124e-015 1.0
outer loop
vertex 109.067798483944 290.3 10.0
vertex 122.253521980894 288.196546837128 10.0000000000001
vertex 120.490814832059 290.403847225567 10.0
endloop
endfacet
facet normal -9.18810387631878e-017 9.92707860643124e-015 1.0
outer loop
vertex 109.067798483944 290.3 10.0
vertex 120.490814832059 290.403847225567 10.0
vertex 104.067798483944 290.3 10.0
endloop
endfacet
facet normal -9.18810387631878e-017 9.92707860643124e-015 1.0
outer loop
vertex 104.067798483944 290.3 10.0
vertex 120.490814832059 290.403847225567 10.0
vertex 104.067798483944 295.3 9.99999999999999
endloop
endfacet
facet normal -9.18810387631878e-017 9.92707860643124e-015 1.0
outer loop
vertex 104.067798483944 295.3 9.99999999999999
vertex 120.490814832059 290.403847225567 10.0
vertex 119.379556438793 293.000848627329 10.0
endloop
endfacet
facet normal -9.18810387631878e-017 9.92707860643124e-015 1.0
outer loop
vertex 104.067798483944 295.3 9.99999999999999
vertex 119.379556438793 293.000848627329 10.0
vertex 119.067798483944 295.3 9.99999999999999
endloop
endfacet
facet normal -9.18810387631878e-017 9.92707860643124e-015 1.0
outer loop
vertex 99.0677984839439 295.3 9.99999999999999
vertex 94.0677984839439 290.3 10.0
vertex 99.0677984839439 290.3 10.0
endloop
endfacet
facet normal -9.18810387631878e-017 9.92707860643124e-015 1.0
outer loop
vertex 94.0677984839439 290.3 10.0
vertex 99.0677984839439 295.3 9.99999999999999
vertex 81.6158120481529 295.3 9.99999999999999
endloop
endfacet
facet normal -9.18810387631878e-017 9.92707860643124e-015 1.0
outer loop
vertex 31.2733241336576 234.95975401359 10.0000000000006
vertex 20.0000000000001 234.3263171211 10.0000000000006
vertex 23.2673319809143 225.75120493576 10.0000000000006
endloop
endfacet
facet normal -9.18810387631878e-017 9.92707860643124e-015 1.0
outer loop
vertex 20.0000000000001 234.3263171211 10.0000000000006
vertex 31.2733241336576 234.95975401359 10.0000000000006
vertex 20.0000000000001 244.3263171211 10.0000000000005
endloop
endfacet
facet normal -9.18810387631878e-017 9.92707860643124e-015 1.0
outer loop
vertex 20.0000000000001 244.3263171211 10.0000000000005
vertex 31.2733241336576 234.95975401359 10.0000000000006
vertex 40.1036527461535 243.381071194646 10.0000000000004
endloop
endfacet
facet normal -9.18810387631878e-017 9.92707860643124e-015 1.0
outer loop
vertex 20.0000000000001 244.3263171211 10.0000000000005
vertex 40.1036527461535 243.381071194646 10.0000000000004
vertex 49.6812630756503 250.941670829921 10.0000000000004
endloop
endfacet
facet normal -9.18810387631878e-017 9.92707860643124e-015 1.0
outer loop
vertex 20.0000000000001 244.3263171211 10.0000000000005
vertex 49.6812630756503 250.941670829921 10.0000000000004
vertex 30.5444144177042 247.69746426397 10.0000000000005
endloop
endfacet
facet normal -9.18810387631878e-017 9.92707860643124e-015 1.0
outer loop
vertex 20.0000000000001 244.3263171211 10.0000000000005
vertex 30.5444144177042 247.69746426397 10.0000000000005
vertex 10.0000000000001 244.3263171211 10.0000000000005
endloop
endfacet
facet normal -9.18810387631878e-017 9.92707860643124e-015 1.0
outer loop
vertex 10.0000000000001 244.3263171211 10.0000000000005
vertex 30.5444144177042 247.69746426397 10.0000000000005
vertex 27.6974049215764 247.322648353149 10.0000000000005
endloop
endfacet
facet normal -9.18810387631878e-017 9.92707860643124e-015 1.0
outer loop
vertex 30.5444144177042 247.69746426397 10.0000000000005
vertex 49.6812630756503 250.941670829921 10.0000000000004
vertex 33.1974049215764 248.79636891152 10.0000000000005
endloop
endfacet
facet normal -9.18810387631878e-017 9.92707860643124e-015 1.0
outer loop
vertex 33.1974049215764 248.79636891152 10.0000000000005
vertex 49.6812630756503 250.941670829921 10.0000000000004
vertex 35.4755795146284 250.544473760097 10.0000000000005
endloop
endfacet
facet normal -9.18810387631878e-017 9.92707860643124e-015 1.0
outer loop
vertex 35.4755795146284 250.544473760097 10.0000000000005
vertex 49.6812630756503 250.941670829921 10.0000000000004
vertex 37.2236843632052 252.822648353149 10.0000000000004
endloop
endfacet
facet normal -9.18810387631878e-017 9.92707860643124e-015 1.0
outer loop
vertex 37.2236843632052 252.822648353149 10.0000000000004
vertex 49.6812630756503 250.941670829921 10.0000000000004
vertex 59.9225794895184 257.575578017969 10.0000000000003
endloop
endfacet
facet normal -9.18810387631878e-017 9.92707860643124e-015 1.0
outer loop
vertex 37.2236843632052 252.822648353149 10.0000000000004
vertex 59.9225794895184 257.575578017969 10.0000000000003
vertex 38.3225890107561 255.475638857022 10.0000000000004
endloop
endfacet
facet normal -9.18810387631878e-017 9.92707860643124e-015 1.0
outer loop
vertex 38.3225890107561 255.475638857022 10.0000000000004
vertex 59.9225794895184 257.575578017969 10.0000000000003
vertex 38.6974049215764 258.322648353149 10.0000000000004
endloop
endfacet
facet normal -9.18810387631878e-017 9.92707860643124e-015 1.0
outer loop
vertex 38.6974049215764 258.322648353149 10.0000000000004
vertex 59.9225794895184 257.575578017969 10.0000000000003
vertex 70.7382347584799 263.224904311571 10.0000000000002
endloop
endfacet
facet normal -9.18810387631878e-017 9.92707860643124e-015 1.0
outer loop
vertex 38.6974049215764 258.322648353149 10.0000000000004
vertex 70.7382347584799 263.224904311571 10.0000000000002
vertex 38.3225890107561 261.169657849277 10.0000000000004
endloop
endfacet
facet normal -9.18810387631878e-017 9.92707860643124e-015 1.0
outer loop
vertex 38.3225890107561 261.169657849277 10.0000000000004
vertex 70.7382347584799 263.224904311571 10.0000000000002
vertex 37.2236843632052 263.822648353149 10.0000000000003
endloop
endfacet
facet normal -9.18810387631878e-017 9.92707860643124e-015 1.0
outer loop
vertex 37.2236843632052 263.822648353149 10.0000000000003
vertex 70.7382347584799 263.224904311571 10.0000000000002
vertex 82.0338498881605 267.840352860817 10.0000000000002
endloop
endfacet
facet normal -9.18810387631878e-017 9.92707860643124e-015 1.0
outer loop
vertex 37.2236843632052 263.822648353149 10.0000000000003
vertex 82.0338498881605 267.840352860817 10.0000000000002
vertex 35.4755795146284 266.100822946201 10.0000000000003
endloop
endfacet
facet normal -9.18810387631878e-017 9.92707860643124e-015 1.0
outer loop
vertex 35.4755795146284 266.100822946201 10.0000000000003
vertex 82.0338498881605 267.840352860817 10.0000000000002
vertex 33.1974049215764 267.848927794778 10.0000000000003
endloop
endfacet
facet normal -9.18810387631878e-017 9.92707860643124e-015 1.0
outer loop
vertex 33.1974049215764 267.848927794778 10.0000000000003
vertex 82.0338498881605 267.840352860817 10.0000000000002
vertex 93.7108576840383 271.381648584646 10.0000000000002
endloop
endfacet
facet normal -9.18810387631878e-017 9.92707860643124e-015 1.0
outer loop
vertex 33.1974049215764 267.848927794778 10.0000000000003
vertex 93.7108576840383 271.381648584646 10.0000000000002
vertex 57.165812048153 269.3 10.0000000000002
endloop
endfacet
facet normal -9.18810387631878e-017 9.92707860643124e-015 1.0
outer loop
vertex 33.1974049215764 267.848927794778 10.0000000000003
vertex 57.165812048153 269.3 10.0000000000002
vertex 30.5444144177041 268.947832442329 10.0000000000003
endloop
endfacet
facet normal -9.18810387631878e-017 9.92707860643124e-015 1.0
outer loop
vertex 57.165812048153 269.3 10.0000000000002
vertex 93.7108576840383 271.381648584646 10.0000000000002
vertex 63.7478043577373 270.200836151538 10.0000000000002
endloop
endfacet
facet normal -9.18810387631878e-017 9.92707860643124e-015 1.0
outer loop
vertex 63.7478043577373 270.200836151538 10.0000000000002
vertex 93.7108576840383 271.381648584646 10.0000000000002
vertex 69.8456974065273 272.83708896583 10.0000000000002
endloop
endfacet
facet normal -9.18810387631878e-017 9.92707860643124e-015 1.0
outer loop
vertex 69.8456974065273 272.83708896583 10.0000000000002
vertex 93.7108576840383 271.381648584646 10.0000000000002
vertex 105.667362863241 273.817889617117 10.0000000000002
endloop
endfacet
facet normal -9.18810387631878e-017 9.92707860643124e-015 1.0
outer loop
vertex 69.8456974065273 272.83708896583 10.0000000000002
vertex 105.667362863241 273.817889617117 10.0000000000002
vertex 75.0109969729443 277.01486456111 10.0000000000001
endloop
endfacet
facet normal -9.18810387631878e-017 9.92707860643124e-015 1.0
outer loop
vertex 75.0109969729443 277.01486456111 10.0000000000001
vertex 105.667362863241 273.817889617117 10.0000000000002
vertex 117.799031207732 275.12781696162 10.0000000000002
endloop
endfacet
facet normal -9.18810387631878e-017 9.92707860643124e-015 1.0
outer loop
vertex 75.0109969729443 277.01486456111 10.0000000000001
vertex 117.799031207732 275.12781696162 10.0000000000002
vertex 130.0 275.3 10.0000000000002
endloop
endfacet
facet normal -9.18810387631878e-017 9.92707860643124e-015 1.0
outer loop
vertex 75.0109969729443 277.01486456111 10.0000000000001
vertex 130.0 275.3 10.0000000000002
vertex 130.0 285.3 10.0000000000001
endloop
endfacet
facet normal -9.18810387631878e-017 9.92707860643124e-015 1.0
outer loop
vertex 75.0109969729443 277.01486456111 10.0000000000001
vertex 130.0 285.3 10.0000000000001
vertex 78.8638001971442 282.426891524359 10.0000000000001
endloop
endfacet
facet normal -9.18810387631878e-017 9.92707860643124e-015 1.0
outer loop
vertex 78.8638001971442 282.426891524359 10.0000000000001
vertex 130.0 285.3 10.0000000000001
vertex 94.0677984839439 285.3 10.0000000000001
endloop
endfacet
facet normal -9.18810387631878e-017 9.92707860643124e-015 1.0
outer loop
vertex 78.8638001971442 282.426891524359 10.0000000000001
vertex 94.0677984839439 285.3 10.0000000000001
vertex 81.120737074257 288.675120430863 10.0000000000001
endloop
endfacet
facet normal -9.18810387631878e-017 9.92707860643124e-015 1.0
outer loop
vertex 94.0677984839439 285.3 10.0000000000001
vertex 130.0 285.3 10.0000000000001
vertex 109.067798483944 285.3 10.0000000000001
endloop
endfacet
facet normal -9.18810387631878e-017 9.92707860643124e-015 1.0
outer loop
vertex 81.120737074257 288.675120430863 10.0000000000001
vertex 94.0677984839439 285.3 10.0000000000001
vertex 94.0677984839439 290.3 10.0
endloop
endfacet
facet normal -9.18810387631878e-017 9.92707860643124e-015 1.0
outer loop
vertex 81.120737074257 288.675120430863 10.0000000000001
vertex 94.0677984839439 290.3 10.0
vertex 81.6158120481529 295.3 9.99999999999999
endloop
endfacet
facet normal -9.18810387631878e-017 9.92707860643124e-015 1.0
outer loop
vertex 57.165812048153 269.3 10.0000000000002
vertex 27.6974049215764 269.322648353149 10.0000000000003
vertex 30.5444144177041 268.947832442329 10.0000000000003
endloop
endfacet
facet normal -9.18810387631878e-017 9.92707860643124e-015 1.0
outer loop
vertex 27.6974049215764 269.322648353149 10.0000000000003
vertex 57.165812048153 269.3 10.0000000000002
vertex 50.5838197385687 270.200836151538 10.0000000000002
endloop
endfacet
facet normal -9.18810387631878e-017 9.92707860643124e-015 1.0
outer loop
vertex 33.210887022049 288.675120430863 10.0
vertex 29.8501423528569 285.3 10.0000000000001
vertex 35.4678238991617 282.426891524359 10.0000000000001
endloop
endfacet
facet normal -9.18810387631878e-017 9.92707860643124e-015 1.0
outer loop
vertex 29.8501423528569 285.3 10.0000000000001
vertex 33.210887022049 288.675120430863 10.0
vertex 29.8501423528569 290.3 10.0
endloop
endfacet
facet normal -9.18810387631878e-017 9.92707860643124e-015 1.0
outer loop
vertex 29.8501423528569 290.3 10.0
vertex 33.210887022049 288.675120430863 10.0
vertex 32.7158120481529 295.3 9.99999999999998
endloop
endfacet
facet normal -9.18810387631878e-017 9.92707860643124e-015 1.0
outer loop
vertex 29.8501423528569 290.3 10.0
vertex 32.7158120481529 295.3 9.99999999999998
vertex 24.8501423528569 290.3 10.0
endloop
endfacet
facet normal -9.18810387631878e-017 9.92707860643124e-015 1.0
outer loop
vertex 24.8501423528569 290.3 10.0
vertex 32.7158120481529 295.3 9.99999999999998
vertex 24.8501423528569 295.3 9.99999999999996
endloop
endfacet
facet normal -9.18810387631878e-017 9.92707860643124e-015 1.0
outer loop
vertex 19.8501423528569 295.3 9.99999999999998
vertex 14.8501423528569 290.3 10.0
vertex 19.8501423528569 290.3 10.0
endloop
endfacet
facet normal -9.18810387631878e-017 9.92707860643124e-015 1.0
outer loop
vertex 10.0000000000001 244.3263171211 10.0000000000005
vertex 17.0722208323966 255.475638857021 10.0000000000004
vertex 10.0 295.3 9.99999999999998
endloop
endfacet
facet normal -9.18810387631878e-017 9.92707860643124e-015 1.0
outer loop
vertex 17.0722208323966 255.475638857021 10.0000000000004
vertex 10.0000000000001 244.3263171211 10.0000000000005
vertex 18.1711254799476 252.822648353149 10.0000000000004
endloop
endfacet
facet normal -9.18810387631878e-017 9.92707860643124e-015 1.0
outer loop
vertex 18.1711254799476 252.822648353149 10.0000000000004
vertex 10.0000000000001 244.3263171211 10.0000000000005
vertex 19.9192303285244 250.544473760097 10.0000000000005
endloop
endfacet
facet normal -9.18810387631878e-017 9.92707860643124e-015 1.0
outer loop
vertex 19.9192303285244 250.544473760097 10.0000000000005
vertex 10.0000000000001 244.3263171211 10.0000000000005
vertex 22.1974049215764 248.79636891152 10.0000000000005
endloop
endfacet
facet normal -9.18810387631878e-017 9.92707860643124e-015 1.0
outer loop
vertex 22.1974049215764 248.79636891152 10.0000000000005
vertex 10.0000000000001 244.3263171211 10.0000000000005
vertex 24.8503954254487 247.69746426397 10.0000000000005
endloop
endfacet
facet normal -9.18810387631878e-017 9.92707860643124e-015 1.0
outer loop
vertex 24.8503954254487 247.69746426397 10.0000000000005
vertex 10.0000000000001 244.3263171211 10.0000000000005
vertex 27.6974049215764 247.322648353149 10.0000000000005
endloop
endfacet
facet normal -9.18810387631878e-017 9.92707860643124e-015 1.0
outer loop
vertex 10.0 295.3 9.99999999999998
vertex 17.0722208323966 255.475638857021 10.0000000000004
vertex 16.6974049215764 258.322648353149 10.0000000000004
endloop
endfacet
facet normal -9.18810387631878e-017 9.92707860643124e-015 1.0
outer loop
vertex 10.0 295.3 9.99999999999998
vertex 16.6974049215764 258.322648353149 10.0000000000004
vertex 17.0722208323966 261.169657849277 10.0000000000004
endloop
endfacet
facet normal -9.18810387631878e-017 9.92707860643124e-015 1.0
outer loop
vertex 10.0 295.3 9.99999999999998
vertex 17.0722208323966 261.169657849277 10.0000000000004
vertex 18.1711254799475 263.822648353149 10.0000000000003
endloop
endfacet
facet normal -9.18810387631878e-017 9.92707860643124e-015 1.0
outer loop
vertex 10.0 295.3 9.99999999999998
vertex 18.1711254799475 263.822648353149 10.0000000000003
vertex 19.9192303285243 266.100822946201 10.0000000000003
endloop
endfacet
facet normal -9.18810387631878e-017 9.92707860643124e-015 1.0
outer loop
vertex 10.0 295.3 9.99999999999998
vertex 19.9192303285243 266.100822946201 10.0000000000003
vertex 22.1974049215764 267.848927794778 10.0000000000003
endloop
endfacet
facet normal -9.18810387631878e-017 9.92707860643124e-015 1.0
outer loop
vertex 10.0 295.3 9.99999999999998
vertex 22.1974049215764 267.848927794778 10.0000000000003
vertex 14.8501423528569 285.3 10.0000000000001
endloop
endfacet
facet normal -9.18810387631878e-017 9.92707860643124e-015 1.0
outer loop
vertex 14.8501423528569 285.3 10.0000000000001
vertex 22.1974049215764 267.848927794778 10.0000000000003
vertex 24.8503954254486 268.947832442329 10.0000000000003
endloop
endfacet
facet normal -9.18810387631878e-017 9.92707860643124e-015 1.0
outer loop
vertex 14.8501423528569 285.3 10.0000000000001
vertex 24.8503954254486 268.947832442329 10.0000000000003
vertex 27.6974049215764 269.322648353149 10.0000000000003
endloop
endfacet
facet normal -9.18810387631878e-017 9.92707860643124e-015 1.0
outer loop
vertex 14.8501423528569 285.3 10.0000000000001
vertex 27.6974049215764 269.322648353149 10.0000000000003
vertex 50.5838197385687 270.200836151538 10.0000000000002
endloop
endfacet
facet normal -9.18810387631878e-017 9.92707860643124e-015 1.0
outer loop
vertex 14.8501423528569 285.3 10.0000000000001
vertex 50.5838197385687 270.200836151538 10.0000000000002
vertex 44.4859266897787 272.83708896583 10.0000000000002
endloop
endfacet
facet normal -9.18810387631878e-017 9.92707860643124e-015 1.0
outer loop
vertex 14.8501423528569 285.3 10.0000000000001
vertex 44.4859266897787 272.83708896583 10.0000000000002
vertex 39.3206271233617 277.01486456111 10.0000000000001
endloop
endfacet
facet normal -9.18810387631878e-017 9.92707860643124e-015 1.0
outer loop
vertex 14.8501423528569 285.3 10.0000000000001
vertex 39.3206271233617 277.01486456111 10.0000000000001
vertex 35.4678238991617 282.426891524359 10.0000000000001
endloop
endfacet
facet normal -9.18810387631878e-017 9.92707860643124e-015 1.0
outer loop
vertex 14.8501423528569 285.3 10.0000000000001
vertex 35.4678238991617 282.426891524359 10.0000000000001
vertex 29.8501423528569 285.3 10.0000000000001
endloop
endfacet
facet normal -9.18810387631878e-017 9.92707860643124e-015 1.0
outer loop
vertex 10.0 295.3 9.99999999999998
vertex 14.8501423528569 285.3 10.0000000000001
vertex 14.8501423528569 290.3 10.0
endloop
endfacet
facet normal -9.18810387631878e-017 9.92707860643124e-015 1.0
outer loop
vertex 10.0 295.3 9.99999999999998
vertex 14.8501423528569 290.3 10.0
vertex 19.8501423528569 295.3 9.99999999999998
endloop
endfacet
facet normal -1.0 -2.19590999733077e-015 -2.7755575615629e-017
outer loop
vertex 15.0000000000001 244.3263171211 4.97724084169704e-013
vertex 15.0000000000001 234.3263171211 5.00000000000061
vertex 15.0000000000001 244.3263171211 5.00000000000051
endloop
endfacet
facet normal -1.0 -2.19590999733077e-015 -2.7755575615629e-017
outer loop
vertex 15.0000000000001 234.3263171211 5.00000000000061
vertex 15.0000000000001 244.3263171211 4.97724084169704e-013
vertex 15.0000000000001 234.3263171211 5.9642291105888e-013
endloop
endfacet
facet normal -1.0 -2.19590999733077e-015 -2.7755575615629e-017
outer loop
vertex 10.0000000000001 234.3263171211 5.9642291105888e-013
vertex 10.0000000000002 205.3 10.0000000000009
vertex 10.0000000000001 234.3263171211 10.0000000000006
endloop
endfacet
facet normal -1.0 -2.19590999733077e-015 -2.7755575615629e-017
outer loop
vertex 10.0000000000002 205.3 10.0000000000009
vertex 10.0000000000001 234.3263171211 5.9642291105888e-013
vertex 10.0000000000002 205.3 8.98159324691505e-013
endloop
endfacet
facet normal -2.77555756156502e-017 9.70613418915956e-015 1.0
outer loop
vertex 20.0000000000001 244.3263171211 5.00000000000051
vertex 15.0000000000001 234.3263171211 5.00000000000061
vertex 20.0000000000001 234.3263171211 5.00000000000061
endloop
endfacet
facet normal -2.77555756156502e-017 9.70613418915956e-015 1.0
outer loop
vertex 15.0000000000001 234.3263171211 5.00000000000061
vertex 20.0000000000001 244.3263171211 5.00000000000051
vertex 15.0000000000001 244.3263171211 5.00000000000051
endloop
endfacet
facet normal 2.19590999733077e-015 -1.0 1.021194252588e-014
outer loop
vertex 10.0000000000001 244.3263171211 10.0000000000005
vertex 15.0000000000001 244.3263171211 5.00000000000051
vertex 20.0000000000001 244.3263171211 10.0000000000005
endloop
endfacet
facet normal 2.19590999733077e-015 -1.0 1.021194252588e-014
outer loop
vertex 15.0000000000001 244.3263171211 5.00000000000051
vertex 10.0000000000001 244.3263171211 10.0000000000005
vertex 10.0000000000001 244.3263171211 4.97724084169704e-013
endloop
endfacet
facet normal 2.19590999733077e-015 -1.0 1.021194252588e-014
outer loop
vertex 15.0000000000001 244.3263171211 5.00000000000051
vertex 10.0000000000001 244.3263171211 4.97724084169704e-013
vertex 15.0000000000001 244.3263171211 4.97724084169704e-013
endloop
endfacet
facet normal 2.19590999733077e-015 -1.0 1.021194252588e-014
outer loop
vertex 20.0000000000001 244.3263171211 10.0000000000005
vertex 15.0000000000001 244.3263171211 5.00000000000051
vertex 20.0000000000001 244.3263171211 5.00000000000051
endloop
endfacet
facet normal -2.19590999733077e-015 1.0 -1.021194252588e-014
outer loop
vertex 10.0000000000001 234.3263171211 10.0000000000006
vertex 15.0000000000001 234.3263171211 5.00000000000061
vertex 10.0000000000001 234.3263171211 5.9642291105888e-013
endloop
endfacet
facet normal -2.19590999733077e-015 1.0 -1.021194252588e-014
outer loop
vertex 15.0000000000001 234.3263171211 5.00000000000061
vertex 10.0000000000001 234.3263171211 10.0000000000006
vertex 20.0000000000001 234.3263171211 10.0000000000006
endloop
endfacet
facet normal -2.19590999733077e-015 1.0 -1.021194252588e-014
outer loop
vertex 15.0000000000001 234.3263171211 5.00000000000061
vertex 20.0000000000001 234.3263171211 10.0000000000006
vertex 20.0000000000001 234.3263171211 5.00000000000061
endloop
endfacet
facet normal -2.19590999733077e-015 1.0 -1.021194252588e-014
outer loop
vertex 15.0000000000001 234.3263171211 5.9642291105888e-013
vertex 10.0000000000001 234.3263171211 5.9642291105888e-013
vertex 15.0000000000001 234.3263171211 5.00000000000061
endloop
endfacet
facet normal -1.0 -2.19590999733077e-015 -2.77555756156289e-017
outer loop
vertex 20.0000000000001 244.3263171211 5.00000000000051
vertex 20.0000000000001 234.3263171211 10.0000000000006
vertex 20.0000000000001 244.3263171211 10.0000000000005
endloop
endfacet
facet normal -1.0 -2.19590999733077e-015 -2.77555756156289e-017
outer loop
vertex 20.0000000000001 234.3263171211 10.0000000000006
vertex 20.0000000000001 244.3263171211 5.00000000000051
vertex 20.0000000000001 234.3263171211 5.00000000000061
endloop
endfacet
endsolid SpoolHolder final
